<svg width="223" height="152" viewBox="0 0 223 152" fill="none" xmlns="http://www.w3.org/2000/svg">
<g clip-path="url(#clip0_499_2217)">
<path d="M144.964 67.9596H111.571C110.411 67.9604 109.252 67.9026 108.097 67.7862C106.468 67.6217 104.854 67.3362 103.268 66.9324C98.6871 62.454 95.3289 56.8776 93.5133 50.734C91.6977 44.5905 91.485 38.0844 92.8956 31.8354C92.816 32.5477 92.7756 33.2638 92.7748 33.9805C92.7746 36.449 93.2606 38.8933 94.2052 41.1739C95.1497 43.4546 96.5343 45.5268 98.2797 47.2722C100.025 49.0177 102.097 50.4023 104.378 51.3468C106.659 52.2914 109.103 52.7774 111.571 52.7772H126.518C130.877 52.7758 135.1 54.2896 138.465 57.0593C141.83 59.829 144.127 63.6824 144.964 67.9596Z" fill="url(#paint0_linear_499_2217)"/>
<path d="M144.964 9.69928e-06C144.127 4.27721 141.83 8.13056 138.465 10.9003C135.1 13.67 130.877 15.1837 126.518 15.1824H111.571C106.956 15.1795 102.502 16.8756 99.0573 19.947C95.6128 23.0185 93.4195 27.2504 92.8956 31.8356C91.4764 38.0843 91.6848 44.5927 93.5009 50.7379C95.3169 56.883 98.6799 62.4591 103.268 66.9325C88.5149 63.2323 77.5924 49.8849 77.5924 33.9807C77.5924 16.3829 90.9621 1.91291 108.097 0.173331C109.252 0.0569857 110.411 -0.000861717 111.571 9.69928e-06H144.964Z" fill="url(#paint1_linear_499_2217)"/>
<path d="M145.552 33.9805C145.564 40.6689 143.591 47.2104 139.883 52.7772C139.096 53.9637 138.233 55.0987 137.301 56.1753C134.141 53.9584 130.374 52.7716 126.514 52.7772H111.567C114.05 52.8 116.513 52.3307 118.813 51.3963C121.114 50.4619 123.207 49.0809 124.971 47.3331C126.735 45.5853 128.135 43.5054 129.09 41.2134C130.046 38.9215 130.538 36.4629 130.538 33.9797C130.538 31.4966 130.046 29.038 129.09 26.746C128.135 24.4541 126.735 22.3741 124.971 20.6264C123.207 18.8786 121.114 17.4976 118.813 16.5632C116.513 15.6288 114.05 15.1594 111.567 15.1822H126.514C130.374 15.1879 134.141 14.0011 137.301 11.7842C138.233 12.8618 139.096 13.9978 139.883 15.1854C143.59 20.7518 145.563 27.2927 145.552 33.9805Z" fill="url(#paint2_linear_499_2217)"/>
<path d="M77.4478 89.3596C77.4478 89.5329 77.4478 89.7078 77.4573 89.8811H129.758C133.813 89.8803 137.702 88.2686 140.569 85.4005C143.436 82.5324 145.047 78.6429 145.046 74.5875C145.046 74.4141 145.046 74.2456 145.037 74.0723H92.7414C90.7335 74.0718 88.7451 74.4669 86.8898 75.235C85.0345 76.003 83.3486 77.1289 81.9285 78.5485C80.5083 79.9681 79.3817 81.6534 78.6129 83.5084C77.8441 85.3634 77.4482 87.3516 77.4478 89.3596Z" fill="url(#paint3_linear_499_2217)"/>
<path d="M144.964 0C144.127 4.2772 141.83 8.13055 138.465 10.9003C135.1 13.67 130.877 15.1837 126.519 15.1824H111.572C106.957 15.1795 102.502 16.8755 99.0575 19.947C95.613 23.0185 93.4196 27.2504 92.8957 31.8356C91.4765 38.0843 91.6849 44.5927 93.501 50.7378C95.3171 56.883 98.68 62.4591 103.268 66.9325C100.216 66.0037 97.3845 64.4658 94.9438 62.4118C82.1339 51.4957 81.8047 25.7137 93.0166 16.6166C98.5708 12.1135 106.973 11.6984 114.706 11.3152C122.841 10.9129 126.299 12.3679 132.057 10.3516C138.303 8.17476 142.431 3.58888 144.964 0Z" fill="url(#paint4_linear_499_2217)"/>
<path d="M144.964 67.9596H111.571C110.411 67.9604 109.252 67.9026 108.097 67.7862C106.468 67.6217 104.854 67.3362 103.268 66.9324C98.6871 62.454 95.3289 56.8776 93.5133 50.734C91.6977 44.5905 91.485 38.0844 92.8956 31.8354C92.8479 32.3506 92.7939 33.09 92.7748 33.9805C92.6015 42.1012 95.6227 54.256 103.138 59.5256C114.015 67.1502 127.558 55.6171 141.696 65.3088C142.855 66.1033 143.947 66.9897 144.964 67.9596Z" fill="url(#paint5_linear_499_2217)"/>
<path d="M145.552 33.9805C145.564 40.6689 143.591 47.2104 139.883 52.7772C139.096 53.9637 138.233 55.0987 137.301 56.1753C134.141 53.9584 130.374 52.7716 126.514 52.7772H111.567C114.526 52.6977 120.021 52.1491 125.786 48.9212C127.694 47.8558 137.835 42.1728 140.246 30.1245C142.022 21.2453 138.556 14.1105 137.296 11.7842C138.23 12.8616 139.094 13.9977 139.883 15.1854C143.59 20.7518 145.563 27.2927 145.552 33.9805Z" fill="url(#paint6_linear_499_2217)"/>
<path d="M77.4478 89.3596C77.4478 89.49 77.4478 89.6204 77.4478 89.6204C77.4478 89.7078 77.4478 89.7937 77.4478 89.8811H129.758C133.813 89.8803 137.702 88.2686 140.569 85.4005C143.436 82.5324 145.047 78.6429 145.046 74.5875C145.046 74.4141 145.046 74.2456 145.037 74.0723C143.192 75.935 141.094 77.5281 138.804 78.8044C122.677 87.752 101.489 77.5753 86.7499 82.6604C80.3274 84.8771 77.4478 89.191 77.4478 89.3596Z" fill="url(#paint7_linear_499_2217)"/>
</g>
<path d="M22.832 117.751C20.3298 115.284 17.0629 114.033 13.796 114.033C5.21178 114.033 0.93704 120.358 0.93704 127.205C0.93704 133.599 4.65571 139.612 13.796 139.612C18.0707 139.612 21.0943 137.978 23.4924 135.233V124.98H13.0662V129.081H19.2871V133.391C17.3757 134.92 15.7075 135.337 13.796 135.337C7.74882 135.337 5.4203 131.201 5.4203 127.205C5.4203 122.2 8.58291 118.238 13.796 118.238C15.916 118.238 18.3488 119.107 19.9822 120.671L22.832 117.751ZM44.9793 132.001C45.6396 124.946 42.0599 121.401 36.3255 121.401C30.7649 121.401 27.22 125.154 27.22 130.367C27.22 135.858 30.7302 139.507 36.6383 139.507C39.2449 139.507 42.199 138.604 44.0062 136.727L41.2954 134.051C40.3222 135.059 38.2718 135.65 36.7078 135.65C33.719 135.65 31.877 134.121 31.599 132.001H44.9793ZM31.6685 128.49C32.2941 126.266 34.1708 125.154 36.4646 125.154C38.8973 125.154 40.635 126.266 40.9131 128.49H31.6685ZM57.0044 121.574C51.548 121.574 48.1422 125.606 48.1422 130.506C48.1422 135.441 51.4785 139.438 57.0392 139.438C62.5998 139.438 65.9709 135.441 65.9709 130.506C65.9709 125.606 62.4608 121.574 57.0044 121.574ZM57.0392 125.432C59.889 125.432 61.6962 127.934 61.6962 130.506C61.6962 133.113 60.1323 135.546 57.0392 135.546C53.9461 135.546 52.3821 133.113 52.3821 130.506C52.3821 127.934 53.9808 125.432 57.0392 125.432ZM85.2322 139.056V129.881C85.2322 127.622 86.6572 125.641 88.9509 125.641C91.2447 125.641 92.183 127.552 92.183 129.811V139.056H96.423V129.811C96.423 124.668 94.025 121.679 89.1594 121.679C86.9352 121.679 84.9542 122.374 83.425 124.807C82.4519 122.443 80.4014 121.609 78.351 121.609C76.7175 121.609 74.7366 122.235 73.8329 123.972L73.5202 121.887H69.593V139.056H73.8329V129.881C73.8329 127.622 75.1884 125.571 77.4821 125.571C79.8106 125.571 80.9923 127.622 80.9923 129.881V139.056H85.2322ZM114.894 124.285C113.921 122.582 111.732 121.505 109.438 121.505C104.433 121.47 100.506 124.563 100.506 130.471C100.506 136.484 104.259 139.612 109.334 139.577C111.245 139.542 113.921 138.569 114.894 136.553L115.103 139.056H119.099V121.922H115.033L114.894 124.285ZM109.82 125.293C116.493 125.293 116.493 135.685 109.82 135.685C107.005 135.685 104.746 133.738 104.746 130.471C104.746 127.205 107.005 125.293 109.82 125.293ZM124.377 117.543V121.957H121.179V125.606H124.377V133.008C124.377 137.283 126.809 139.403 130.528 139.264C131.814 139.229 132.822 139.021 134.038 138.534L132.857 134.92C132.231 135.233 131.466 135.441 130.806 135.441C129.485 135.441 128.582 134.642 128.582 133.008V125.606H133.343V121.957H128.617V117.091L124.377 117.543ZM137.215 114.728V139.056H141.455V130.298C141.455 127.726 143.193 125.606 145.695 125.606C147.954 125.606 149.588 126.927 149.588 130.054V139.056H153.828V130.02C153.828 124.98 151.673 121.679 146.807 121.679C144.861 121.679 142.984 122.269 141.455 124.25V114.728H137.215Z" fill="#5C3FCB"/>
<path d="M171.554 124.285C170.581 122.582 168.391 121.505 166.098 121.505C161.093 121.47 157.166 124.563 157.166 130.471C157.166 136.484 160.919 139.612 165.993 139.577C167.905 139.542 170.581 138.569 171.554 136.553L171.763 139.056H175.759V121.922H171.693L171.554 124.285ZM166.48 125.293C173.153 125.293 173.153 135.685 166.48 135.685C163.665 135.685 161.406 133.738 161.406 130.471C161.406 127.205 163.665 125.293 166.48 125.293ZM189.533 135.372C186.649 135.372 184.668 133.182 184.668 130.506C184.668 127.83 186.475 125.641 189.533 125.641C192.592 125.641 194.399 127.83 194.399 130.506C194.399 133.182 192.418 135.372 189.533 135.372ZM184.285 146.215V137.04C185.502 138.917 188.178 139.473 189.985 139.473C195.476 139.473 198.639 135.511 198.639 130.506C198.639 125.467 195.129 121.54 189.846 121.54C187.9 121.54 185.606 122.374 184.285 124.285L184.007 121.922H180.045V146.215H184.285ZM211.95 135.372C209.065 135.372 207.084 133.182 207.084 130.506C207.084 127.83 208.891 125.641 211.95 125.641C215.008 125.641 216.815 127.83 216.815 130.506C216.815 133.182 214.834 135.372 211.95 135.372ZM206.702 146.215V137.04C207.918 138.917 210.594 139.473 212.401 139.473C217.892 139.473 221.055 135.511 221.055 130.506C221.055 125.467 217.545 121.54 212.262 121.54C210.316 121.54 208.022 122.374 206.702 124.285L206.424 121.922H202.462V146.215H206.702Z" fill="#E80CD6"/>
<defs>
<linearGradient id="paint0_linear_499_2217" x1="110.411" y1="69.9647" x2="121.451" y2="43.9569" gradientUnits="userSpaceOnUse">
<stop stop-color="#930C90"/>
<stop offset="0.61" stop-color="#CA0CBD"/>
<stop offset="1" stop-color="#E80CD6"/>
</linearGradient>
<linearGradient id="paint1_linear_499_2217" x1="111.279" y1="9.69918e-06" x2="111.279" y2="66.9325" gradientUnits="userSpaceOnUse">
<stop stop-color="#5C3FCB"/>
<stop offset="0.17" stop-color="#5239B6"/>
<stop offset="0.53" stop-color="#3F2E8E"/>
<stop offset="0.82" stop-color="#332776"/>
<stop offset="1" stop-color="#2F246D"/>
</linearGradient>
<linearGradient id="paint2_linear_499_2217" x1="142.816" y1="50.6608" x2="109.455" y2="17.3003" gradientUnits="userSpaceOnUse">
<stop stop-color="#930C90"/>
<stop offset="0.34" stop-color="#841AA1"/>
<stop offset="0.99" stop-color="#5C3FCB"/>
</linearGradient>
<linearGradient id="paint3_linear_499_2217" x1="120.322" y1="97.6949" x2="102.172" y2="66.2569" gradientUnits="userSpaceOnUse">
<stop stop-color="#930C90"/>
<stop offset="0.34" stop-color="#841AA1"/>
<stop offset="0.99" stop-color="#5C3FCB"/>
</linearGradient>
<linearGradient id="paint4_linear_499_2217" x1="151.3" y1="10.9749" x2="85.5669" y2="48.9261" gradientUnits="userSpaceOnUse">
<stop stop-color="#2F246D"/>
<stop offset="0.08" stop-color="#3C2C87"/>
<stop offset="0.19" stop-color="#4A34A5"/>
<stop offset="0.3" stop-color="#543ABA"/>
<stop offset="0.4" stop-color="#5A3EC7"/>
<stop offset="0.5" stop-color="#5C3FCB"/>
<stop offset="0.59" stop-color="#593DC4"/>
<stop offset="0.71" stop-color="#4F37B0"/>
<stop offset="0.87" stop-color="#402E90"/>
<stop offset="1" stop-color="#2F246D"/>
</linearGradient>
<linearGradient id="paint5_linear_499_2217" x1="141.287" y1="74.328" x2="86.5924" y2="42.7516" gradientUnits="userSpaceOnUse">
<stop stop-color="#930C90"/>
<stop offset="0.1" stop-color="#9E0C99"/>
<stop offset="0.28" stop-color="#BC0CB1"/>
<stop offset="0.5" stop-color="#E80CD6"/>
<stop offset="0.56" stop-color="#D40CC5"/>
<stop offset="0.67" stop-color="#B70CAE"/>
<stop offset="0.78" stop-color="#A30C9D"/>
<stop offset="0.89" stop-color="#970C93"/>
<stop offset="1" stop-color="#930C90"/>
</linearGradient>
<linearGradient id="paint6_linear_499_2217" x1="120.621" y1="28.4644" x2="142.816" y2="50.6608" gradientUnits="userSpaceOnUse">
<stop stop-color="#2F246D"/>
<stop offset="0.27" stop-color="#5D1E87"/>
<stop offset="0.87" stop-color="#CF0FC8"/>
<stop offset="1" stop-color="#E80CD6"/>
</linearGradient>
<linearGradient id="paint7_linear_499_2217" x1="127.62" y1="98.3485" x2="97.8536" y2="68.5832" gradientUnits="userSpaceOnUse">
<stop stop-color="#2F246D"/>
<stop offset="0.08" stop-color="#3C2C87"/>
<stop offset="0.19" stop-color="#4A34A5"/>
<stop offset="0.3" stop-color="#543ABA"/>
<stop offset="0.4" stop-color="#5A3EC7"/>
<stop offset="0.5" stop-color="#5C3FCB"/>
<stop offset="0.59" stop-color="#593DC4"/>
<stop offset="0.71" stop-color="#4F37B0"/>
<stop offset="0.87" stop-color="#402E90"/>
<stop offset="1" stop-color="#2F246D"/>
</linearGradient>
<clipPath id="clip0_499_2217">
<rect width="68.1044" height="89.881" fill="white" transform="translate(77.4478)"/>
</clipPath>
</defs>
</svg>
