<svg width="50" height="50" viewBox="0 0 50 50" fill="none" xmlns="http://www.w3.org/2000/svg">
<rect x="0.5" y="0.0556641" width="49" height="49" rx="24.5" fill="white"/>
<path d="M35.2141 22.5152H34.375V22.472H25V26.6387H30.887C30.0282 29.0642 27.7204 30.8053 25 30.8053C21.5485 30.8053 18.75 28.0069 18.75 24.5553C18.75 21.1038 21.5485 18.3053 25 18.3053C26.5933 18.3053 28.0428 18.9064 29.1464 19.8882L32.0928 16.9418C30.2323 15.2079 27.7438 14.1387 25 14.1387C19.2474 14.1387 14.5834 18.8027 14.5834 24.5553C14.5834 30.3079 19.2474 34.972 25 34.972C30.7526 34.972 35.4167 30.3079 35.4167 24.5553C35.4167 23.8569 35.3448 23.1751 35.2141 22.5152Z" fill="#FFC107"/>
<path d="M15.7844 19.7069L19.2068 22.2168C20.1329 19.9241 22.3756 18.3053 25 18.3053C26.5933 18.3053 28.0428 18.9064 29.1464 19.8882L32.0928 16.9418C30.2323 15.2079 27.7438 14.1387 25 14.1387C20.999 14.1387 17.5292 16.3975 15.7844 19.7069Z" fill="#FF3D00"/>
<path d="M25 34.9722C27.6906 34.9722 30.1354 33.9425 31.9839 32.268L28.7599 29.5399C27.6789 30.362 26.3581 30.8066 25 30.8055C22.2906 30.8055 19.9901 29.0779 19.1234 26.667L15.7266 29.2842C17.4505 32.6576 20.9516 34.9722 25 34.9722Z" fill="#4CAF50"/>
<path d="M35.2141 22.5159H34.375V22.4727H25V26.6393H30.887C30.4762 27.7937 29.7361 28.8024 28.7583 29.5409L28.7599 29.5398L31.9839 32.268C31.7557 32.4753 35.4167 29.7643 35.4167 24.556C35.4167 23.8576 35.3448 23.1758 35.2141 22.5159Z" fill="#1976D2"/>
</svg>
