<svg width="30" height="30" viewBox="0 0 30 30" fill="none" xmlns="http://www.w3.org/2000/svg">
<path d="M15.625 13.875V14.375H16.125H21.375C21.5408 14.375 21.6997 14.4408 21.8169 14.5581C21.9342 14.6753 22 14.8342 22 15C22 15.1658 21.9342 15.3247 21.8169 15.4419C21.6997 15.5592 21.5408 15.625 21.375 15.625H16.125H15.625V16.125V21.375C15.625 21.5408 15.5592 21.6997 15.4419 21.8169C15.3247 21.9342 15.1658 22 15 22C14.8342 22 14.6753 21.9342 14.5581 21.8169C14.4408 21.6997 14.375 21.5408 14.375 21.375V16.125V15.625H13.875H8.625C8.45924 15.625 8.30027 15.5592 8.18306 15.4419C8.06585 15.3247 8 15.1658 8 15C8 14.8342 8.06585 14.6753 8.18306 14.5581C8.30027 14.4408 8.45924 14.375 8.625 14.375H13.875H14.375V13.875V8.625C14.375 8.45924 14.4408 8.30027 14.5581 8.18306C14.6753 8.06585 14.8342 8 15 8C15.1658 8 15.3247 8.06585 15.4419 8.18306C15.5592 8.30027 15.625 8.45924 15.625 8.625V13.875ZM15 0.5C23.0084 0.5 29.5 6.99164 29.5 15C29.5 23.0084 23.0084 29.5 15 29.5C6.99164 29.5 0.5 23.0084 0.5 15C0.5 6.99164 6.99164 0.5 15 0.5ZM15 1.75C11.4859 1.75 8.11569 3.14598 5.63084 5.63084C3.14598 8.11569 1.75 11.4859 1.75 15C1.75 18.5141 3.14598 21.8843 5.63084 24.3692C8.11569 26.854 11.4859 28.25 15 28.25C18.5141 28.25 21.8843 26.854 24.3692 24.3692C26.854 21.8843 28.25 18.5141 28.25 15C28.25 11.4859 26.854 8.11569 24.3692 5.63084C21.8843 3.14598 18.5141 1.75 15 1.75Z" fill="black" stroke="#292929"/>
</svg>
