<svg width="28" height="28" viewBox="0 0 28 28" fill="none" xmlns="http://www.w3.org/2000/svg">
<path d="M13.9974 16.6667C14.7046 16.6667 15.3829 16.3858 15.883 15.8857C16.3831 15.3856 16.664 14.7073 16.664 14.0001C16.664 13.2928 16.3831 12.6145 15.883 12.1144C15.3829 11.6143 14.7046 11.3334 13.9974 11.3334C13.2901 11.3334 12.6119 11.6143 12.1118 12.1144C11.6117 12.6145 11.3307 13.2928 11.3307 14.0001C11.3307 14.7073 11.6117 15.3856 12.1118 15.8857C12.6119 16.3858 13.2901 16.6667 13.9974 16.6667ZM5.99738 14.0001C5.99738 12.9495 6.2043 11.9092 6.60634 10.9386C7.00838 9.96799 7.59765 9.08608 8.34052 8.34321C9.08339 7.60034 9.9653 7.01106 10.9359 6.60903C11.9065 6.20699 12.9468 6.00006 13.9974 6.00006C15.048 6.00006 16.0882 6.20699 17.0588 6.60903C18.0294 7.01106 18.9114 7.60034 19.6542 8.34321C20.3971 9.08608 20.9864 9.96799 21.3884 10.9386C21.7904 11.9092 21.9974 12.9495 21.9974 14.0001C21.9974 16.1218 21.1545 18.1566 19.6542 19.6569C18.1539 21.1572 16.1191 22.0001 13.9974 22.0001C11.8756 22.0001 9.84081 21.1572 8.34052 19.6569C6.84023 18.1566 5.99738 16.1218 5.99738 14.0001ZM13.9974 8.00006C12.4061 8.00006 10.88 8.6322 9.75473 9.75742C8.62952 10.8826 7.99738 12.4088 7.99738 14.0001C7.99738 15.5914 8.62952 17.1175 9.75473 18.2427C10.88 19.3679 12.4061 20.0001 13.9974 20.0001C15.5887 20.0001 17.1148 19.3679 18.24 18.2427C19.3652 17.1175 19.9974 15.5914 19.9974 14.0001C19.9974 12.4088 19.3652 10.8826 18.24 9.75742C17.1148 8.6322 15.5887 8.00006 13.9974 8.00006ZM0.661377 14.0001C0.661377 6.63473 6.63204 0.664062 13.9974 0.664062C21.3627 0.664063 27.3334 6.63473 27.3334 14.0001C27.3334 21.3654 21.3627 27.3361 13.9974 27.3361C6.63204 27.3361 0.661377 21.3654 0.661377 14.0001ZM13.9974 2.66406C12.5087 2.66406 11.0346 2.95728 9.65928 3.52696C8.28393 4.09665 7.03426 4.93165 5.98161 5.9843C4.92897 7.03695 4.09397 8.28662 3.52428 9.66196C2.95459 11.0373 2.66138 12.5114 2.66138 14.0001C2.66138 15.4887 2.95459 16.9628 3.52428 18.3382C4.09397 19.7135 4.92897 20.9632 5.98161 22.0158C7.03426 23.0685 8.28393 23.9035 9.65928 24.4732C11.0346 25.0429 12.5087 25.3361 13.9974 25.3361C17.0039 25.3361 19.8872 24.1417 22.0131 22.0158C24.139 19.8899 25.3334 17.0066 25.3334 14.0001C25.3334 10.9936 24.139 8.11021 22.0131 5.9843C19.8872 3.85839 17.0039 2.66406 13.9974 2.66406Z" fill="#5C3FCB"/>
</svg>
