<svg width="24" height="25" viewBox="0 0 24 25" fill="none" xmlns="http://www.w3.org/2000/svg">
<path d="M17 18.7246H7V6.72461H17V7.72461H19V3.72461C19 2.62461 18.1 1.72461 17 1.72461H7C5.9 1.72461 5 2.62461 5 3.72461V21.7246C5 22.8246 5.9 23.7246 7 23.7246H17C18.1 23.7246 19 22.8246 19 21.7246V17.7246H17V18.7246ZM7 3.72461H17V4.72461H7V3.72461ZM17 21.7246H7V20.7246H17V21.7246ZM20.38 10.3446L21 11.7246L21.62 10.3446L23 9.72461L21.62 9.10461L21 7.72461L20.38 9.10461L19 9.72461L20.38 10.3446Z" fill="#5C3FCB"/>
<path d="M16 8.72461L14.75 11.4746L12 12.7246L14.75 13.9746L16 16.7246L17.25 13.9746L20 12.7246L17.25 11.4746L16 8.72461ZM21 13.7246L20.38 15.1046L19 15.7246L20.38 16.3446L21 17.7246L21.62 16.3446L23 15.7246L21.62 15.1046L21 13.7246Z" fill="#F9C14C"/>
</svg>
