<svg width="32" height="32" viewBox="0 0 32 32" fill="none" xmlns="http://www.w3.org/2000/svg">
<path d="M22.6667 23.9999H9.33341V7.99992H22.6667V9.33325H25.3334V3.99992C25.3334 2.53325 24.1334 1.33325 22.6667 1.33325H9.33341C7.86675 1.33325 6.66675 2.53325 6.66675 3.99992V27.9999C6.66675 29.4666 7.86675 30.6666 9.33341 30.6666H22.6667C24.1334 30.6666 25.3334 29.4666 25.3334 27.9999V22.6666H22.6667V23.9999ZM9.33341 3.99992H22.6667V5.33325H9.33341V3.99992ZM22.6667 27.9999H9.33341V26.6666H22.6667V27.9999ZM27.1734 12.8266L28.0001 14.6666L28.8267 12.8266L30.6667 11.9999L28.8267 11.1733L28.0001 9.33325L27.1734 11.1733L25.3334 11.9999L27.1734 12.8266Z" fill="#878787"/>
<path d="M21.3334 10.6667L19.6667 14.3334L16.0001 16.0001L19.6667 17.6667L21.3334 21.3334L23.0001 17.6667L26.6667 16.0001L23.0001 14.3334L21.3334 10.6667ZM28.0001 17.3334L27.1734 19.1734L25.3334 20.0001L27.1734 20.8267L28.0001 22.6667L28.8267 20.8267L30.6667 20.0001L28.8267 19.1734L28.0001 17.3334Z" fill="#878787"/>
</svg>
