<svg width="36" height="37" viewBox="0 0 36 37" fill="none" xmlns="http://www.w3.org/2000/svg">
<rect y="0.724609" width="36" height="36" rx="18" fill="#FAFAFA"/>
<path d="M23 24.7246H13V12.7246H23V13.7246H25V9.72461C25 8.62461 24.1 7.72461 23 7.72461H13C11.9 7.72461 11 8.62461 11 9.72461V27.7246C11 28.8246 11.9 29.7246 13 29.7246H23C24.1 29.7246 25 28.8246 25 27.7246V23.7246H23V24.7246ZM13 9.72461H23V10.7246H13V9.72461ZM23 27.7246H13V26.7246H23V27.7246ZM26.38 16.3446L27 17.7246L27.62 16.3446L29 15.7246L27.62 15.1046L27 13.7246L26.38 15.1046L25 15.7246L26.38 16.3446Z" fill="#5C3FCB"/>
<path d="M22 14.7246L20.75 17.4746L18 18.7246L20.75 19.9746L22 22.7246L23.25 19.9746L26 18.7246L23.25 17.4746L22 14.7246ZM27 19.7246L26.38 21.1046L25 21.7246L26.38 22.3446L27 23.7246L27.62 22.3446L29 21.7246L27.62 21.1046L27 19.7246Z" fill="#F9C14C"/>
</svg>
