<svg width="36" height="37" viewBox="0 0 36 37" fill="none" xmlns="http://www.w3.org/2000/svg">
<rect y="0.31543" width="36" height="36" rx="18" fill="#FAFAFA"/>
<path d="M12 26.3154H17.5V28.3154H12C10.89 28.3154 10 27.4254 10 26.3154V10.3154C10 9.785 10.2107 9.27629 10.5858 8.90122C10.9609 8.52614 11.4696 8.31543 12 8.31543H24C24.5304 8.31543 25.0391 8.52614 25.4142 8.90122C25.7893 9.27629 26 9.785 26 10.3154V18.8554L24.5 18.0354L24 18.3154V10.3154H19V18.3154L16.5 16.0654L14 18.3154V10.3154H12V26.3154Z" fill="#5C3FCB"/>
<path d="M24.5 20.3154L30 23.3154L24.5 26.3154L19 23.3154L24.5 20.3154Z" fill="#F9C14C"/>
<path d="M21 27.4054V25.4054L24.5 27.3154L28 25.4054V27.4054L24.5 29.3154L21 27.4054Z" fill="#F9C14C"/>
</svg>
