<svg width="36" height="37" viewBox="0 0 36 37" fill="none" xmlns="http://www.w3.org/2000/svg">
<rect y="0.407227" width="36" height="36" rx="18" fill="#FAFAFA"/>
<path d="M12 28.4072C11.45 28.4072 10.9793 28.2116 10.588 27.8202C10.196 27.4282 10 26.9572 10 26.4072V10.4072C10 9.85723 10.196 9.38623 10.588 8.99423C10.9793 8.60289 11.45 8.40723 12 8.40723H24C24.55 8.40723 25.021 8.60289 25.413 8.99423C25.8043 9.38623 26 9.85723 26 10.4072V26.4072C26 26.9572 25.8043 27.4282 25.413 27.8202C25.021 28.2116 24.55 28.4072 24 28.4072H12ZM12 26.4072H24V10.4072H22H21H20.5H19.5H17H12V26.4072Z" fill="#5C3FCB"/>
<path d="M22.4444 9.40723H18.5556C18.4082 9.40723 18.2669 9.46576 18.1627 9.56994C18.0585 9.67413 18 9.81544 18 9.96278V16.0739C18 16.1234 18.0133 16.1721 18.0385 16.2148C18.0637 16.2575 18.0998 16.2927 18.1432 16.3167C18.1865 16.3407 18.2355 16.3527 18.2851 16.3514C18.3347 16.3501 18.383 16.3356 18.425 16.3093L20.5 15.0124L22.5753 16.3093C22.6174 16.3355 22.6656 16.3499 22.7151 16.3512C22.7647 16.3525 22.8136 16.3405 22.8569 16.3165C22.9002 16.2925 22.9363 16.2573 22.9615 16.2146C22.9866 16.172 22.9999 16.1234 23 16.0739V9.96278C23 9.81544 22.9415 9.67413 22.8373 9.56994C22.7331 9.46576 22.5918 9.40723 22.4444 9.40723Z" fill="#F9C14C"/>
</svg>
