<svg width="32" height="32" viewBox="0 0 32 32" fill="none" xmlns="http://www.w3.org/2000/svg">
<g clip-path="url(#clip0_642_6092)">
<path d="M1 16C1 7.71573 7.71573 1 16 1C24.2843 1 31 7.71573 31 16C31 24.2843 24.2843 31 16 31C7.71573 31 1 24.2843 1 16Z" fill="white" stroke="#5C3FCB" stroke-width="2"/>
<path fill-rule="evenodd" clip-rule="evenodd" d="M14.7359 17.5858L11.7284 14.6516C11.6616 14.5854 11.582 14.5327 11.4943 14.4966C11.4066 14.4605 11.3124 14.4417 11.2172 14.4413C11.122 14.4408 11.0276 14.4588 10.9395 14.4941C10.8514 14.5293 10.7714 14.5813 10.7039 14.6469L9.20872 16.108C9.07412 16.2415 8.99909 16.4215 9.00001 16.6087C9.00092 16.796 9.0777 16.9753 9.2136 17.1075L13.8724 21.6504C14.0991 21.8721 14.4063 21.9977 14.7273 22C15.0483 22.0022 15.3572 21.8809 15.5871 21.6623L16.2335 21.0316L23.8071 13.6426C23.9347 13.5103 24.0039 13.3344 23.9998 13.1528C23.9957 12.9712 23.9186 12.7984 23.7852 12.6717L22.2875 11.2106C22.158 11.0798 21.9808 11.0042 21.7944 11.0002C21.6081 10.9962 21.4276 11.0641 21.2923 11.1891L14.7359 17.5858Z" fill="#5C3FCB"/>
</g>
<defs>
<clipPath id="clip0_642_6092">
<rect width="32" height="32" rx="16" fill="white"/>
</clipPath>
</defs>
</svg>
