<svg width="24" height="24" viewBox="0 0 24 24" fill="none" xmlns="http://www.w3.org/2000/svg">
<path d="M8.8514 14.6845L18.14 5.39583C18.4286 5.1072 18.796 4.96289 19.242 4.96289C19.6881 4.96289 20.0554 5.1072 20.3441 5.39583C20.6327 5.68446 20.777 6.05181 20.777 6.49788C20.777 6.94394 20.6327 7.31129 20.3441 7.59992L9.95343 17.9906C9.63856 18.3055 9.27122 18.4629 8.8514 18.4629C8.43157 18.4629 8.06423 18.3055 7.74936 17.9906L3.65609 13.8973C3.36746 13.6087 3.22314 13.2413 3.22314 12.7953C3.22314 12.3492 3.36746 11.9818 3.65609 11.6932C3.94471 11.4046 4.31206 11.2603 4.75812 11.2603C5.20418 11.2603 5.57153 11.4046 5.86016 11.6932L8.8514 14.6845Z" fill="white"/>
</svg>
