<svg width="32" height="32" viewBox="0 0 32 32" fill="none" xmlns="http://www.w3.org/2000/svg">
<path d="M24.6297 11.963C24.9735 11.6192 25.1667 11.1529 25.1667 10.6667C25.1667 10.1804 24.9735 9.71412 24.6297 9.3703C24.2859 9.02649 23.8196 8.83333 23.3334 8.83333C22.8471 8.83333 22.3808 9.02649 22.037 9.3703C21.6932 9.71412 21.5 10.1804 21.5 10.6667C21.5 11.1529 21.6932 11.6192 22.037 11.963C22.3808 12.3068 22.8471 12.5 23.3334 12.5C23.8196 12.5 24.2859 12.3068 24.6297 11.963ZM25.5 10.6667C25.5 11.2413 25.2717 11.7924 24.8654 12.1987C24.4591 12.6051 23.908 12.8333 23.3334 12.8333C22.7587 12.8333 22.2076 12.6051 21.8013 12.1987C21.395 11.7924 21.1667 11.2413 21.1667 10.6667C21.1667 10.092 21.395 9.54093 21.8013 9.1346C22.2076 8.72827 22.7587 8.5 23.3334 8.5C23.908 8.5 24.4591 8.72827 24.8654 9.1346C25.2717 9.54093 25.5 10.092 25.5 10.6667Z" fill="#878787" stroke="#878787"/>
<path d="M2.85 5V21.6667C2.85 22.3018 3.36487 22.8167 4 22.8167H17.258C17.709 22.8167 18.0747 22.451 18.0747 22C18.0747 21.549 17.709 21.1833 17.258 21.1833H4.48333V5.48333H22.1833V6.08C22.1833 6.53103 22.549 6.89667 23 6.89667C23.451 6.89667 23.8167 6.53103 23.8167 6.08V5C23.8167 4.36487 23.3018 3.85 22.6667 3.85H4C3.36487 3.85 2.85 4.36487 2.85 5Z" fill="#878787" stroke="#878787" stroke-width="0.3"/>
<path d="M23.348 21.61H23.348H23.9854H23.9854C24.155 21.6101 24.3191 21.6703 24.4485 21.78C24.5779 21.8897 24.6642 22.0418 24.692 22.2091C24.692 22.2091 24.692 22.2091 24.692 22.2091L25.3873 26.3797C25.3873 26.3797 25.3873 26.3797 25.3873 26.3797C25.3992 26.4497 25.4368 26.5127 25.4929 26.5562C25.5489 26.5997 25.6193 26.6206 25.69 26.6148C25.7607 26.609 25.8267 26.5768 25.8749 26.5246C25.923 26.4725 25.9498 26.4042 25.95 26.3332V20.7773C25.95 20.6626 25.9775 20.5496 26.0303 20.4477L26.0303 20.4477C26.5407 19.4625 26.7252 18.3851 26.5555 17.4698C26.4523 16.9137 26.2116 16.3895 25.7984 15.999C25.3771 15.6012 24.8177 15.3833 24.1634 15.3833H21.4427C21.2842 15.3833 21.1312 15.4444 21.0165 15.5536L18.9606 17.5148C18.8274 17.6421 18.6503 17.7132 18.4661 17.7133H18.466H15.5987C15.4351 17.7133 15.2783 17.7783 15.1626 17.894C15.047 18.0096 14.982 18.1665 14.982 18.33C14.982 18.4936 15.047 18.6504 15.1626 18.766C15.2783 18.8817 15.4351 18.9467 15.5987 18.9467H19C19.1585 18.9465 19.3109 18.8854 19.4255 18.7759L19.4255 18.7758L20.1722 18.0638L20.1722 18.0638C20.2737 17.967 20.4015 17.9021 20.5395 17.8772C20.6776 17.8524 20.8199 17.8685 20.9489 17.9238C21.0779 17.979 21.1878 18.0709 21.265 18.188C21.3422 18.3052 21.3834 18.4424 21.3834 18.5827L23.348 21.61ZM23.348 21.61C23.1784 21.6101 23.0143 21.6703 22.8849 21.78C22.7555 21.8897 22.6692 22.0418 22.6414 22.2091M23.348 21.61L22.6414 22.2091M22.6414 22.2091L21.9461 26.3797L22.6414 22.2091ZM22.6414 22.2091C22.6414 22.2091 22.6414 22.2091 22.6414 22.2091M22.6414 22.2091L22.6414 22.2091M19.95 20.1465V26.3333C19.95 26.7641 20.112 27.1792 20.4037 27.4961C20.6955 27.813 21.0958 28.0087 21.5251 28.0442C21.9544 28.0797 22.3814 27.9526 22.7213 27.6879C23.0612 27.4233 23.2892 27.0405 23.36 26.6156L23.6667 24.7755L23.9734 26.6156C24.0442 27.0405 24.2722 27.4233 24.6121 27.6879C24.952 27.9526 25.379 28.0797 25.8083 28.0442C26.2376 28.0087 26.6379 27.813 26.9296 27.4961C27.2214 27.1792 27.3834 26.7641 27.3834 26.3333V20.9475C27.9576 19.7654 28.1915 18.4315 27.9645 17.2082C27.8197 16.4277 27.4651 15.6019 26.7824 14.957C26.0723 14.2861 25.151 13.95 24.1634 13.95L21.442 13.95L21.442 13.95C20.9151 13.9503 20.4086 14.1534 20.0275 14.5171C20.0275 14.5172 20.0275 14.5172 20.0275 14.5172L18.1787 16.28H15.5987C15.055 16.28 14.5336 16.496 14.1491 16.8804C13.7647 17.2649 13.5487 17.7863 13.5487 18.33C13.5487 18.8737 13.7647 19.3951 14.1491 19.7796C14.5336 20.164 15.055 20.38 15.5987 20.38H19C19.3313 20.38 19.6572 20.2997 19.95 20.1465ZM21.3834 26.3333L21.3834 26.3332L21.3834 22.3173V22.3167V18.5827V26.3333Z" fill="#878787" stroke="#878787" stroke-width="0.1"/>
</svg>
