<svg width="36" height="37" viewBox="0 0 36 37" fill="none" xmlns="http://www.w3.org/2000/svg">
<rect y="0.724609" width="36" height="36" rx="18" fill="#FAFAFA"/>
<mask id="path-2-inside-1_766_3782" fill="white">
<path fill-rule="evenodd" clip-rule="evenodd" d="M24.5 14.7246C24.5 14.9898 24.3946 15.2442 24.2071 15.4317C24.0196 15.6193 23.7652 15.7246 23.5 15.7246C23.2348 15.7246 22.9804 15.6193 22.7929 15.4317C22.6054 15.2442 22.5 14.9898 22.5 14.7246C22.5 14.4594 22.6054 14.205 22.7929 14.0175C22.9804 13.83 23.2348 13.7246 23.5 13.7246C23.7652 13.7246 24.0196 13.83 24.2071 14.0175C24.3946 14.205 24.5 14.4594 24.5 14.7246ZM25.5 14.7246C25.5 15.255 25.2893 15.7637 24.9142 16.1388C24.5391 16.5139 24.0304 16.7246 23.5 16.7246C22.9696 16.7246 22.4609 16.5139 22.0858 16.1388C21.7107 15.7637 21.5 15.255 21.5 14.7246C21.5 14.1942 21.7107 13.6855 22.0858 13.3104C22.4609 12.9353 22.9696 12.7246 23.5 12.7246C24.0304 12.7246 24.5391 12.9353 24.9142 13.3104C25.2893 13.6855 25.5 14.1942 25.5 14.7246Z"/>
</mask>
<path fill-rule="evenodd" clip-rule="evenodd" d="M24.5 14.7246C24.5 14.9898 24.3946 15.2442 24.2071 15.4317C24.0196 15.6193 23.7652 15.7246 23.5 15.7246C23.2348 15.7246 22.9804 15.6193 22.7929 15.4317C22.6054 15.2442 22.5 14.9898 22.5 14.7246C22.5 14.4594 22.6054 14.205 22.7929 14.0175C22.9804 13.83 23.2348 13.7246 23.5 13.7246C23.7652 13.7246 24.0196 13.83 24.2071 14.0175C24.3946 14.205 24.5 14.4594 24.5 14.7246ZM25.5 14.7246C25.5 15.255 25.2893 15.7637 24.9142 16.1388C24.5391 16.5139 24.0304 16.7246 23.5 16.7246C22.9696 16.7246 22.4609 16.5139 22.0858 16.1388C21.7107 15.7637 21.5 15.255 21.5 14.7246C21.5 14.1942 21.7107 13.6855 22.0858 13.3104C22.4609 12.9353 22.9696 12.7246 23.5 12.7246C24.0304 12.7246 24.5391 12.9353 24.9142 13.3104C25.2893 13.6855 25.5 14.1942 25.5 14.7246Z" fill="#5C3FCB"/>
<path d="M23.5 13.7246L23.5 14.7246L23.5 13.7246ZM23.5 12.7246V11.7246V12.7246ZM23.5 14.7246L23.5 14.7246L24.9142 16.1388C25.2893 15.7637 25.5 15.255 25.5 14.7246H23.5ZM23.5 14.7246L23.5 14.7246V16.7246C24.0304 16.7246 24.5391 16.5139 24.9142 16.1388L23.5 14.7246ZM23.5 14.7246L23.5 14.7246L22.0858 16.1388C22.4609 16.5139 22.9696 16.7246 23.5 16.7246V14.7246ZM23.5 14.7246L23.5 14.7246H21.5C21.5 15.255 21.7107 15.7637 22.0858 16.1388L23.5 14.7246ZM23.5 14.7246L23.5 14.7246L22.0858 13.3104C21.7107 13.6855 21.5 14.1942 21.5 14.7246H23.5ZM23.5 14.7246L23.5 14.7246L23.5 12.7246C22.9696 12.7246 22.4609 12.9353 22.0858 13.3104L23.5 14.7246ZM23.5 14.7246L23.5 14.7246L24.9142 13.3104C24.5391 12.9353 24.0304 12.7246 23.5 12.7246L23.5 14.7246ZM23.5 14.7246L23.5 14.7246H25.5C25.5 14.1942 25.2893 13.6855 24.9142 13.3104L23.5 14.7246ZM24.5 14.7246C24.5 14.9898 24.3946 15.2442 24.2071 15.4317L25.6213 16.8459C26.1839 16.2833 26.5 15.5203 26.5 14.7246H24.5ZM24.2071 15.4317C24.0196 15.6193 23.7652 15.7246 23.5 15.7246V17.7246C24.2957 17.7246 25.0587 17.4085 25.6213 16.8459L24.2071 15.4317ZM23.5 15.7246C23.2348 15.7246 22.9804 15.6193 22.7929 15.4317L21.3787 16.8459C21.9413 17.4085 22.7043 17.7246 23.5 17.7246V15.7246ZM22.7929 15.4317C22.6054 15.2442 22.5 14.9898 22.5 14.7246H20.5C20.5 15.5203 20.8161 16.2833 21.3787 16.8459L22.7929 15.4317ZM22.5 14.7246C22.5 14.4594 22.6054 14.205 22.7929 14.0175L21.3787 12.6033C20.8161 13.1659 20.5 13.929 20.5 14.7246H22.5ZM22.7929 14.0175C22.9804 13.83 23.2348 13.7246 23.5 13.7246V11.7246C22.7044 11.7246 21.9413 12.0407 21.3787 12.6033L22.7929 14.0175ZM23.5 13.7246C23.7652 13.7246 24.0196 13.83 24.2071 14.0175L25.6213 12.6033C25.0587 12.0407 24.2956 11.7246 23.5 11.7246V13.7246ZM24.2071 14.0175C24.3946 14.205 24.5 14.4594 24.5 14.7246H26.5C26.5 13.929 26.1839 13.1659 25.6213 12.6033L24.2071 14.0175Z" fill="#5C3FCB" mask="url(#path-2-inside-1_766_3782)"/>
<path d="M8.1 10.7246V22.7246C8.1 23.3597 8.61487 23.8746 9.25 23.8746H18.9435C19.3025 23.8746 19.5935 23.5836 19.5935 23.2246C19.5935 22.8656 19.3025 22.5746 18.9435 22.5746H9.4V10.8746H22.6V11.2846C22.6 11.6436 22.891 11.9346 23.25 11.9346C23.609 11.9346 23.9 11.6436 23.9 11.2846V10.7246C23.9 10.0895 23.3851 9.57461 22.75 9.57461H9.25C8.61487 9.57461 8.1 10.0895 8.1 10.7246Z" fill="#5C3FCB" stroke="#5C3FCB" stroke-width="0.3"/>
<path d="M24.5313 23.3794C24.5099 23.251 24.4437 23.1343 24.3444 23.0501C24.2451 22.9659 24.1192 22.9197 23.989 22.9196H23.989H23.511H23.511L24.482 23.3876M24.5313 23.3794L24.482 23.3876M24.5313 23.3794L24.5313 23.3794L24.482 23.3876M24.5313 23.3794L25.0528 26.5073L25.0035 26.5156M24.482 23.3876L25.0035 26.5156M25.0035 26.5156L25.0528 26.5074L25.0528 26.5073L25.0035 26.5156ZM22.05 23.4626V26.4745C22.0501 26.5246 22.069 26.5728 22.103 26.6096C22.137 26.6464 22.1836 26.6691 22.2335 26.6733C22.2834 26.6774 22.3331 26.6626 22.3727 26.6319C22.4122 26.6012 22.4388 26.5567 22.4472 26.5073C22.4472 26.5073 22.4472 26.5073 22.4472 26.5073L22.9687 23.3794L22.9687 23.3794L23.018 23.3876L22.05 23.4626ZM22.05 23.4626V23.4621V20.6616V23.4626ZM21.7709 18.3988L21.771 18.3988L21.7709 18.3988ZM21.7709 18.3988L20.229 19.8698L20.229 19.8698L21.7709 18.3988ZM20.95 21.855V26.4746C20.95 26.8008 21.0726 27.1151 21.2936 27.3552C21.5145 27.5952 21.8176 27.7433 22.1427 27.7702C22.4679 27.7971 22.7912 27.7008 23.0486 27.5004C23.306 27.3 23.4787 27.0101 23.5323 26.6883L23.75 25.3822L23.9677 26.6883C24.0213 27.0101 24.1939 27.3 24.4513 27.5004C24.7087 27.7008 25.0321 27.7971 25.3572 27.7702C25.6823 27.7433 25.9854 27.5952 26.2064 27.3552C26.4273 27.1151 26.55 26.8008 26.55 26.4746V22.4381C26.9807 21.5502 27.1562 20.5481 26.9856 19.6285C26.8767 19.0411 26.6097 18.4192 26.0953 17.9333C25.5602 17.4277 24.8661 17.1746 24.1225 17.1746L22.0815 17.1746L22.0814 17.1746C21.6831 17.1748 21.3001 17.3284 21.012 17.6034L19.629 18.9221H17.699C17.2879 18.9221 16.8936 19.0854 16.603 19.3761C16.3123 19.6668 16.149 20.061 16.149 20.4721C16.149 20.8832 16.3123 21.2774 16.603 21.5681C16.8936 21.8588 17.2879 22.0221 17.699 22.0221H20.25C20.4936 22.0221 20.7333 21.9647 20.95 21.855ZM25.45 26.4746H25.5L25.45 26.4745C25.45 26.4745 25.45 26.4746 25.45 26.4746ZM25.9043 19.8292C25.9043 19.8292 25.9043 19.8292 25.9043 19.8292L25.9535 19.8201L25.9043 19.8292ZM19.8495 20.0221H19.8495L22.05 20.6616C22.05 20.5539 22.0184 20.4486 21.9591 20.3588C21.8999 20.2689 21.8155 20.1984 21.7166 20.156C21.6176 20.1136 21.5084 20.1011 21.4024 20.1202C21.2964 20.1393 21.1984 20.1891 21.1205 20.2634L21.1205 20.2634L20.5605 20.7974L20.5604 20.7975C20.4768 20.8774 20.3656 20.922 20.2499 20.9221H17.699C17.5796 20.9221 17.4652 20.8747 17.3808 20.7903C17.2964 20.7059 17.249 20.5915 17.249 20.4721C17.249 20.3528 17.2964 20.2383 17.3808 20.1539C17.4652 20.0695 17.5796 20.0221 17.699 20.0221H19.8495ZM25.3401 18.733L25.3745 18.6966L25.3401 18.733C25.3401 18.733 25.3401 18.733 25.3401 18.733Z" fill="#5C3FCB" stroke="#5C3FCB" stroke-width="0.1"/>
</svg>
