<svg width="24" height="25" viewBox="0 0 24 25" fill="none" xmlns="http://www.w3.org/2000/svg">
<g clip-path="url(#clip0_626_12936)">
<g clip-path="url(#clip1_626_12936)">
<circle cx="12" cy="8.81641" r="5" fill="#7D65D5"/>
<path fill-rule="evenodd" clip-rule="evenodd" d="M12 7.81687C11.0878 9.03104 9.63558 9.81638 7.99998 9.81638C7.68703 9.81638 7.38079 9.78763 7.08376 9.73262C7.02875 9.4356 7 9.12936 7 8.81641C7 6.36795 8.75991 4.33054 11.0837 3.90017C11.0941 3.89825 11.1045 3.89636 11.1149 3.8945C11.4022 3.84319 11.698 3.81641 12 3.81641C12.0196 3.81641 12.0391 3.81652 12.0586 3.81674C12.1051 3.81728 12.1513 3.81844 12.1975 3.82023C12.2289 3.82145 12.2601 3.82296 12.2914 3.82475C12.3062 3.82561 12.321 3.82652 12.3358 3.82751C12.3595 3.82908 12.3831 3.83081 12.4067 3.83271C12.5792 3.84659 12.7491 3.86922 12.9162 3.90017C15.2401 4.33053 17 6.36794 17 8.81641C17 9.12936 16.9713 9.43559 16.9162 9.73261C16.6192 9.78763 16.313 9.81638 16 9.81638C14.3644 9.81638 12.9122 9.03104 12 7.81687Z" fill="#37267A"/>
<path d="M4 21.8164C4 18.5027 6.68629 15.8164 10 15.8164H14C17.3137 15.8164 20 18.5027 20 21.8164V21.8164H4V21.8164Z" fill="#4A32A2"/>
<path fill-rule="evenodd" clip-rule="evenodd" d="M9.00098 15.8991C9.32577 15.8447 9.65942 15.8164 9.99967 15.8164H14.0002C14.3404 15.8164 14.6741 15.8447 14.9989 15.8992C14.9551 17.5177 13.6292 18.8164 12 18.8164C10.3707 18.8164 9.04481 17.5177 9.00098 15.8991Z" fill="#37267A"/>
</g>
<rect x="10.5657" y="14.8594" width="10.4344" height="6.95624" rx="1" fill="#F9C14C"/>
<rect x="11.9089" y="16.1953" width="4.91788" height="1.63929" rx="0.819646" fill="white"/>
<rect opacity="0.4" x="11.9089" y="18.8398" width="3.51848" height="1.63929" rx="0.819646" fill="white"/>
</g>
<defs>
<clipPath id="clip0_626_12936">
<rect width="18" height="18" fill="white" transform="translate(3 3.81641)"/>
</clipPath>
<clipPath id="clip1_626_12936">
<rect width="18" height="18" fill="white" transform="translate(3 3.81641)"/>
</clipPath>
</defs>
</svg>
