<svg width="32" height="32" viewBox="0 0 32 32" fill="none" xmlns="http://www.w3.org/2000/svg">
<path d="M8.55332 12.0061C8.42971 12.1294 8.33165 12.2759 8.26474 12.4372C8.19783 12.5985 8.16339 12.7714 8.16339 12.9461C8.16339 13.1207 8.19783 13.2936 8.26474 13.4549C8.33165 13.6162 8.42971 13.7627 8.55332 13.8861L14.6733 20.0061C14.7967 20.1297 14.9432 20.2277 15.1045 20.2946C15.2658 20.3616 15.4387 20.396 15.6133 20.396C15.7879 20.396 15.9609 20.3616 16.1221 20.2946C16.2834 20.2277 16.43 20.1297 16.5533 20.0061L22.6733 13.8861C22.7968 13.7626 22.8947 13.6161 22.9615 13.4548C23.0283 13.2935 23.0627 13.1206 23.0627 12.9461C23.0627 12.7715 23.0283 12.5986 22.9615 12.4373C22.8947 12.2761 22.7968 12.1295 22.6733 12.0061C22.5499 11.8826 22.4033 11.7847 22.242 11.7179C22.0808 11.6511 21.9079 11.6167 21.7333 11.6167C21.5587 11.6167 21.3859 11.6511 21.2246 11.7179C21.0633 11.7847 20.9168 11.8826 20.7933 12.0061L15.6066 17.1794L10.4333 12.0061C9.91332 11.4861 9.05998 11.4994 8.55332 12.0061Z" fill="#878787"/>
</svg>
