<svg width="32" height="32" viewBox="0 0 32 32" fill="none" xmlns="http://www.w3.org/2000/svg">
<path d="M23.0443 12.5095V11.0443C23.0443 7.15385 19.8904 4 15.9999 4C12.1094 4 8.95563 7.15385 8.95563 11.0443V12.5095C7.10481 13.454 5.93891 15.3555 5.93665 17.4335V22.4651C5.93999 25.5205 8.41604 27.9966 11.4714 27.9999H20.5284C23.5838 27.9966 26.0599 25.5205 26.0632 22.4651V17.4335C26.061 15.3556 24.8951 13.454 23.0443 12.5095ZM15.9999 7.01899C18.223 7.01899 20.0252 8.82118 20.0252 11.0443V11.8987H11.9746V11.0443C11.9746 8.82118 13.7768 7.01899 15.9999 7.01899ZM23.0443 22.4651C23.0443 23.8546 21.9179 24.9809 20.5285 24.9809H11.4715C10.082 24.9809 8.95568 23.8546 8.95568 22.4651V17.4335C8.95568 16.0441 10.082 14.9177 11.4715 14.9177H20.5285C21.9179 14.9177 23.0443 16.0441 23.0443 17.4335V22.4651Z" fill="#878787"/>
<path d="M15.4969 17.9365H16.5032C17.3368 17.9365 18.0127 18.6124 18.0127 19.446C18.0127 20.2797 17.3368 20.9555 16.5032 20.9555H15.4969C14.6632 20.9555 13.9874 20.2797 13.9874 19.446C13.9874 18.6124 14.6632 17.9365 15.4969 17.9365Z" fill="#878787"/>
</svg>
