<svg width="32" height="32" viewBox="0 0 32 32" fill="none" xmlns="http://www.w3.org/2000/svg">
<path d="M11.4258 16.0002C12.8172 16.0002 13.8435 14.9738 13.8435 13.5824C13.8435 12.1909 12.8172 11.1646 11.4258 11.1646C10.0343 11.1646 9.008 12.1909 9.008 13.5824C9.008 14.9738 10.0331 16.0002 11.4258 16.0002Z" fill="#878787"/>
<path d="M15.9168 20.2748C15.9168 18.6137 13.8907 16.9067 11.4258 16.9067C8.96091 16.9067 6.93481 18.6137 6.93481 20.2748V20.8357H15.9168V20.2748Z" fill="#878787"/>
<path d="M24.1585 12.373H17.5126C17.0119 12.373 16.606 12.779 16.606 13.2797V13.8842C16.606 14.3849 17.0119 14.7909 17.5126 14.7909H24.1585C24.6592 14.7909 25.0651 14.3849 25.0651 13.8842V13.2797C25.0651 12.779 24.6592 12.373 24.1585 12.373Z" fill="#878787"/>
<path d="M24.1585 17.2087H19.6274C19.1267 17.2087 18.7208 17.6146 18.7208 18.1154V18.7199C18.7208 19.2206 19.1267 19.6265 19.6274 19.6265H24.1585C24.6592 19.6265 25.0651 19.2206 25.0651 18.7199V18.1154C25.0651 17.6146 24.6592 17.2087 24.1585 17.2087Z" fill="#878787"/>
<rect x="4.85" y="6.35" width="22.3" height="19.3" rx="1.15" stroke="#878787" stroke-width="1.7"/>
</svg>
