<svg width="32" height="33" viewBox="0 0 32 33" fill="none" xmlns="http://www.w3.org/2000/svg">
<path d="M21.7865 3.25781C26.3065 3.25781 29.3332 6.43115 29.3332 11.1511V22.0458C29.3332 26.7525 26.3065 29.9245 21.7865 29.9245H10.2265C5.7065 29.9245 2.6665 26.7525 2.6665 22.0458V11.1511C2.6665 6.43115 5.7065 3.25781 10.2265 3.25781H21.7865ZM15.9865 14.5658C15.3465 14.5658 14.8265 15.0978 14.8265 15.7391V21.6325C14.8265 22.2725 15.3465 22.7925 15.9865 22.7925C16.6398 22.7925 17.1598 22.2725 17.1598 21.6325V15.7391C17.1598 15.0978 16.6398 14.5658 15.9865 14.5658ZM16.0132 10.3391C15.3598 10.3391 14.8398 10.8591 14.8398 11.5125C14.8398 12.1511 15.3598 12.6725 15.9865 12.6725C16.6532 12.6725 17.1732 12.1511 17.1732 11.5125C17.1732 10.8591 16.6532 10.3391 16.0132 10.3391Z" fill="#5C3FCB"/>
</svg>
