<svg width="22" height="22" viewBox="0 0 22 22" fill="none" xmlns="http://www.w3.org/2000/svg">
<path d="M15.2765 1.84248C16.5952 1.76007 17.8955 2.21793 18.8753 3.11533C19.7727 4.09515 20.2306 5.39547 20.1574 6.72327V15.2761C20.2398 16.6039 19.7727 17.9042 18.8845 18.884C17.9047 19.7814 16.5952 20.2393 15.2765 20.1569H6.72364C5.39584 20.2393 4.09551 19.7814 3.11568 18.884C2.21827 17.9042 1.7604 16.6039 1.84282 15.2761V6.72327C1.7604 5.39547 2.21827 4.09515 3.11568 3.11533C4.09551 2.21793 5.39584 1.76007 6.72364 1.84248H15.2765ZM15.0384 6.02732C14.4707 5.45957 13.555 5.45957 12.9872 6.02732L12.3737 6.65001C12.2821 6.74158 12.2821 6.89725 12.3737 6.98882C12.3737 6.98882 12.3916 7.00669 12.4236 7.03849L12.6489 7.2625C12.7792 7.39214 12.9418 7.55403 13.1051 7.71682L13.6589 8.2703C13.7744 8.38637 13.851 8.46415 13.8572 8.47229C13.9579 8.58218 14.022 8.72869 14.022 8.89352C14.022 9.22318 13.7564 9.4979 13.4176 9.4979C13.2619 9.4979 13.1154 9.43379 13.0147 9.33307L11.4854 7.81297C11.4122 7.73971 11.284 7.73971 11.2107 7.81297L6.84268 12.181C6.54049 12.4831 6.36651 12.8861 6.35735 13.3164L6.30241 15.4867C6.30241 15.6057 6.33904 15.7156 6.42145 15.798C6.50387 15.8805 6.61375 15.9262 6.7328 15.9262H8.88476C9.3243 15.9262 9.74554 15.7523 10.066 15.4409L16.2289 9.25981C16.7875 8.69206 16.7875 7.77634 16.2289 7.21775L15.0384 6.02732Z" fill="#FAFAFA"/>
</svg>
