<svg width="32" height="32" viewBox="0 0 32 32" fill="none" xmlns="http://www.w3.org/2000/svg">
<path d="M19.6133 8.94657C19.49 8.82296 19.3434 8.7249 19.1821 8.65799C19.0208 8.59108 18.8479 8.55664 18.6733 8.55664C18.4987 8.55664 18.3258 8.59108 18.1645 8.65799C18.0032 8.7249 17.8567 8.82296 17.7333 8.94657L11.6133 15.0666C11.4897 15.1899 11.3916 15.3364 11.3247 15.4977C11.2578 15.659 11.2234 15.8319 11.2234 16.0066C11.2234 16.1812 11.2578 16.3541 11.3247 16.5154C11.3916 16.6767 11.4897 16.8232 11.6133 16.9466L17.7333 23.0666C17.8568 23.19 18.0033 23.2879 18.1646 23.3547C18.3259 23.4215 18.4987 23.4559 18.6733 23.4559C18.8479 23.4559 19.0208 23.4215 19.182 23.3547C19.3433 23.2879 19.4899 23.19 19.6133 23.0666C19.7368 22.9431 19.8347 22.7966 19.9015 22.6353C19.9683 22.474 20.0027 22.3011 20.0027 22.1266C20.0027 21.952 19.9683 21.7791 19.9015 21.6178C19.8347 21.4566 19.7368 21.31 19.6133 21.1866L14.44 15.9999L19.6133 10.8266C20.1333 10.3066 20.12 9.45323 19.6133 8.94657Z" fill="#878787"/>
</svg>
