<svg width="32" height="32" viewBox="0 0 32 32" fill="none" xmlns="http://www.w3.org/2000/svg">
<path d="M2.66665 7.02659L4.37331 5.33325L26.6666 27.6266L24.9733 29.3333L20.8666 25.2266C19.3333 25.7333 17.7066 25.9999 16 25.9999C9.33331 25.9999 3.63998 21.8533 1.33331 15.9999C2.25331 13.6533 3.71998 11.5866 5.58665 9.94659L2.66665 7.02659ZM16 11.9999C17.0608 11.9999 18.0783 12.4213 18.8284 13.1715C19.5786 13.9216 20 14.9391 20 15.9999C20.0007 16.454 19.924 16.9049 19.7733 17.3333L14.6666 12.2266C15.095 12.0759 15.5459 11.9992 16 11.9999ZM16 5.99992C22.6666 5.99992 28.36 10.1466 30.6666 15.9999C29.5785 18.7642 27.7292 21.1635 25.3333 22.9199L23.44 21.0133C25.2838 19.7378 26.7709 18.012 27.76 15.9999C26.6821 13.7998 25.0086 11.9463 22.9297 10.6499C20.8508 9.35357 18.4499 8.66642 16 8.66659C14.5466 8.66659 13.12 8.90659 11.7866 9.33325L9.73331 7.29325C11.6533 6.46659 13.7733 5.99992 16 5.99992ZM4.23998 15.9999C5.3179 18.2 6.99141 20.0536 9.07029 21.3499C11.1492 22.6463 13.55 23.3334 16 23.3333C16.92 23.3333 17.8266 23.2399 18.6666 23.0533L15.6266 19.9999C14.6989 19.9005 13.8331 19.4864 13.1733 18.8266C12.5135 18.1668 12.0994 17.301 12 16.3733L7.46665 11.8266C6.14665 12.9599 5.03998 14.3733 4.23998 15.9999Z" fill="#878787"/>
</svg>
