<svg width="32" height="32" viewBox="0 0 32 32" fill="none" xmlns="http://www.w3.org/2000/svg">
<path d="M16 12C17.0608 12 18.0783 12.4214 18.8284 13.1716C19.5786 13.9217 20 14.9391 20 16C20 17.0609 19.5786 18.0783 18.8284 18.8284C18.0783 19.5786 17.0608 20 16 20C14.9391 20 13.9217 19.5786 13.1716 18.8284C12.4214 18.0783 12 17.0609 12 16C12 14.9391 12.4214 13.9217 13.1716 13.1716C13.9217 12.4214 14.9391 12 16 12ZM16 6C22.6666 6 28.36 10.1467 30.6666 16C28.36 21.8533 22.6666 26 16 26C9.33331 26 3.63998 21.8533 1.33331 16C3.63998 10.1467 9.33331 6 16 6ZM4.23998 16C5.31765 18.2004 6.99105 20.0543 9.06995 21.351C11.1488 22.6477 13.5498 23.3351 16 23.3351C18.4501 23.3351 20.8511 22.6477 22.93 21.351C25.0089 20.0543 26.6823 18.2004 27.76 16C26.6823 13.7996 25.0089 11.9457 22.93 10.649C20.8511 9.35232 18.4501 8.66491 16 8.66491C13.5498 8.66491 11.1488 9.35232 9.06995 10.649C6.99105 11.9457 5.31765 13.7996 4.23998 16Z" fill="#878787"/>
</svg>
