<svg width="32" height="32" viewBox="0 0 32 32" fill="none" xmlns="http://www.w3.org/2000/svg">
<path d="M2.66659 7.02659L4.37325 5.33325L26.6666 27.6266L24.9733 29.3333L20.8666 25.2266C19.3333 25.7333 17.7066 25.9999 15.9999 25.9999C9.33325 25.9999 3.63992 21.8533 1.33325 15.9999C2.25325 13.6533 3.71992 11.5866 5.58659 9.94659L2.66659 7.02659ZM15.9999 11.9999C17.0608 11.9999 18.0782 12.4213 18.8283 13.1715C19.5785 13.9216 19.9999 14.9391 19.9999 15.9999C20.0006 16.454 19.9239 16.9049 19.7733 17.3333L14.6666 12.2266C15.0949 12.0759 15.5458 11.9992 15.9999 11.9999ZM15.9999 5.99992C22.6666 5.99992 28.3599 10.1466 30.6666 15.9999C29.5784 18.7642 27.7292 21.1635 25.3333 22.9199L23.4399 21.0133C25.2838 19.7378 26.7709 18.012 27.7599 15.9999C26.682 13.7998 25.0085 11.9463 22.9296 10.6499C20.8507 9.35357 18.4499 8.66642 15.9999 8.66659C14.5466 8.66659 13.1199 8.90659 11.7866 9.33325L9.73325 7.29325C11.6533 6.46659 13.7733 5.99992 15.9999 5.99992ZM4.23992 15.9999C5.31784 18.2 6.99135 20.0536 9.07022 21.3499C11.1491 22.6463 13.55 23.3334 15.9999 23.3333C16.9199 23.3333 17.8266 23.2399 18.6666 23.0533L15.6266 19.9999C14.6988 19.9005 13.833 19.4864 13.1732 18.8266C12.5134 18.1668 12.0994 17.301 11.9999 16.3733L7.46659 11.8266C6.14659 12.9599 5.03992 14.3733 4.23992 15.9999Z" fill="#878787"/>
</svg>
