<svg width="32" height="32" viewBox="0 0 32 32" fill="none" xmlns="http://www.w3.org/2000/svg">
<path d="M16.2571 14.0714C15.0295 14.0714 13.8522 13.5837 12.9842 12.7157C12.1162 11.8476 11.6285 10.6704 11.6285 9.44278C11.6285 8.21521 12.1162 7.03791 12.9842 6.16989C13.8522 5.30186 15.0295 4.81421 16.2571 4.81421C17.4847 4.81421 18.662 5.30186 19.53 6.16989C20.398 7.03791 20.8857 8.21521 20.8857 9.44278C20.8857 10.6704 20.398 11.8476 19.53 12.7157C18.662 13.5837 17.4847 14.0714 16.2571 14.0714Z" stroke="#878787" stroke-width="3" stroke-linecap="round"/>
<path d="M7 26.7856V25.2427C7 23.606 7.6502 22.0362 8.80756 20.8789C9.96493 19.7215 11.5347 19.0713 13.1714 19.0713H19.3428C20.9796 19.0713 22.5493 19.7215 23.7067 20.8789C24.864 22.0362 25.5142 23.606 25.5142 25.2427V26.7856" stroke="#878787" stroke-width="3" stroke-linecap="round"/>
</svg>
