<svg width="32" height="32" viewBox="0 0 32 32" fill="none" xmlns="http://www.w3.org/2000/svg">
<path d="M16.2571 14.2571C15.0295 14.2571 13.8522 13.7695 12.9842 12.9015C12.1162 12.0334 11.6285 10.8561 11.6285 9.62857C11.6285 8.401 12.1162 7.2237 12.9842 6.35568C13.8522 5.48765 15.0295 5 16.2571 5C17.4847 5 18.662 5.48765 19.53 6.35568C20.398 7.2237 20.8857 8.401 20.8857 9.62857C20.8857 10.8561 20.398 12.0334 19.53 12.9015C18.662 13.7695 17.4847 14.2571 16.2571 14.2571Z" stroke="#878787" stroke-width="3" stroke-linecap="round"/>
<path d="M7 26.6003V25.0574C7 23.4206 7.6502 21.8509 8.80756 20.6936C9.96493 19.5362 11.5347 18.886 13.1714 18.886H19.3428C20.9796 18.886 22.5493 19.5362 23.7067 20.6936C24.864 21.8509 25.5142 23.4206 25.5142 25.0574V26.6003" stroke="#878787" stroke-width="3" stroke-linecap="round"/>
</svg>
