<svg width="32" height="32" viewBox="0 0 32 32" fill="none" xmlns="http://www.w3.org/2000/svg">
<path d="M16.5264 15.0514V15.4725H16.9475H21.3685C21.5081 15.4725 21.642 15.5279 21.7407 15.6266C21.8394 15.7253 21.8948 15.8592 21.8948 15.9988C21.8948 16.1384 21.8394 16.2722 21.7407 16.3709C21.642 16.4696 21.5081 16.5251 21.3685 16.5251H16.9475H16.5264V16.9461V21.3672C16.5264 21.5068 16.471 21.6406 16.3723 21.7394C16.2736 21.8381 16.1397 21.8935 16.0001 21.8935C15.8605 21.8935 15.7267 21.8381 15.6279 21.7394C15.5292 21.6406 15.4738 21.5068 15.4738 21.3672V16.9461V16.5251H15.0527H10.6317C10.4921 16.5251 10.3582 16.4696 10.2595 16.3709C10.1608 16.2722 10.1054 16.1384 10.1054 15.9988C10.1054 15.8592 10.1608 15.7253 10.2595 15.6266C10.3582 15.5279 10.4921 15.4725 10.6317 15.4725H15.0527H15.4738V15.0514V10.6303C15.4738 10.4908 15.5292 10.3569 15.6279 10.2582C15.7267 10.1595 15.8605 10.104 16.0001 10.104C16.1397 10.104 16.2736 10.1595 16.3723 10.2582C16.471 10.3569 16.5264 10.4908 16.5264 10.6303V15.0514ZM16.0001 3.78824C22.744 3.78824 28.2106 9.25489 28.2106 15.9988C28.2106 22.7426 22.744 28.2093 16.0001 28.2093C9.25623 28.2093 3.78958 22.7426 3.78958 15.9988C3.78958 9.25489 9.25623 3.78824 16.0001 3.78824ZM16.0001 4.84087C13.0409 4.84087 10.2028 6.01643 8.11029 8.10894C6.01778 10.2015 4.84221 13.0395 4.84221 15.9988C4.84221 18.958 6.01778 21.7961 8.11029 23.8886C10.2028 25.9811 13.0409 27.1567 16.0001 27.1567C18.9594 27.1567 21.7974 25.9811 23.8899 23.8886C25.9824 21.7961 27.158 18.958 27.158 15.9988C27.158 13.0395 25.9824 10.2015 23.8899 8.10894C21.7974 6.01643 18.9594 4.84087 16.0001 4.84087Z" fill="#878787" stroke="#878787" stroke-width="0.842105"/>
</svg>
