<svg width="32" height="32" viewBox="0 0 32 32" fill="none" xmlns="http://www.w3.org/2000/svg">
<path d="M6.66667 28C5.93333 28 5.30533 27.7391 4.78267 27.2173C4.26089 26.6947 4 26.0667 4 25.3333V6.66667C4 5.93333 4.26089 5.30533 4.78267 4.78267C5.30533 4.26089 5.93333 4 6.66667 4H25.3333C26.0667 4 26.6947 4.26089 27.2173 4.78267C27.7391 5.30533 28 5.93333 28 6.66667V25.3333C28 26.0667 27.7391 26.6947 27.2173 27.2173C26.6947 27.7391 26.0667 28 25.3333 28H6.66667ZM14.1333 21.0333C14.3111 21.0333 14.4778 21.0058 14.6333 20.9507C14.7889 20.8947 14.9333 20.8 15.0667 20.6667L22.6333 13.1C22.8778 12.8556 23 12.5556 23 12.2C23 11.8444 22.8667 11.5333 22.6 11.2667C22.3556 11.0222 22.0444 10.9 21.6667 10.9C21.2889 10.9 20.9778 11.0222 20.7333 11.2667L14.1333 17.8667L11.2333 14.9667C10.9889 14.7222 10.6889 14.6 10.3333 14.6C9.97778 14.6 9.66667 14.7333 9.4 15C9.15556 15.2444 9.03333 15.5556 9.03333 15.9333C9.03333 16.3111 9.15556 16.6222 9.4 16.8667L13.2 20.6667C13.3333 20.8 13.4778 20.8947 13.6333 20.9507C13.7889 21.0058 13.9556 21.0333 14.1333 21.0333Z" fill="#5C3FCB"/>
</svg>
