<svg width="32" height="32" viewBox="0 0 32 32" fill="none" xmlns="http://www.w3.org/2000/svg">
<path d="M12.3867 8.94661C12.2631 9.06997 12.165 9.21648 12.0981 9.37778C12.0312 9.53908 11.9968 9.71199 11.9968 9.88661C11.9968 10.0612 12.0312 10.2341 12.0981 10.3954C12.165 10.5567 12.2631 10.7033 12.3867 10.8266L17.56 15.9999L12.3867 21.1733C12.2632 21.2967 12.1653 21.4433 12.0985 21.6046C12.0317 21.7658 11.9973 21.9387 11.9973 22.1133C11.9973 22.2879 12.0317 22.4607 12.0985 22.622C12.1653 22.7833 12.2632 22.9298 12.3867 23.0533C12.5101 23.1767 12.6567 23.2746 12.818 23.3414C12.9793 23.4083 13.1521 23.4426 13.3267 23.4426C13.5013 23.4426 13.6741 23.4083 13.8354 23.3414C13.9967 23.2746 14.1432 23.1767 14.2667 23.0533L20.3867 16.9333C20.5103 16.8099 20.6084 16.6634 20.6753 16.5021C20.7422 16.3408 20.7766 16.1679 20.7766 15.9933C20.7766 15.8187 20.7422 15.6457 20.6753 15.4844C20.6084 15.3232 20.5103 15.1766 20.3867 15.0533L14.2667 8.93328C13.76 8.42661 12.9067 8.42661 12.3867 8.94661Z" fill="#878787"/>
</svg>
