<svg width="24" height="24" viewBox="0 0 24 24" fill="none" xmlns="http://www.w3.org/2000/svg">
<path d="M23.1563 9.31225C23.0487 8.9785 22.8509 8.68102 22.5847 8.45275C22.3186 8.22447 21.9944 8.07431 21.6482 8.01888L16.2149 7.1359L13.6962 2.24149C13.5358 1.9299 13.2926 1.66853 12.9934 1.48605C12.6942 1.30357 12.3505 1.20703 12.0001 1.20703C11.6496 1.20703 11.3059 1.30357 11.0067 1.48605C10.7075 1.66853 10.4643 1.9299 10.3039 2.24149L7.7852 7.1359L2.35206 8.01888C2.00615 8.07518 1.68244 8.22567 1.41644 8.45384C1.15043 8.68201 0.952414 8.97904 0.844113 9.31235C0.735813 9.64565 0.721413 10.0023 0.802493 10.3433C0.883574 10.6842 1.057 10.9963 1.30375 11.2451L5.18031 15.153L4.34125 20.5931C4.28741 20.9396 4.33017 21.2942 4.46483 21.618C4.59949 21.9418 4.82084 22.2221 5.10452 22.4282C5.3882 22.6343 5.72323 22.7582 6.07277 22.7862C6.4223 22.8143 6.77279 22.7453 7.08569 22.5871L12.0001 20.1078L16.9146 22.5871C17.2275 22.745 17.5779 22.8137 17.9273 22.7855C18.2767 22.7573 18.6116 22.6334 18.8952 22.4274C19.1787 22.2214 19.4001 21.9412 19.5348 21.6176C19.6696 21.294 19.7125 20.9395 19.659 20.5931L18.82 15.153L22.6965 11.2451C22.944 10.9968 23.118 10.6847 23.1992 10.3436C23.2803 10.0024 23.2655 9.64549 23.1563 9.31225ZM21.6315 10.1888L17.2219 14.6339L18.1765 20.8219C18.1883 20.896 18.1794 20.9719 18.1507 21.0413C18.1221 21.1106 18.0747 21.1707 18.014 21.2148C17.9533 21.2589 17.8816 21.2854 17.8068 21.2912C17.7319 21.297 17.657 21.2821 17.5901 21.2479L12.0001 18.4278L6.40993 21.248C6.34311 21.2821 6.26814 21.2971 6.19332 21.2913C6.1185 21.2855 6.04676 21.259 5.98604 21.2149C5.92533 21.1708 5.87801 21.1107 5.84934 21.0414C5.82066 20.972 5.81174 20.8961 5.82358 20.822L6.77819 14.6339L2.3687 10.1888C2.31604 10.1356 2.27904 10.0689 2.26175 9.99607C2.24447 9.92324 2.24756 9.84706 2.27069 9.77587C2.29382 9.70468 2.33609 9.64123 2.39289 9.59247C2.44968 9.54371 2.5188 9.51152 2.59267 9.49943L8.77272 8.49508L11.6377 2.92788C11.6719 2.86129 11.7239 2.80542 11.7878 2.76641C11.8517 2.72741 11.9252 2.70677 12.0001 2.70677C12.0749 2.70677 12.1484 2.72741 12.2123 2.76641C12.2762 2.80542 12.3282 2.86129 12.3624 2.92788L15.2274 8.49508L21.4075 9.49943C21.4813 9.51152 21.5504 9.54371 21.6072 9.59247C21.664 9.64123 21.7063 9.70468 21.7294 9.77587C21.7526 9.84706 21.7557 9.92324 21.7384 9.99607C21.7211 10.0689 21.6841 10.1356 21.6314 10.1888L21.6315 10.1888Z" fill="#FAFAFA"/>
</svg>
