<svg width="32" height="32" viewBox="0 0 32 32" fill="none" xmlns="http://www.w3.org/2000/svg">
<g clip-path="url(#clip0_642_6081)">
<path d="M0 16C0 7.16344 7.16344 0 16 0C24.8366 0 32 7.16344 32 16C32 24.8366 24.8366 32 16 32C7.16344 32 0 24.8366 0 16Z" fill="#F1F1F1"/>
<path d="M12.3608 22V20.9773L16.2017 16.7727C16.6525 16.2803 17.0237 15.8523 17.3153 15.4886C17.607 15.1212 17.8229 14.7765 17.9631 14.4545C18.107 14.1288 18.179 13.7879 18.179 13.4318C18.179 13.0227 18.0805 12.6686 17.8835 12.3693C17.6903 12.0701 17.4252 11.839 17.0881 11.6761C16.7509 11.5133 16.3722 11.4318 15.9517 11.4318C15.5047 11.4318 15.1146 11.5246 14.7812 11.7102C14.4517 11.892 14.196 12.1477 14.0142 12.4773C13.8362 12.8068 13.7472 13.1932 13.7472 13.6364H12.4062C12.4062 12.9545 12.5634 12.3561 12.8778 11.8409C13.1922 11.3258 13.6203 10.9242 14.1619 10.6364C14.7074 10.3485 15.3191 10.2045 15.9972 10.2045C16.679 10.2045 17.2831 10.3485 17.8097 10.6364C18.3362 10.9242 18.7491 11.3125 19.0483 11.8011C19.3475 12.2898 19.4972 12.8333 19.4972 13.4318C19.4972 13.8598 19.4195 14.2784 19.2642 14.6875C19.1127 15.0928 18.8475 15.5455 18.4688 16.0455C18.0938 16.5417 17.5729 17.1477 16.9062 17.8636L14.2926 20.6591V20.75H19.7017V22H12.3608Z" fill="#6C6C6C"/>
</g>
<defs>
<clipPath id="clip0_642_6081">
<rect width="32" height="32" rx="16" fill="white"/>
</clipPath>
</defs>
</svg>
