<svg width="24" height="24" viewBox="0 0 24 24" fill="none" xmlns="http://www.w3.org/2000/svg">
<path d="M21.5544 6.37133C21.5999 6.48093 21.6119 6.60157 21.5888 6.71798C21.5658 6.83439 21.5087 6.94135 21.4248 7.02533L19.0248 9.42533C18.969 9.48101 18.9028 9.52514 18.8299 9.5552C18.757 9.58527 18.6789 9.60067 18.6 9.60053H15.2484L13.6248 11.2241C13.8078 11.6073 13.8495 12.0428 13.7425 12.4537C13.6354 12.8646 13.3866 13.2245 13.0399 13.4696C12.6932 13.7148 12.271 13.8295 11.8479 13.7935C11.4248 13.7574 11.0281 13.573 10.7278 13.2727C10.4276 12.9725 10.2431 12.5758 10.2071 12.1527C10.1711 11.7296 10.2858 11.3074 10.5309 10.9607C10.7761 10.614 11.1359 10.3651 11.5468 10.2581C11.9578 10.151 12.3933 10.1927 12.7764 10.3757L14.4 8.75213V5.40053C14.3999 5.32168 14.4153 5.24358 14.4453 5.17069C14.4754 5.0978 14.5195 5.03155 14.5752 4.97572L16.9752 2.57572C17.0591 2.4916 17.1661 2.43428 17.2827 2.41104C17.3992 2.3878 17.52 2.39968 17.6298 2.44518C17.7395 2.49068 17.8333 2.56775 17.8992 2.66662C17.9652 2.76549 18.0002 2.8817 18 3.00052V6.00052H21C21.1188 6.00054 21.2348 6.03579 21.3335 6.10179C21.4322 6.1678 21.5091 6.2616 21.5544 6.37133ZM19.5516 7.20053H17.4C17.2409 7.20053 17.0883 7.13731 16.9758 7.02479C16.8632 6.91227 16.8 6.75965 16.8 6.60052V4.44893L15.6 5.64892V8.40053H18.3516L19.5516 7.20053ZM21.1284 9.01853C21.4344 9.95692 21.6 10.9601 21.6 12.0005C21.5996 14.0285 20.957 16.0041 19.7643 17.6443C18.5717 19.2844 16.8903 20.5048 14.9612 21.1303C13.0322 21.7559 10.9546 21.7544 9.02643 21.1263C7.09824 20.4981 5.4185 19.2755 4.22808 17.6338C3.03766 15.992 2.39772 14.0154 2.40003 11.9875C2.40234 9.95958 3.04678 7.98448 4.24093 6.34543C5.43509 4.70638 7.11761 3.48759 9.04722 2.86383C10.9768 2.24008 13.0544 2.2434 14.982 2.87333L14.0124 3.84292C12.2311 3.40372 10.355 3.55977 8.67078 4.28722C6.98653 5.01468 5.58675 6.27355 4.68533 7.87147C3.78391 9.46938 3.43042 11.3185 3.67887 13.1362C3.92732 14.954 4.76405 16.6404 6.06121 17.9378C7.35837 19.2352 9.04462 20.0723 10.8623 20.3211C12.68 20.5699 14.5292 20.2167 16.1273 19.3156C17.7254 18.4145 18.9845 17.015 19.7123 15.3309C20.4401 13.6468 20.5965 11.7707 20.1576 9.98933L21.1284 9.01853ZM17.88 10.8005C18.1377 12.0642 17.9814 13.3773 17.4342 14.5452C16.8871 15.713 15.9781 16.6735 14.8422 17.2842C13.7063 17.8949 12.4038 18.1233 11.1278 17.9356C9.85187 17.7479 8.67035 17.1541 7.7584 16.2421C6.84645 15.3302 6.25262 14.1487 6.06492 12.8727C5.87723 11.5968 6.10566 10.2943 6.71637 9.15834C7.32707 8.02241 8.28754 7.11349 9.4554 6.5663C10.6233 6.01912 11.9363 5.86281 13.2 6.12052V7.35173C12.1806 7.08873 11.103 7.1682 10.1331 7.57789C9.16331 7.98758 8.35507 8.70476 7.83292 9.61897C7.31078 10.5332 7.10368 11.5937 7.24353 12.6372C7.38339 13.6807 7.86243 14.6492 8.60688 15.3937C9.35133 16.1381 10.3199 16.6172 11.3634 16.757C12.4069 16.8969 13.4674 16.6898 14.3816 16.1676C15.2958 15.6455 16.013 14.8372 16.4227 13.8674C16.8323 12.8976 16.9118 11.82 16.6488 10.8005H17.88Z" fill="#FAFAFA"/>
</svg>
