<svg width="28" height="28" viewBox="0 0 28 28" fill="none" xmlns="http://www.w3.org/2000/svg">
<path fill-rule="evenodd" clip-rule="evenodd" d="M19.7787 0.666992C24.2974 0.666992 27.3334 3.83766 27.3334 8.55499V19.4457C27.3334 24.163 24.2974 27.3337 19.7774 27.3337H8.22002C3.70135 27.3337 0.666687 24.163 0.666687 19.4457V8.55499C0.666687 3.83766 3.70135 0.666992 8.22002 0.666992H19.7787ZM19.7787 2.66699H8.22002C4.84669 2.66699 2.66669 4.97766 2.66669 8.55499V19.4457C2.66669 23.023 4.84669 25.3337 8.22002 25.3337H19.7774C23.152 25.3337 25.3334 23.023 25.3334 19.4457V8.55499C25.3334 4.97766 23.152 2.66699 19.7787 2.66699ZM19.4527 10.1297C19.8434 10.5203 19.8434 11.1523 19.4527 11.543L13.1247 17.871C12.93 18.067 12.674 18.1643 12.418 18.1643C12.1634 18.1643 11.906 18.067 11.7114 17.871L8.54602 14.707C8.15535 14.3163 8.15535 13.6843 8.54602 13.2937C8.93669 12.903 9.56869 12.903 9.95935 13.2937L12.418 15.7497L18.0394 10.1297C18.43 9.73899 19.062 9.73899 19.4527 10.1297Z" fill="#5C3FCB"/>
</svg>
