<svg width="32" height="32" viewBox="0 0 32 32" fill="none" xmlns="http://www.w3.org/2000/svg">
<path d="M15.4999 1.33325C17.5221 1.33325 19.2501 2.03903 20.6839 3.45058C22.1177 4.86214 22.8341 6.57859 22.8332 8.59992C22.8332 9.66658 22.5945 10.7168 22.1172 11.7506C21.6399 12.7844 20.923 13.6786 19.9665 14.4333H18.8332V11.8666C19.2332 11.4221 19.5554 10.9275 19.7999 10.3826C20.0443 9.8377 20.1665 9.24347 20.1665 8.59992C20.1665 7.33325 19.7057 6.2497 18.7839 5.34925C17.8621 4.44881 16.7674 3.99903 15.4999 3.99992C14.1888 3.99992 13.083 4.4497 12.1825 5.34925C11.2821 6.24881 10.8323 7.33236 10.8332 8.59992C10.8332 9.24436 10.9501 9.85547 11.1839 10.4333C11.4177 11.011 11.7452 11.511 12.1665 11.9333V15.1999C10.9665 14.5777 9.99987 13.6888 9.26654 12.5333C8.53321 11.3777 8.16654 10.0666 8.16654 8.59992C8.16654 6.5777 8.87765 4.86125 10.2999 3.45058C11.7221 2.03992 13.4554 1.33414 15.4999 1.33325ZM14.2332 29.3333C13.8554 29.3333 13.4999 29.2608 13.1665 29.1159C12.8332 28.971 12.5443 28.7768 12.2999 28.5332L6.93321 23.1666C6.55543 22.7888 6.36076 22.3221 6.34921 21.7666C6.33765 21.211 6.52121 20.6555 6.89987 20.0999C7.25543 19.5888 7.64432 19.2333 8.06654 19.0333C8.48876 18.8333 8.98876 18.7999 9.56654 18.9333L12.1665 19.5333V8.66658C12.1665 7.73325 12.4888 6.94436 13.1332 6.29992C13.7777 5.65547 14.5665 5.33325 15.4999 5.33325C16.4332 5.33325 17.2221 5.65547 17.8665 6.29992C18.511 6.94436 18.8332 7.73325 18.8332 8.66658V14.3999H19.6999C19.811 14.3999 19.9168 14.4168 20.0172 14.4506C20.1177 14.4844 20.2119 14.5341 20.2999 14.5999L25.2332 16.9999C25.7665 17.2444 26.1612 17.639 26.4172 18.1839C26.6732 18.7288 26.7452 19.2897 26.6332 19.8666L25.4332 27.1333C25.3221 27.7777 25.011 28.3057 24.4999 28.7173C23.9888 29.1288 23.411 29.3341 22.7665 29.3333H14.2332ZM14.2332 26.6666H22.7665L24.0332 19.3999L18.4999 16.6666H16.1665V8.66658C16.1665 8.46658 16.1052 8.30525 15.9825 8.18258C15.8599 8.05992 15.699 7.99903 15.4999 7.99992C15.2999 7.99992 15.1385 8.06125 15.0159 8.18392C14.8932 8.30658 14.8323 8.46747 14.8332 8.66658V22.7999L9.16654 21.5999L14.2332 26.6666Z" fill="#6C6C6C"/>
<path d="M14.2332 29.3333C13.8554 29.3333 13.4999 29.2608 13.1665 29.1159C12.8332 28.971 12.5443 28.7768 12.2999 28.5332L6.93321 23.1666C6.55543 22.7888 6.36076 22.3221 6.34921 21.7666C6.33765 21.211 6.52121 20.6555 6.89987 20.0999C7.25543 19.5888 7.64432 19.2333 8.06654 19.0333C8.48876 18.8333 8.98876 18.7999 9.56654 18.9333L12.1665 19.5333V8.66658C12.1665 7.73325 12.4888 6.94436 13.1332 6.29992C13.7777 5.65547 14.5665 5.33325 15.4999 5.33325C16.4332 5.33325 17.2221 5.65547 17.8665 6.29992C18.511 6.94436 18.8332 7.73325 18.8332 8.66658V14.3999H19.6999C19.811 14.3999 19.9168 14.4168 20.0172 14.4506C20.1177 14.4844 20.2119 14.5341 20.2999 14.5999L25.2332 16.9999C25.7665 17.2444 26.1612 17.639 26.4172 18.1839C26.6732 18.7288 26.7452 19.2897 26.6332 19.8666L25.4332 27.1333C25.3221 27.7777 25.011 28.3057 24.4999 28.7173C23.9888 29.1288 23.411 29.3341 22.7665 29.3333H14.2332ZM14.2332 26.6666H22.7665L24.0332 19.3999L18.4999 16.6666H16.1665V8.66658C16.1665 8.46658 16.1052 8.30525 15.9825 8.18258C15.8599 8.05992 15.699 7.99903 15.4999 7.99992C15.2999 7.99992 15.1385 8.06125 15.0159 8.18392C14.8932 8.30658 14.8323 8.46747 14.8332 8.66658V22.7999L9.16654 21.5999L14.2332 26.6666Z" fill="#878787"/>
</svg>
