<svg width="36" height="37" viewBox="0 0 36 37" fill="none" xmlns="http://www.w3.org/2000/svg">
<rect y="0.632812" width="36" height="36" rx="18" fill="#FAFAFA"/>
<path d="M17.6249 7.63281C19.1415 7.63281 20.4375 8.16215 21.5129 9.22081C22.5882 10.2795 23.1255 11.5668 23.1249 13.0828C23.1249 13.8828 22.9459 14.6705 22.5879 15.4458C22.2299 16.2211 21.6922 16.8918 20.9749 17.4578H20.1249V15.5328C20.4249 15.1995 20.6665 14.8285 20.8499 14.4198C21.0332 14.0111 21.1249 13.5655 21.1249 13.0828C21.1249 12.1328 20.7792 11.3201 20.0879 10.6448C19.3965 9.96948 18.5755 9.63215 17.6249 9.63281C16.6415 9.63281 15.8122 9.97015 15.1369 10.6448C14.4615 11.3195 14.1242 12.1321 14.1249 13.0828C14.1249 13.5661 14.2125 14.0245 14.3879 14.4578C14.5632 14.8911 14.8089 15.2661 15.1249 15.5828V18.0328C14.2249 17.5661 13.4999 16.8995 12.9499 16.0328C12.3999 15.1661 12.1249 14.1828 12.1249 13.0828C12.1249 11.5661 12.6582 10.2788 13.7249 9.22081C14.7915 8.16281 16.0915 7.63348 17.6249 7.63281ZM16.6749 28.6328C16.3915 28.6328 16.1249 28.5785 15.8749 28.4698C15.6249 28.3611 15.4082 28.2155 15.2249 28.0328L11.1999 24.0078C10.9165 23.7245 10.7705 23.3745 10.7619 22.9578C10.7532 22.5411 10.8909 22.1245 11.1749 21.7078C11.4415 21.3245 11.7332 21.0578 12.0499 20.9078C12.3665 20.7578 12.7415 20.7328 13.1749 20.8328L15.1249 21.2828V13.1328C15.1249 12.4328 15.3665 11.8411 15.8499 11.3578C16.3332 10.8745 16.9249 10.6328 17.6249 10.6328C18.3249 10.6328 18.9165 10.8745 19.3999 11.3578C19.8832 11.8411 20.1249 12.4328 20.1249 13.1328V17.4328H20.7749C20.8582 17.4328 20.9375 17.4455 21.0129 17.4708C21.0882 17.4961 21.1589 17.5335 21.2249 17.5828L24.9249 19.3828C25.3249 19.5661 25.6209 19.8621 25.8129 20.2708C26.0049 20.6795 26.0589 21.1001 25.9749 21.5328L25.0749 26.9828C24.9915 27.4661 24.7582 27.8621 24.3749 28.1708C23.9915 28.4795 23.5582 28.6335 23.0749 28.6328H16.6749ZM16.6749 26.6328H23.0749L24.0249 21.1828L19.8749 19.1328H18.1249V13.1328C18.1249 12.9828 18.0789 12.8618 17.9869 12.7698C17.8949 12.6778 17.7742 12.6321 17.6249 12.6328C17.4749 12.6328 17.3539 12.6788 17.2619 12.7708C17.1699 12.8628 17.1242 12.9835 17.1249 13.1328V23.7328L12.8749 22.8328L16.6749 26.6328Z" fill="#F9C14C"/>
<path d="M16.6749 28.6328C16.3915 28.6328 16.1249 28.5785 15.8749 28.4698C15.6249 28.3611 15.4082 28.2155 15.2249 28.0328L11.1999 24.0078C10.9165 23.7245 10.7705 23.3745 10.7619 22.9578C10.7532 22.5411 10.8909 22.1245 11.1749 21.7078C11.4415 21.3245 11.7332 21.0578 12.0499 20.9078C12.3665 20.7578 12.7415 20.7328 13.1749 20.8328L15.1249 21.2828V13.1328C15.1249 12.4328 15.3665 11.8411 15.8499 11.3578C16.3332 10.8745 16.9249 10.6328 17.6249 10.6328C18.3249 10.6328 18.9165 10.8745 19.3999 11.3578C19.8832 11.8411 20.1249 12.4328 20.1249 13.1328V17.4328H20.7749C20.8582 17.4328 20.9375 17.4455 21.0129 17.4708C21.0882 17.4961 21.1589 17.5335 21.2249 17.5828L24.9249 19.3828C25.3249 19.5661 25.6209 19.8621 25.8129 20.2708C26.0049 20.6795 26.0589 21.1001 25.9749 21.5328L25.0749 26.9828C24.9915 27.4661 24.7582 27.8621 24.3749 28.1708C23.9915 28.4795 23.5582 28.6335 23.0749 28.6328H16.6749ZM16.6749 26.6328H23.0749L24.0249 21.1828L19.8749 19.1328H18.1249V13.1328C18.1249 12.9828 18.0789 12.8618 17.9869 12.7698C17.8949 12.6778 17.7742 12.6321 17.6249 12.6328C17.4749 12.6328 17.3539 12.6788 17.2619 12.7708C17.1699 12.8628 17.1242 12.9835 17.1249 13.1328V23.7328L12.8749 22.8328L16.6749 26.6328Z" fill="#5C3FCB"/>
</svg>
