<svg width="32" height="32" viewBox="0 0 32 32" fill="none" xmlns="http://www.w3.org/2000/svg">
<path d="M18.4896 7.45249C18.4897 7.77953 18.4254 8.1034 18.3003 8.40559C18.1753 8.70778 17.9919 8.98237 17.7607 9.2137C17.5296 9.44503 17.2551 9.62856 16.953 9.75381C16.6509 9.87907 16.327 9.94359 16 9.94369C15.6729 9.9438 15.3491 9.87948 15.0469 9.75443C14.7447 9.62937 14.4701 9.44602 14.2388 9.21484C14.0074 8.98365 13.8239 8.70917 13.6987 8.40706C13.5734 8.10496 13.5089 7.78114 13.5088 7.45409C13.5086 6.7936 13.7708 6.16007 14.2376 5.69288C14.7045 5.22569 15.3379 4.9631 15.9984 4.96289C16.6589 4.96268 17.2924 5.22486 17.7596 5.69175C18.2268 6.15864 18.4894 6.792 18.4896 7.45249Z" fill="#FAFAFA"/>
<path d="M16 18.489C17.3749 18.489 18.4896 17.3743 18.4896 15.9994C18.4896 14.6244 17.3749 13.5098 16 13.5098C14.625 13.5098 13.5104 14.6244 13.5104 15.9994C13.5104 17.3743 14.625 18.489 16 18.489Z" fill="#FAFAFA"/>
<path d="M16 27.0378C17.3749 27.0378 18.4896 25.9232 18.4896 24.5482C18.4896 23.1732 17.3749 22.0586 16 22.0586C14.625 22.0586 13.5104 23.1732 13.5104 24.5482C13.5104 25.9232 14.625 27.0378 16 27.0378Z" fill="#FAFAFA"/>
</svg>
