<svg width="32" height="32" viewBox="0 0 32 32" fill="none" xmlns="http://www.w3.org/2000/svg">
<path d="M9.33449 19.9987C9.45784 20.1224 9.60436 20.2204 9.76566 20.2873C9.92696 20.3542 10.0999 20.3887 10.2745 20.3887C10.4491 20.3887 10.622 20.3542 10.7833 20.2873C10.9446 20.2204 11.0911 20.1224 11.2145 19.9987L16.3878 14.8254L21.5612 19.9987C21.6846 20.1222 21.8312 20.2201 21.9924 20.2869C22.1537 20.3537 22.3266 20.3881 22.5012 20.3881C22.6757 20.3881 22.8486 20.3537 23.0099 20.2869C23.1712 20.2201 23.3177 20.1222 23.4412 19.9987C23.5646 19.8753 23.6625 19.7288 23.7293 19.5675C23.7961 19.4062 23.8305 19.2333 23.8305 19.0587C23.8305 18.8842 23.7961 18.7113 23.7293 18.55C23.6625 18.3887 23.5646 18.2422 23.4412 18.1187L17.3212 11.9987C17.1978 11.8751 17.0513 11.7771 16.89 11.7102C16.7287 11.6433 16.5558 11.6088 16.3812 11.6088C16.2065 11.6088 16.0336 11.6433 15.8723 11.7102C15.711 11.7771 15.5645 11.8751 15.4412 11.9987L9.32116 18.1187C8.81449 18.6254 8.81449 19.4787 9.33449 19.9987Z" fill="#878787"/>
</svg>
