<svg width="36" height="37" viewBox="0 0 36 37" fill="none" xmlns="http://www.w3.org/2000/svg">
<rect y="0.632812" width="36" height="36" rx="18" fill="#FAFAFA"/>
<path d="M25.05 11.5429C24.1332 10.6168 23.0412 9.88254 21.8377 9.38292C20.6341 8.88331 19.3432 8.62833 18.04 8.63287C12.58 8.63287 8.13005 13.0829 8.13005 18.5429C8.13005 20.2929 8.59005 21.9929 9.45005 23.4929L8.05005 28.6329L13.3 27.2529C14.75 28.0429 16.38 28.4629 18.04 28.4629C23.5 28.4629 27.9501 24.0129 27.9501 18.5529C27.9501 15.9029 26.92 13.4129 25.05 11.5429ZM18.04 26.7829C16.56 26.7829 15.11 26.3829 13.84 25.6329L13.54 25.4529L10.42 26.2729L11.25 23.2329L11.05 22.9229C10.2278 21.6098 9.79119 20.0921 9.79005 18.5429C9.79005 14.0029 13.49 10.3029 18.03 10.3029C20.23 10.3029 22.3 11.1629 23.85 12.7229C24.6175 13.4868 25.2257 14.3955 25.6394 15.3963C26.0531 16.3971 26.2641 17.47 26.26 18.5529C26.28 23.0929 22.58 26.7829 18.04 26.7829ZM22.56 20.6229C22.31 20.5029 21.09 19.9029 20.87 19.8129C20.64 19.7329 20.48 19.6929 20.31 19.9329C20.14 20.1829 19.67 20.7429 19.53 20.9029C19.39 21.0729 19.24 21.0929 18.99 20.9629C18.74 20.8429 17.94 20.5729 17 19.7329C16.26 19.0729 15.77 18.2629 15.62 18.0129C15.48 17.7629 15.6 17.6329 15.73 17.5029C15.84 17.3929 15.98 17.2129 16.1 17.0729C16.22 16.9329 16.27 16.8229 16.35 16.6629C16.43 16.4929 16.39 16.3529 16.33 16.2329C16.27 16.1129 15.77 14.8929 15.57 14.3929C15.37 13.9129 15.16 13.9729 15.01 13.9629H14.53C14.36 13.9629 14.1 14.0229 13.87 14.2729C13.65 14.5229 13.01 15.1229 13.01 16.3429C13.01 17.5629 13.9 18.7429 14.02 18.9029C14.14 19.0729 15.77 21.5729 18.25 22.6429C18.84 22.9029 19.3 23.0529 19.66 23.1629C20.25 23.3529 20.79 23.3229 21.22 23.2629C21.7 23.1929 22.69 22.6629 22.89 22.0829C23.1 21.5029 23.1 21.0129 23.03 20.9029C22.96 20.7929 22.81 20.7429 22.56 20.6229Z" fill="#5C3FCB"/>
</svg>
