<svg width="32" height="32" viewBox="0 0 32 32" fill="none" xmlns="http://www.w3.org/2000/svg">
<path d="M14.0001 13.9998H9.33347M28.0001 27.9998L22.0188 22.0078L28.0001 27.9998ZM25.3335 13.9998C25.3335 17.0056 24.1394 19.8883 22.014 22.0137C19.8886 24.1391 17.0059 25.3332 14.0001 25.3332C10.9944 25.3332 8.11168 24.1391 5.98626 22.0137C3.86085 19.8883 2.66681 17.0056 2.66681 13.9998C2.66681 10.994 3.86085 8.11137 5.98626 5.98596C8.11168 3.86055 10.9944 2.6665 14.0001 2.6665C17.0059 2.6665 19.8886 3.86055 22.014 5.98596C24.1394 8.11137 25.3335 10.994 25.3335 13.9998V13.9998ZM14.0001 9.33317V13.9998V9.33317ZM14.0001 13.9998V18.6665V13.9998ZM14.0001 13.9998H18.6668H14.0001Z" stroke="#878787" stroke-width="2" stroke-linecap="round" stroke-linejoin="round"/>
</svg>
