<svg width="144" height="144" viewBox="0 0 144 144" fill="none" xmlns="http://www.w3.org/2000/svg">
<path opacity="0.15" d="M26.9399 135.12C26.9399 136.68 31.6873 138.175 40.1377 139.278C48.5881 140.381 60.0493 141 71.9999 141C83.9506 141 95.4118 140.381 103.862 139.278C112.313 138.175 117.06 136.68 117.06 135.12C117.06 133.561 112.313 132.065 103.862 130.962C95.4118 129.86 83.9506 129.24 71.9999 129.24C60.0493 129.24 48.5881 129.86 40.1377 130.962C31.6873 132.065 26.9399 133.561 26.9399 135.12Z" fill="#45413C"/>
<path d="M72 62.3979V133.498C74.4207 133.493 76.8202 133.046 79.08 132.178L125.25 114.178C127.457 113.32 129.354 111.816 130.692 109.862C132.031 107.908 132.748 105.596 132.75 103.228V46.9479C132.744 44.3752 131.89 41.8763 130.32 39.8379L72 62.3979ZM13.68 39.8379C12.1103 41.8763 11.2563 44.3752 11.25 46.9479V103.348C11.2523 105.716 11.9694 108.028 13.3076 109.982C14.6458 111.936 16.5427 113.44 18.75 114.298L64.92 132.298C67.1875 133.125 69.5867 133.531 72 133.498V62.3979L13.68 39.8379Z" fill="#DAEDF7"/>
<path d="M72 62.3979V133.498C74.4207 133.493 76.8202 133.046 79.08 132.178L125.25 114.178C127.457 113.32 129.354 111.816 130.692 109.862C132.031 107.908 132.748 105.596 132.75 103.228V46.9479C132.744 44.3752 131.89 41.8763 130.32 39.8379L72 62.3979ZM13.68 39.8379C12.1103 41.8763 11.2563 44.3752 11.25 46.9479V103.348C11.2523 105.716 11.9694 108.028 13.3076 109.982C14.6458 111.936 16.5427 113.44 18.75 114.298L64.92 132.298C67.1875 133.125 69.5867 133.531 72 133.498V62.3979L13.68 39.8379Z" fill="white"/>
<path d="M125.25 103.201L79.08 121.201C76.8125 122.028 74.4133 122.434 72 122.401V133.501C74.4207 133.496 76.8202 133.049 79.08 132.181L125.25 114.181C127.457 113.323 129.354 111.819 130.692 109.865C132.031 107.911 132.748 105.599 132.75 103.231V92.2207C132.746 94.592 132.028 96.9072 130.69 98.8653C129.353 100.823 127.457 102.334 125.25 103.201ZM18.75 103.201C16.5427 102.334 14.6471 100.823 13.3096 98.8653C11.9721 96.9072 11.2545 94.592 11.25 92.2207V103.351C11.2523 105.719 11.9694 108.031 13.3076 109.985C14.6458 111.939 16.5427 113.443 18.75 114.301L64.92 132.301C67.1875 133.128 69.5867 133.534 72 133.501V122.401C69.5793 122.396 67.1798 121.949 64.92 121.081L18.75 103.201Z" fill="#DAEDF7"/>
<path d="M72 62.3979V133.498M72 62.3979L130.32 39.8379C131.89 41.8763 132.744 44.3752 132.75 46.9479V103.228C132.748 105.596 132.031 107.908 130.692 109.862C129.354 111.816 127.457 113.32 125.25 114.178L79.08 132.178C76.8202 133.046 74.4207 133.493 72 133.498M72 62.3979L13.68 39.8379C12.1103 41.8763 11.2563 44.3752 11.25 46.9479V103.348C11.2523 105.716 11.9694 108.028 13.3076 109.982C14.6458 111.936 16.5427 113.44 18.75 114.298L64.92 132.298C67.1875 133.125 69.5867 133.531 72 133.498" stroke="#45413C" stroke-width="3" stroke-linecap="round" stroke-linejoin="round"/>
<path d="M72.0002 62.3984L130.32 39.8384C129.006 38.1257 127.255 36.7991 125.25 35.9984L79.0802 17.9984C74.5264 16.2271 69.474 16.2271 64.9202 17.9984L18.7502 35.9984C16.742 36.8074 14.9901 38.1447 13.6802 39.8684L72.0002 62.3984Z" fill="white"/>
<path d="M125.25 36L121.41 34.53L78.0002 51.27C74.0842 52.7994 69.7361 52.7994 65.8202 51.27L22.5902 34.5L18.7502 36C16.742 36.809 14.9901 38.1463 13.6802 39.87L72.0002 62.4L130.32 39.84C129.006 38.1273 127.255 36.8007 125.25 36Z" fill="#DAEDF7"/>
<path d="M72.0002 62.3984L130.32 39.8384C129.006 38.1257 127.255 36.7991 125.25 35.9984L79.0802 17.9984C74.5264 16.2271 69.474 16.2271 64.9202 17.9984L18.7502 35.9984C16.742 36.8074 14.9901 38.1447 13.6802 39.8684L72.0002 62.3984Z" stroke="#45413C" stroke-width="3" stroke-linecap="round" stroke-linejoin="round"/>
<path d="M58.29 38.6691C58.29 40.2285 59.7345 41.7241 62.3056 42.8268C64.8767 43.9296 68.3639 44.5491 72 44.5491C75.6362 44.5491 79.1233 43.9296 81.6945 42.8268C84.2656 41.7241 85.71 40.2285 85.71 38.6691C85.71 37.1096 84.2656 35.614 81.6945 34.5113C79.1233 33.4086 75.6362 32.7891 72 32.7891C68.3639 32.7891 64.8767 33.4086 62.3056 34.5113C59.7345 35.614 58.29 37.1096 58.29 38.6691Z" fill="#FF6242" stroke="#45413C" stroke-width="3" stroke-linecap="round" stroke-linejoin="round"/>
<path d="M34.7099 72.2412C35.3999 77.0712 33.8099 81.2412 31.1399 81.6912C28.4699 82.1412 25.7099 78.4812 25.1399 73.6512C24.5699 68.8212 26.0399 64.6512 28.7099 64.2312C31.3799 63.8112 34.0199 67.4412 34.7099 72.2412ZM115.05 62.4012C114.36 67.2012 115.95 71.4012 118.65 71.8212C121.35 72.2412 124.05 68.6112 124.65 63.7812C125.25 58.9512 123.75 54.7812 121.08 54.3612C118.41 53.9412 115.74 57.5712 115.05 62.4012ZM81.9599 109.411C81.2699 114.241 82.8599 118.411 85.5599 118.861C88.2599 119.311 90.9599 115.651 91.5599 110.821C92.1599 105.991 90.6599 101.821 87.9899 101.401C85.3199 100.981 82.6499 104.611 81.9599 109.411ZM99.3599 86.0412C98.6699 90.8412 100.29 95.0412 102.96 95.4612C105.63 95.8812 108.36 92.2512 108.96 87.4512C109.56 82.6512 108.03 78.4512 105.36 78.0012C102.69 77.5512 100.08 81.2112 99.3599 86.0412ZM52.4699 99.7512C53.1599 104.581 51.5699 108.751 48.8699 109.171C46.1699 109.591 43.4699 105.961 42.8699 101.161C42.2699 96.3612 43.7699 92.1612 46.4399 91.7112C49.1099 91.2612 51.7799 94.9212 52.4699 99.7512Z" fill="#656769" stroke="#45413C" stroke-width="3" stroke-linecap="round" stroke-linejoin="round"/>
</svg>
