<svg width="142" height="142" viewBox="0 0 142 142" fill="none" xmlns="http://www.w3.org/2000/svg">
<circle cx="71" cy="71" r="71" fill="#EFECFA"/>
<g clip-path="url(#clip0_652_6196)">
<g clip-path="url(#clip1_652_6196)">
<circle cx="71.2" cy="56.7998" r="18" fill="#7D65D5"/>
<path fill-rule="evenodd" clip-rule="evenodd" d="M71.2 53.2018C67.916 57.5728 62.6882 60.4 56.8 60.4C55.6733 60.4 54.5708 60.2965 53.5015 60.0985C53.3035 59.0291 53.2 57.9265 53.2 56.7998C53.2 46.8587 61.2588 38.7998 71.2 38.7998C72.3266 38.7998 73.4291 38.9033 74.4984 39.1014C74.4984 39.1014 74.4984 39.1015 74.4985 39.1015C82.8643 40.6509 89.2 47.9855 89.2 56.8C89.2 57.9267 89.0965 59.0291 88.8985 60.0985C87.8291 60.2965 86.7267 60.4 85.6 60.4C79.7118 60.4 74.484 57.5728 71.2 53.2018Z" fill="#37267A"/>
<path d="M42.4 103.6C42.4 91.6707 52.0706 82 64 82H78.4C90.3293 82 100 91.6707 100 103.6V103.6H42.4V103.6Z" fill="#4A32A2"/>
<path fill-rule="evenodd" clip-rule="evenodd" d="M60.4031 82.298C61.5726 82.102 62.7739 82 63.999 82H78.4009C79.6256 82 80.8266 82.1019 81.9957 82.2978C81.8379 88.1248 77.0647 92.8 71.1994 92.8C65.3342 92.8 60.5609 88.1249 60.4031 82.298Z" fill="#37267A"/>
</g>
<rect x="66.0364" y="78.5576" width="37.5637" height="25.0425" rx="3.6" fill="#F9C14C"/>
<rect x="70.8722" y="83.3706" width="17.7044" height="5.90145" rx="2.95073" fill="white"/>
<rect opacity="0.4" x="70.8722" y="92.8838" width="12.6665" height="5.90145" rx="2.95073" fill="white"/>
</g>
<g clip-path="url(#clip2_652_6196)">
<circle cx="123.127" cy="123.126" r="18.8734" fill="#209D3A"/>
<g clip-path="url(#clip3_652_6196)">
<path fill-rule="evenodd" clip-rule="evenodd" d="M116.574 122.437C115.933 121.767 114.87 121.744 114.2 122.386C113.531 123.027 113.508 124.09 114.149 124.759L119.568 130.417C120.21 131.087 121.272 131.11 121.942 130.468C121.997 130.416 122.047 130.36 122.093 130.303C122.153 130.259 122.21 130.211 122.265 130.159L131.156 121.643C131.826 121.001 131.849 119.939 131.207 119.269C130.566 118.599 129.503 118.577 128.834 119.218L120.832 126.882L116.574 122.437Z" fill="white"/>
</g>
</g>
<defs>
<clipPath id="clip0_652_6196">
<rect width="64.8" height="64.8" fill="white" transform="translate(38.8 38.7998)"/>
</clipPath>
<clipPath id="clip1_652_6196">
<rect width="64.8" height="64.8" fill="white" transform="translate(38.8 38.7998)"/>
</clipPath>
<clipPath id="clip2_652_6196">
<rect width="37.7468" height="37.7468" fill="white" transform="translate(104.253 104.253)"/>
</clipPath>
<clipPath id="clip3_652_6196">
<rect width="18.8734" height="18.8734" fill="white" transform="translate(113.271 114.11)"/>
</clipPath>
</defs>
</svg>
