<svg width="260" height="225" viewBox="0 0 260 225" fill="none" xmlns="http://www.w3.org/2000/svg">
<path opacity="0.3" d="M165.898 40.2413C157.353 41.8535 148.66 38.4981 141.083 34.2428C130.533 28.324 121.145 20.5709 110.891 14.1565C100.637 7.74209 89.1303 2.49551 77.0307 2.47272C64.9311 2.44993 52.2505 8.67064 47.4825 19.7847C42.4239 31.5768 47.1179 45.2657 44.9304 57.9008C41.3814 78.4087 20.6116 92.6502 17.1481 113.158C15.1657 124.904 19.3413 137.01 25.9892 146.893C40.1452 167.92 66.5831 180.418 91.6368 176.601C107.587 174.169 122.119 165.704 134.225 155.045C146.33 144.387 156.27 131.535 166.126 118.775" fill="#CEC5EF"/>
<path opacity="0.3" d="M173.19 188.017C170.2 184.459 167.443 180.713 164.935 176.8C162.531 173.052 160.321 169.076 159.444 164.707C158.265 158.839 159.58 152.772 161.204 147.013C163.073 140.405 165.402 133.831 169.282 128.163C173.161 122.495 178.75 117.772 185.403 116.074C190.821 114.69 196.574 115.368 202.049 114.252C212.644 112.081 220.847 103.456 226.162 94.04C228.971 89.0782 231.568 83.4044 236.73 80.9833C242.779 78.135 250.464 81.2852 254.167 86.8508C257.87 92.4164 258.154 99.6739 256.656 106.179C255.158 112.685 251.968 118.666 249.097 124.705C246.226 130.743 243.588 137.067 243.235 143.737C242.665 154.749 248.328 165.555 246.767 176.47C245.89 182.605 242.779 188.228 238.792 192.99C235.516 196.978 231.597 200.487 226.954 202.703C220.01 206.03 211.818 206.201 204.384 204.196C196.95 202.19 190.2 198.134 184.161 193.372" fill="#F9C14C"/>
<g style="mix-blend-mode:multiply" opacity="0.1">
<path d="M128.426 224.88C197.968 224.88 254.343 221.697 254.343 217.771C254.343 213.844 197.968 210.661 128.426 210.661C58.8833 210.661 2.50806 213.844 2.50806 217.771C2.50806 221.697 58.8833 224.88 128.426 224.88Z" fill="#1D262D"/>
</g>
<path d="M230.697 34.8125H94.4512V216.575H230.697V34.8125Z" fill="#5C3FCB"/>
<g style="mix-blend-mode:multiply" opacity="0.2">
<path d="M222.351 47.0596H102.785V209.886H222.351V47.0596Z" fill="#1D262D"/>
</g>
<path d="M222.408 44.2793H102.842V207.106H222.408V44.2793Z" fill="white"/>
<path d="M93.853 46.1255V34.2139H105.765L93.853 46.1255Z" fill="#DC894E"/>
<path d="M231.289 46.1255V34.2139H219.378L231.289 46.1255Z" fill="#DC894E"/>
<path d="M93.853 205.728V217.639H105.765L93.853 205.728Z" fill="#DC894E"/>
<path d="M231.289 205.728V217.639H219.378L231.289 205.728Z" fill="#DC894E"/>
<path d="M162.571 39.307C157.872 39.307 154.061 41.4774 154.061 36.7777V36.0371C154.061 33.7799 154.957 31.6152 156.553 30.0191C158.149 28.423 160.314 27.5264 162.571 27.5264C164.828 27.5264 166.993 28.423 168.589 30.0191C170.185 31.6152 171.082 33.7799 171.082 36.0371V36.7606C171.082 41.4603 167.271 39.307 162.571 39.307Z" fill="#F9C14C"/>
<g style="mix-blend-mode:multiply" opacity="0.2">
<path d="M184.805 46.126H140.343V50.125H184.805V46.126Z" fill="#1D262D"/>
</g>
<path d="M186.007 32.7148H139.13V48.4717H186.007V32.7148Z" fill="#F9C14C"/>
<mask id="mask0_1263_19440" style="mask-type:luminance" maskUnits="userSpaceOnUse" x="139" y="32" width="48" height="17">
<path d="M186.007 32.7158H139.13V48.4727H186.007V32.7158Z" fill="white"/>
</mask>
<g mask="url(#mask0_1263_19440)">
<g style="mix-blend-mode:multiply" opacity="0.2">
<path d="M191.937 41.374H134.447V50.4089H191.937V41.374Z" fill="#CC2A3A"/>
</g>
</g>
<path d="M131.109 74.4482H114.748V90.8089H131.109V74.4482Z" fill="#CEC5EF"/>
<path d="M132.841 92.541H113.016V72.7168H132.841V92.541ZM113.615 91.9714H132.242V73.3149H113.615V91.9714Z" fill="#CEC5EF"/>
<path d="M131.109 99.5137H114.748V115.874H131.109V99.5137Z" fill="#CEC5EF"/>
<path d="M132.841 117.601H113.016V97.7822H132.841V117.601ZM113.615 117.003H132.242V98.3804H113.615V117.003Z" fill="#CEC5EF"/>
<path d="M131.109 124.573H114.748V140.934H131.109V124.573Z" fill="#CEC5EF"/>
<path d="M132.841 142.666H113.016V122.842H132.841V142.666ZM113.615 142.068H132.242V123.44H113.615V142.068Z" fill="#CEC5EF"/>
<path d="M121.47 88.3546L112.025 79.0121C111.87 78.8584 111.746 78.6756 111.662 78.4742C111.577 78.2727 111.533 78.0566 111.532 77.8381C111.531 77.6197 111.573 77.4031 111.656 77.2009C111.738 76.9986 111.86 76.8147 112.014 76.6594C112.167 76.5042 112.35 76.3808 112.552 76.2962C112.753 76.2116 112.969 76.1675 113.188 76.1665C113.406 76.1654 113.623 76.2074 113.825 76.29C114.027 76.3726 114.211 76.4943 114.366 76.648L121.339 83.5409L132.396 71.3274C132.692 71.0003 133.106 70.8042 133.547 70.7823C133.987 70.7604 134.419 70.9145 134.746 71.2106C135.073 71.5067 135.269 71.9207 135.291 72.3613C135.313 72.802 135.159 73.2334 134.863 73.5605L121.47 88.3546Z" fill="#5C3FCB"/>
<path d="M121.47 113.607L112.025 104.247C111.711 103.937 111.533 103.514 111.53 103.072C111.527 102.631 111.7 102.206 112.011 101.892C112.321 101.577 112.744 101.399 113.186 101.397C113.627 101.394 114.052 101.567 114.366 101.877L121.339 108.804L132.396 96.5852C132.543 96.4232 132.72 96.2917 132.917 96.1982C133.115 96.1047 133.329 96.051 133.547 96.0401C133.765 96.0293 133.983 96.0615 134.189 96.135C134.395 96.2085 134.584 96.3218 134.746 96.4684C134.908 96.615 135.039 96.7921 135.133 96.9896C135.226 97.187 135.28 97.401 135.291 97.6192C135.302 97.8374 135.27 98.0556 135.196 98.2613C135.123 98.4671 135.009 98.6563 134.863 98.8183L121.47 113.607Z" fill="#5C3FCB"/>
<path d="M121.47 138.263L112.025 128.92C111.711 128.61 111.533 128.187 111.53 127.745C111.527 127.304 111.7 126.879 112.011 126.565C112.321 126.25 112.744 126.072 113.186 126.07C113.627 126.067 114.052 126.24 114.366 126.55L121.339 133.449L132.396 121.23C132.692 120.903 133.106 120.707 133.547 120.685C133.987 120.663 134.419 120.817 134.746 121.113C135.073 121.409 135.269 121.823 135.291 122.264C135.313 122.704 135.159 123.136 134.863 123.463L121.47 138.263Z" fill="#5C3FCB"/>
<path d="M131.109 149.638H114.748V165.998H131.109V149.638Z" fill="#CEC5EF"/>
<path d="M132.841 167.731H113.016V147.907H132.841V167.731ZM113.615 167.133H132.242V148.505H113.615V167.133Z" fill="#CEC5EF"/>
<path d="M131.109 174.703H114.748V191.064H131.109V174.703Z" fill="#CEC5EF"/>
<path d="M132.841 192.79H113.016V172.972H132.841V192.79ZM113.615 192.192H132.242V173.57H113.615V192.192Z" fill="#CEC5EF"/>
<path d="M211.152 76.8984H138.759V78.8752H211.152V76.8984Z" fill="#5C3FCB"/>
<path d="M211.152 81.6387H138.759V83.6154H211.152V81.6387Z" fill="#5C3FCB"/>
<path d="M161.141 86.3818H138.759V88.3586H161.141V86.3818Z" fill="#5C3FCB"/>
<path d="M211.152 101.645H138.759V103.621H211.152V101.645Z" fill="#5C3FCB"/>
<path d="M211.152 106.39H138.759V108.366H211.152V106.39Z" fill="#5C3FCB"/>
<path d="M186.064 111.131H138.759V113.108H186.064V111.131Z" fill="#5C3FCB"/>
<path d="M211.152 126.396H138.759V128.373H211.152V126.396Z" fill="#5C3FCB"/>
<path d="M200.676 131.137H138.759V133.113H200.676V131.137Z" fill="#5C3FCB"/>
<path d="M161.141 135.875H138.759V137.852H161.141V135.875Z" fill="#5C3FCB"/>
<path d="M211.152 151.142H138.759V153.118H211.152V151.142Z" fill="#5C3FCB"/>
<path d="M175.24 155.883H138.759V157.86H175.24V155.883Z" fill="#5C3FCB"/>
<path d="M211.152 175.89H138.759V177.866H211.152V175.89Z" fill="#5C3FCB"/>
<path d="M211.152 180.633H138.759V182.61H211.152V180.633Z" fill="#5C3FCB"/>
<path d="M191.544 185.373H138.759V187.35H191.544V185.373Z" fill="#5C3FCB"/>
<path d="M164.531 31.3317C164.531 31.7193 164.416 32.0982 164.201 32.4204C163.985 32.7427 163.679 32.9939 163.321 33.1422C162.963 33.2905 162.569 33.3293 162.189 33.2537C161.809 33.1781 161.46 32.9914 161.186 32.7174C160.911 32.4433 160.725 32.0941 160.649 31.714C160.574 31.3339 160.612 30.9399 160.761 30.5818C160.909 30.2237 161.16 29.9177 161.482 29.7023C161.805 29.487 162.184 29.3721 162.571 29.3721C163.091 29.3721 163.589 29.5785 163.957 29.946C164.324 30.3135 164.531 30.812 164.531 31.3317Z" fill="white"/>
<path d="M24.6564 208.053L23.5171 213.578C23.5171 213.578 16.4704 215.111 16.0489 216.723C15.6273 218.335 30.86 217.236 30.86 217.236L32.4722 208.053" fill="#47648F"/>
<mask id="mask1_1263_19440" style="mask-type:luminance" maskUnits="userSpaceOnUse" x="16" y="208" width="17" height="10">
<path d="M24.6564 208.052L23.5171 213.577C23.5171 213.577 16.4704 215.11 16.0489 216.722C15.6273 218.334 30.86 217.235 30.86 217.235L32.4722 208.052" fill="white"/>
</mask>
<g mask="url(#mask1_1263_19440)">
<g style="mix-blend-mode:multiply" opacity="0.1">
<path d="M22.3038 205.591C22.0867 205.776 21.9205 206.014 21.8208 206.281C21.7211 206.548 21.6913 206.836 21.7341 207.118C21.817 207.687 22.0645 208.22 22.4462 208.65C23.4022 209.706 24.6424 210.464 26.018 210.832C27.3091 211.24 28.6519 211.46 30.0056 211.487C31.6747 211.527 33.4235 211.231 34.7338 210.177C36.044 209.123 36.6877 207.158 35.8731 205.711C35.3667 204.942 34.6485 204.337 33.8052 203.968C32.3393 203.208 30.7565 202.7 29.1226 202.464" fill="#1D262D"/>
</g>
</g>
<path d="M62.9203 208.053L62.7437 213.578C62.7437 213.578 69.7904 215.111 70.2119 216.723C70.6335 218.335 55.4008 217.236 55.4008 217.236L55.0818 208.053" fill="#47648F"/>
<mask id="mask2_1263_19440" style="mask-type:luminance" maskUnits="userSpaceOnUse" x="55" y="208" width="16" height="10">
<path d="M62.9203 208.052L62.7437 213.577C62.7437 213.577 69.7904 215.11 70.2119 216.722C70.6335 218.334 55.4008 217.235 55.4008 217.235L55.0818 208.052" fill="white"/>
</mask>
<g mask="url(#mask2_1263_19440)">
<g style="mix-blend-mode:multiply" opacity="0.1">
<path d="M55.4066 205.118C54.3323 205.739 53.4357 206.626 52.8033 207.693C52.4401 208.249 52.2244 208.888 52.1767 209.55C52.1574 209.881 52.2165 210.212 52.3491 210.516C52.4817 210.82 52.6842 211.088 52.94 211.299C53.2791 211.532 53.6706 211.677 54.0793 211.721C55.2089 211.907 56.3526 211.992 57.4973 211.977C59.521 211.848 61.4489 211.068 62.9945 209.756C64.0418 208.897 64.7878 207.728 65.1239 206.416C65.46 205.104 65.3686 203.72 64.863 202.464" fill="#1D262D"/>
</g>
</g>
<path d="M94.2004 80.0079C94.2004 80.0079 88.971 78.3787 89.0735 76.8577C89.176 75.3367 92.7136 76.5842 92.7136 76.5842C92.7136 76.5842 90.7483 69.3609 91.5743 68.7742C92.4003 68.1874 93.6935 72.6992 93.6935 72.6992C93.6935 72.6992 93.9384 68.2957 95.0777 68.3811C96.217 68.4666 95.9949 71.9928 95.9949 71.9928C95.9949 71.9928 97.2652 69.1843 98.3761 69.6458C99.4869 70.1072 97.6583 73.172 97.6583 73.172C97.6583 73.172 100.478 71.5769 100.922 72.3403C101.367 73.1036 99.1508 75.6557 99.1508 75.6557C99.1508 75.6557 101.891 78.2363 98.5811 83.1923C97.6754 82.8106 95.1119 81.6258 93.7675 81.9049L94.2004 80.0079Z" fill="#FFD1BB"/>
<path d="M60.2659 101.935C60.2659 101.935 83.9352 104.025 92.9871 81.0737C99.4528 80.0996 99.4528 84.6683 99.4528 84.6683C99.4528 84.6683 90.4977 118.278 62.7325 113.875" fill="white"/>
<path d="M34.3064 143.396C34.3064 143.396 27.0774 184.502 23.5398 209.095C31.0821 209.926 32.6544 209.419 32.6544 209.419L46.6566 159.164H52.8089C53.2589 159.654 54.6489 209.419 54.6489 209.419C54.6489 209.419 60.9721 210.354 63.4673 209.066C63.4673 209.066 66.3156 170.762 67.0732 149.992L34.3064 143.396Z" fill="#2F246D"/>
<mask id="mask3_1263_19440" style="mask-type:luminance" maskUnits="userSpaceOnUse" x="23" y="143" width="45" height="67">
<path d="M34.3066 143.39C34.3066 143.39 27.0776 184.496 23.54 209.089C31.0823 209.92 32.6546 209.413 32.6546 209.413L46.6568 159.158H52.8092C53.2592 159.648 54.6492 209.413 54.6492 209.413C54.6492 209.413 60.9724 210.348 63.4675 209.06C63.4675 209.06 66.3158 170.756 67.0734 149.986L34.3066 143.39Z" fill="white"/>
</mask>
<g mask="url(#mask3_1263_19440)">
<g style="mix-blend-mode:multiply" opacity="0.1">
<path d="M19.7688 143.808C30.1293 151.762 43.0698 155.596 56.0912 154.568C69.1127 153.54 81.2915 147.724 90.2756 138.242C68.207 136.636 45.432 135.348 24.5255 142.6" fill="#1D262D"/>
</g>
</g>
<path d="M54.3641 101.029C54.3641 101.029 46.3889 101.479 44.1957 103.616C42.0025 105.752 37.2743 120.255 34.3064 143.395C46.1553 155.893 67.0846 149.992 67.0846 149.992C67.0846 149.992 68.1499 107.837 67.0277 105.706C64.88 101.65 54.3641 101.029 54.3641 101.029Z" fill="white"/>
<mask id="mask4_1263_19440" style="mask-type:luminance" maskUnits="userSpaceOnUse" x="34" y="101" width="34" height="51">
<path d="M54.3639 101.03C54.3639 101.03 46.3886 101.48 44.1954 103.617C42.0023 105.753 37.2741 120.256 34.3062 143.396C46.1551 155.894 67.0844 149.993 67.0844 149.993C67.0844 149.993 68.1496 107.838 67.0274 105.707C64.8798 101.651 54.3639 101.03 54.3639 101.03Z" fill="white"/>
</mask>
<g mask="url(#mask4_1263_19440)">
<g style="mix-blend-mode:multiply" opacity="0.2">
<path d="M43.9561 143.852C56.255 144.843 66.5716 138.605 71.0092 135.164C71.8865 134.487 73.1113 134.395 73.9544 133.683C74.3921 133.345 74.7334 132.897 74.9443 132.385C75.1552 131.873 75.2283 131.315 75.1563 130.767C74.8032 129.058 72.8037 128.351 71.1004 128.021C62.9656 126.471 54.5802 127.064 46.5423 128.835C42.9592 129.627 26.6441 132.219 32.1869 138.759C34.5795 141.573 40.3786 143.556 43.9561 143.852Z" fill="#C4C4C4"/>
</g>
</g>
<path d="M78.6726 113.983L82.4835 127.274L7.85214 148.674C6.78034 148.981 5.63035 148.85 4.65516 148.31C3.67997 147.769 2.95945 146.863 2.65211 145.791L1.16043 140.589C1.00739 140.058 0.960538 139.502 1.02254 138.953C1.08453 138.404 1.25416 137.873 1.52172 137.389C1.78929 136.906 2.14954 136.48 2.58187 136.136C3.0142 135.792 3.51012 135.536 4.04128 135.384L78.6726 113.983Z" fill="#DD7E62"/>
<mask id="mask5_1263_19440" style="mask-type:luminance" maskUnits="userSpaceOnUse" x="0" y="113" width="83" height="36">
<path d="M78.6726 113.981L82.4835 127.272L7.85214 148.672C6.78034 148.979 5.63035 148.848 4.65516 148.308C3.67997 147.767 2.95945 146.861 2.65211 145.789L1.16043 140.587C1.00739 140.056 0.960538 139.5 1.02254 138.951C1.08453 138.402 1.25416 137.871 1.52172 137.387C1.78929 136.904 2.14954 136.478 2.58187 136.134C3.0142 135.79 3.51012 135.534 4.04128 135.382L78.6726 113.981Z" fill="white"/>
</mask>
<g mask="url(#mask5_1263_19440)">
<path opacity="0.43" d="M76.5289 136.108L68.5146 108.159L66.0395 108.869L74.0538 136.818L76.5289 136.108Z" fill="white"/>
<path opacity="0.43" d="M16.1376 153.429L8.12329 125.479L5.64817 126.189L13.6624 154.138L16.1376 153.429Z" fill="white"/>
<path d="M14.0494 154.826L6.03516 126.877L-13.9355 132.603L-5.92126 160.553L14.0494 154.826Z" fill="#215B74"/>
<g style="mix-blend-mode:multiply" opacity="0.5">
<path d="M94.1997 134.237L90.3542 120.826L-2.77473 147.531L1.07068 160.941L94.1997 134.237Z" fill="#D15579"/>
</g>
<g style="mix-blend-mode:multiply" opacity="0.2">
<path d="M88.6066 114.751L84.7612 101.341L-8.36777 128.045L-4.52237 141.456L88.6066 114.751Z" fill="#D15579"/>
</g>
</g>
<path d="M78.6658 113.983L91.5002 117.487L82.4711 127.262L78.6658 113.983Z" fill="#FFEAAA"/>
<mask id="mask6_1263_19440" style="mask-type:luminance" maskUnits="userSpaceOnUse" x="78" y="113" width="14" height="15">
<path d="M78.6658 113.981L91.5002 117.485L82.4711 127.26L78.6658 113.981Z" fill="white"/>
</mask>
<g mask="url(#mask6_1263_19440)">
<path d="M98.3604 124.314C102.59 122.514 104.56 117.626 102.76 113.397C100.96 109.167 96.0726 107.198 91.8431 108.997C87.6135 110.797 85.6438 115.685 87.4434 119.914C89.2431 124.144 94.1308 126.114 98.3604 124.314Z" fill="#23809B"/>
</g>
<path d="M42.6178 134.583C42.6178 134.583 46.5484 134.378 48.3144 135.125C50.0803 135.871 50.9291 136.309 50.9291 136.309L54.4439 135.301C54.4439 135.301 53.5951 139.933 49.3967 140.269C46.7677 140.455 44.1267 140.16 41.6038 139.397L42.6178 134.583Z" fill="#FFD1BB"/>
<path d="M49.8126 101.649C49.8126 101.649 24.9925 103.182 22.8962 125.097C21.4492 140.17 42.4583 140.933 42.4583 140.933L43.4438 134.251C43.4438 134.251 34.6198 130.594 34.6198 125.199C34.6198 119.805 44.1843 115.806 44.1843 115.806L49.8126 101.649Z" fill="white"/>
<path d="M54.6489 100.664C51.7102 100.735 48.7997 101.256 46.0186 102.208L56.2724 110.912L64.5325 101.872C64.5325 101.872 61.7127 100.664 54.6489 100.664Z" fill="#F5F5F5"/>
<path d="M49.0094 94.5124C49.0094 94.5124 45.3009 94.7972 44.0078 93.6237C41.3988 91.2483 39.5417 77.6732 39.4505 74.8249C39.3594 71.9766 42.7545 67.9263 46.7023 67.9035C47.2719 63.6994 49.6133 64.9982 49.6133 64.9982C49.6133 64.9982 48.5081 63.2323 49.8981 61.9619C50.3548 62.8292 50.7674 63.719 51.1342 64.6279C51.1342 64.6279 53.3217 62.8278 58.2892 63.745C63.2566 64.6621 66.3214 62.2809 67.4949 64.6849C68.6684 67.0889 70.5995 74.4318 67.3866 75.8332C64.1738 77.2346 47.534 85.9846 49.0094 94.5124Z" fill="#27305C"/>
<path d="M48.4509 91.2021L50.0118 103.182L56.1698 108.423L61.3025 103.182V95.4632" fill="#FFD1BB"/>
<mask id="mask7_1263_19440" style="mask-type:luminance" maskUnits="userSpaceOnUse" x="48" y="91" width="14" height="18">
<path d="M48.4509 91.2041L50.0118 103.184L56.1698 108.425L61.3025 103.184V95.4652" fill="white"/>
</mask>
<g mask="url(#mask7_1263_19440)">
<g style="mix-blend-mode:multiply" opacity="0.2">
<path d="M53.9084 85.3311C53.1701 85.3922 52.4607 85.6459 51.851 86.0667C51.2413 86.4875 50.7525 87.0608 50.4334 87.7293C49.8051 89.0831 49.5401 90.5772 49.6644 92.0645C49.678 93.2675 49.9156 94.4576 50.3651 95.5736C51.138 97.1314 52.3428 98.434 53.8357 99.3259C55.3286 100.218 57.0466 100.661 58.7847 100.604C59.7755 100.525 60.7273 100.183 61.5408 99.6117C62.3543 99.0407 62.9999 98.2619 63.4103 97.3566C64.2306 95.3058 63.49 92.9303 62.271 91.0903C60.8753 88.9598 58.7733 87.1939 56.2782 86.6869C55.2129 86.4704 53.9995 86.533 53.202 87.2565" fill="#D15579"/>
</g>
</g>
<path d="M50.7355 70.2953C46.6112 72.0612 42.6805 87.3054 47.8188 93.8793C52.9572 100.453 65.2732 99.2056 69.5571 94.1926C73.0434 90.1138 67.9278 62.9466 50.7355 70.2953Z" fill="#FFD1BB"/>
<path d="M62.966 79.4727C62.2426 79.8145 63.5357 86.958 63.5357 86.958C64.5098 87.0834 67.5575 85.4541 67.5575 84.8161C67.5233 84.8161 64.3275 78.8119 62.966 79.4727Z" fill="#FFA690"/>
<path d="M42.726 85.9044C42.7944 84.7081 43.8197 83.7738 44.9135 83.2839C46.0072 82.794 47.7162 85.5911 48.9011 85.5284C50.8493 85.4258 52.4387 84.4745 52.6552 83.6827C52.809 83.113 52.6552 76.522 53.504 75.5764C54.911 73.9699 57.3378 73.8674 59.474 73.9016C61.6102 73.9358 64.0313 73.7763 65.3927 72.1185C65.7148 71.7432 65.9259 71.2856 66.0023 70.7969C66.0577 70.0138 65.8111 69.2391 65.313 68.6322C63.7464 66.4903 60.8298 65.7839 58.1809 65.9206C56.0247 66.0729 53.9209 66.6554 51.9935 67.6338C50.0661 68.6122 48.3541 69.9666 46.9586 71.6172C44.1792 74.9719 42.6545 79.1895 42.6462 83.546" fill="#27305C"/>
<path d="M49.6133 86.6671C49.6133 86.6671 50.126 78.6918 46.0359 79.8311C41.9457 80.9705 42.9141 89.0198 47.5854 88.866" fill="#FFD1BB"/>
<path d="M56.2099 79.2514C56.0276 79.6558 56.5517 80.7268 57.1271 80.6414C57.7024 80.5559 60.5166 80.1913 60.7957 79.5305C60.9003 79.2373 60.9008 78.9169 60.797 78.6233C60.6933 78.3297 60.4917 78.0808 60.226 77.9184C59.8102 77.7874 56.4378 78.7501 56.2099 79.2514Z" fill="#27305C"/>
<path d="M65.0055 77.1037C64.8004 77.4854 65.1536 78.6076 65.672 78.5848C66.1904 78.562 68.7197 78.5108 69.033 77.8898C69.1575 77.6104 69.1898 77.2986 69.1252 76.9995C69.0607 76.7005 68.9027 76.4297 68.6741 76.2264C68.3437 76.0441 65.2448 76.6309 65.0055 77.1037Z" fill="#27305C"/>
<path d="M59.8613 83.963C60.0768 84.0399 60.3123 84.0399 60.5278 83.963C60.7099 83.9305 60.8783 83.8452 61.0121 83.7175C61.1458 83.5898 61.2389 83.4255 61.2798 83.2452C61.3277 82.8209 61.2463 82.392 61.0462 82.0147C60.9603 81.8106 60.8472 81.619 60.7101 81.4451C60.6407 81.3428 60.5472 81.2592 60.438 81.2013C60.3288 81.1435 60.2071 81.1133 60.0835 81.1133C59.9599 81.1133 59.8382 81.1435 59.729 81.2013C59.6198 81.2592 59.5263 81.3428 59.4569 81.4451C59.0866 81.9862 59.1322 83.6326 59.8613 83.963Z" fill="#0A303E"/>
<path d="M66.7941 82.2813C67.0091 82.3612 67.2456 82.3612 67.4606 82.2813C67.6443 82.2514 67.8148 82.1669 67.9499 82.0389C68.0849 81.9109 68.1785 81.7453 68.2183 81.5635C68.2627 81.1393 68.1815 80.7115 67.9847 80.333C67.8973 80.1285 67.7823 79.9368 67.6429 79.7634C67.575 79.66 67.4824 79.5751 67.3736 79.5163C67.2647 79.4575 67.1429 79.4268 67.0192 79.4268C66.8954 79.4268 66.7736 79.4575 66.6647 79.5163C66.5559 79.5751 66.4633 79.66 66.3954 79.7634C66.0251 80.3217 66.065 81.9566 66.7941 82.2813Z" fill="#0A303E"/>
<path d="M48.4452 83.3127C48.4169 82.9045 48.2848 82.5102 48.0615 82.1673C47.8382 81.8244 47.531 81.5441 47.1691 81.3531C46.9164 81.2129 46.6312 81.1417 46.3422 81.1467C46.0532 81.1517 45.7706 81.2327 45.5228 81.3816C45.4045 81.4607 45.3029 81.5625 45.2239 81.681C45.145 81.7994 45.0902 81.9324 45.0626 82.0721C45.0351 82.2118 45.0354 82.3555 45.0636 82.4951C45.0917 82.6347 45.1471 82.7673 45.2266 82.8855C45.4089 83.1133 45.7051 83.2615 45.7963 83.5349C45.8315 83.8157 45.767 84.1 45.614 84.3381C45.4686 84.592 45.3999 84.8826 45.416 85.1748C45.4322 85.4669 45.5326 85.7481 45.7051 85.9844C45.8298 86.1103 45.9857 86.2009 46.1568 86.2469C46.3279 86.2929 46.5082 86.2928 46.6792 86.2465C47.716 85.9617 48.5192 84.3096 48.4452 83.3127Z" fill="#FFA690"/>
<path d="M46.2634 135.21C46.2634 135.21 49.5504 133.7 50.3878 133.592C51.2252 133.483 51.6524 134.23 51.4359 134.668C51.2195 135.107 48.8782 136.503 48.8782 136.503" fill="#FFD1BB"/>
<path d="M244.545 64.7188C246.508 64.7188 248.1 63.1273 248.1 61.1641C248.1 59.2009 246.508 57.6094 244.545 57.6094C242.582 57.6094 240.99 59.2009 240.99 61.1641C240.99 63.1273 242.582 64.7188 244.545 64.7188Z" fill="#E15C56"/>
<path d="M241.383 24.1366C241.383 24.8069 241.185 25.4623 240.812 26.0197C240.44 26.5771 239.91 27.0115 239.291 27.268C238.672 27.5246 237.99 27.5917 237.333 27.4609C236.675 27.3301 236.071 27.0073 235.597 26.5333C235.123 26.0593 234.8 25.4553 234.67 24.7978C234.539 24.1403 234.606 23.4588 234.863 22.8395C235.119 22.2201 235.553 21.6907 236.111 21.3183C236.668 20.9459 237.324 20.7471 237.994 20.7471C238.893 20.7471 239.755 21.1042 240.391 21.7398C241.026 22.3755 241.383 23.2376 241.383 24.1366Z" fill="#215B74"/>
<path d="M210.377 7.15547C210.744 7.52374 210.995 7.9927 211.096 8.50308C211.197 9.01347 211.144 9.54238 210.945 10.023C210.746 10.5036 210.408 10.9143 209.976 11.2033C209.543 11.4923 209.034 11.6465 208.514 11.6465C207.994 11.6465 207.485 11.4923 207.053 11.2033C206.62 10.9143 206.283 10.5036 206.083 10.023C205.884 9.54238 205.831 9.01347 205.933 8.50308C206.034 7.9927 206.284 7.52374 206.651 7.15547C206.896 6.91054 207.186 6.71622 207.506 6.58364C207.825 6.45106 208.168 6.38281 208.514 6.38281C208.86 6.38281 209.203 6.45106 209.522 6.58364C209.842 6.71622 210.132 6.91054 210.377 7.15547Z" fill="#F9C14C"/>
<path d="M250.732 141.6C252.188 141.6 253.369 140.419 253.369 138.963C253.369 137.506 252.188 136.325 250.732 136.325C249.275 136.325 248.094 137.506 248.094 138.963C248.094 140.419 249.275 141.6 250.732 141.6Z" fill="#F9C14C"/>
<path d="M185.095 2.49513C185.095 2.98837 184.949 3.47055 184.675 3.88075C184.401 4.29094 184.012 4.61075 183.556 4.79977C183.101 4.98878 182.6 5.03853 182.116 4.94271C181.632 4.8469 181.187 4.60983 180.838 4.26145C180.489 3.91307 180.251 3.46901 180.154 2.98538C180.057 2.50175 180.106 2.00025 180.294 1.54423C180.481 1.0882 180.8 0.698128 181.21 0.423277C181.62 0.148426 182.101 0.00113263 182.595 6.50359e-06C182.923 -0.000742683 183.248 0.0632426 183.551 0.188299C183.855 0.313355 184.13 0.497025 184.363 0.728793C184.595 0.960561 184.779 1.23587 184.905 1.53897C185.031 1.84206 185.095 2.16698 185.095 2.49513Z" fill="#F9C14C"/>
<path d="M10.489 174.18C10.489 174.673 10.3427 175.156 10.0685 175.566C9.79433 175.976 9.40465 176.296 8.94873 176.485C8.49281 176.674 7.99112 176.723 7.50712 176.627C7.02312 176.531 6.57853 176.293 6.22958 175.944C5.88064 175.595 5.643 175.15 5.54672 174.666C5.45045 174.182 5.49986 173.681 5.68871 173.225C5.87756 172.769 6.19736 172.379 6.60768 172.105C7.018 171.831 7.50041 171.685 7.99389 171.685C8.65564 171.685 9.29028 171.947 9.7582 172.415C10.2261 172.883 10.489 173.518 10.489 174.18Z" fill="#F9C14C"/>
<path d="M203.102 25.3434C203.102 25.5823 203.032 25.8158 202.899 26.0144C202.766 26.213 202.578 26.3678 202.357 26.4592C202.136 26.5506 201.893 26.5745 201.659 26.5279C201.425 26.4813 201.21 26.3663 201.041 26.1974C200.872 26.0285 200.757 25.8133 200.71 25.579C200.664 25.3448 200.688 25.1019 200.779 24.8813C200.87 24.6606 201.025 24.472 201.224 24.3393C201.422 24.2066 201.656 24.1357 201.895 24.1357C202.215 24.1357 202.522 24.263 202.749 24.4895C202.975 24.7159 203.102 25.0231 203.102 25.3434Z" fill="#23809B"/>
<path d="M235.852 2.49512C236.541 2.49512 237.1 1.93657 237.1 1.24756C237.1 0.558552 236.541 0 235.852 0C235.163 0 234.604 0.558552 234.604 1.24756C234.604 1.93657 235.163 2.49512 235.852 2.49512Z" fill="#23809B"/>
<path d="M258.752 79.4844C259.441 79.4844 260 78.9258 260 78.2368C260 77.5478 259.441 76.9893 258.752 76.9893C258.063 76.9893 257.505 77.5478 257.505 78.2368C257.505 78.9258 258.063 79.4844 258.752 79.4844Z" fill="#23809B"/>
<path d="M137.819 14.0648C139.213 14.0648 140.343 12.9349 140.343 11.5412C140.343 10.1474 139.213 9.01758 137.819 9.01758C136.426 9.01758 135.296 10.1474 135.296 11.5412C135.296 12.9349 136.426 14.0648 137.819 14.0648Z" fill="#DC894E"/>
<path d="M74.3423 43.3272C75.5693 43.3272 76.5639 42.3325 76.5639 41.1055C76.5639 39.8785 75.5693 38.8838 74.3423 38.8838C73.1153 38.8838 72.1206 39.8785 72.1206 41.1055C72.1206 42.3325 73.1153 43.3272 74.3423 43.3272Z" fill="#23809B"/>
<path d="M76.5639 19.3678C76.5651 19.9596 76.3906 20.5384 76.0627 21.0309C75.7348 21.5235 75.2681 21.9077 74.7217 22.135C74.1753 22.3622 73.5738 22.4222 72.9933 22.3075C72.4128 22.1927 71.8793 21.9083 71.4605 21.4903C71.0417 21.0723 70.7563 20.5394 70.6404 19.9591C70.5245 19.3788 70.5834 18.7772 70.8096 18.2304C71.0358 17.6835 71.4191 17.2161 71.9111 16.8872C72.403 16.5584 72.9815 16.3828 73.5732 16.3828C74.3654 16.3828 75.1253 16.6971 75.686 17.2568C76.2467 17.8164 76.5624 18.5756 76.5639 19.3678Z" fill="#F9C14C"/>
<path d="M32.4779 50.9958C32.4779 51.5591 32.3108 52.1098 31.9978 52.5782C31.6848 53.0466 31.24 53.4117 30.7195 53.6273C30.1991 53.8429 29.6264 53.8993 29.0739 53.7894C28.5214 53.6795 28.0138 53.4082 27.6155 53.0098C27.2172 52.6115 26.9459 52.104 26.836 51.5515C26.7261 50.9989 26.7825 50.4262 26.9981 49.9058C27.2136 49.3853 27.5787 48.9405 28.0471 48.6275C28.5155 48.3145 29.0662 48.1475 29.6296 48.1475C30.0036 48.1475 30.374 48.2211 30.7195 48.3643C31.0651 48.5074 31.3791 48.7172 31.6436 48.9817C31.9081 49.2462 32.1179 49.5602 32.261 49.9058C32.4042 50.2513 32.4779 50.6217 32.4779 50.9958Z" fill="#F9C14C"/>
<path d="M61.3025 42.3086C61.3025 42.6466 61.2022 42.977 61.0145 43.2581C60.8267 43.5391 60.5598 43.7581 60.2475 43.8875C59.9352 44.0168 59.5916 44.0507 59.2601 43.9847C58.9286 43.9188 58.6241 43.756 58.3851 43.517C58.1461 43.278 57.9833 42.9735 57.9174 42.642C57.8514 42.3105 57.8853 41.9669 58.0146 41.6546C58.144 41.3423 58.363 41.0754 58.644 40.8876C58.9251 40.6998 59.2555 40.5996 59.5935 40.5996C60.0468 40.5996 60.4814 40.7797 60.8019 41.1002C61.1224 41.4207 61.3025 41.8553 61.3025 42.3086Z" fill="#215B74"/>
<path d="M24.5369 161.533C24.5369 161.871 24.4366 162.202 24.2488 162.483C24.0611 162.764 23.7941 162.983 23.4819 163.112C23.1696 163.241 22.826 163.275 22.4945 163.209C22.163 163.143 21.8584 162.981 21.6194 162.742C21.3804 162.503 21.2177 162.198 21.1517 161.867C21.0858 161.535 21.1196 161.191 21.249 160.879C21.3783 160.567 21.5974 160.3 21.8784 160.112C22.1595 159.924 22.4899 159.824 22.8279 159.824C23.2811 159.824 23.7158 160.004 24.0363 160.325C24.3568 160.645 24.5369 161.08 24.5369 161.533Z" fill="#215B74"/>
<path d="M34.3065 23.0941C34.3076 23.5599 34.1704 24.0155 33.9123 24.4033C33.6543 24.7911 33.2869 25.0935 32.8567 25.2723C32.4266 25.4511 31.9531 25.4981 31.4962 25.4076C31.0393 25.317 30.6195 25.0928 30.2902 24.7634C29.9608 24.434 29.7366 24.0143 29.646 23.5574C29.5554 23.1005 29.6025 22.6269 29.7813 22.1968C29.96 21.7667 30.2625 21.3993 30.6502 21.1412C31.038 20.8831 31.4937 20.746 31.9595 20.7471C32.5815 20.7486 33.1776 20.9963 33.6174 21.4362C34.0572 21.876 34.305 22.4721 34.3065 23.0941Z" fill="#DC894E"/>
<path d="M9.98767 87.4659C9.98541 87.8624 9.8656 88.2494 9.64339 88.5779C9.42119 88.9064 9.10656 89.1617 8.7393 89.3113C8.37205 89.461 7.96865 89.4984 7.58013 89.4189C7.1916 89.3393 6.83541 89.1463 6.55657 88.8643C6.27774 88.5822 6.0888 88.2239 6.01364 87.8345C5.93848 87.445 5.98047 87.0421 6.13432 86.6766C6.28816 86.311 6.54694 85.9993 6.87794 85.7809C7.20893 85.5624 7.59728 85.447 7.99386 85.4493C8.25719 85.4507 8.51764 85.5041 8.76035 85.6062C9.00307 85.7084 9.22328 85.8573 9.40842 86.0446C9.59357 86.2319 9.74001 86.4538 9.8394 86.6976C9.93879 86.9415 9.98917 87.2025 9.98767 87.4659Z" fill="#E15C56"/>
<path d="M140.446 64.2568V57.6281H144.913V58.7836H141.848V60.3631H144.683V61.5186H141.848V63.1013H144.926V64.2568H140.446ZM147.225 57.6281L148.827 62.6644H148.888L150.494 57.6281H152.047L149.762 64.2568H147.956L145.668 57.6281H147.225ZM153.107 64.2568H151.605L153.893 57.6281H155.699L157.984 64.2568H156.483L154.822 59.1428H154.77L153.107 64.2568ZM153.013 61.6513H156.56V62.7453H153.013V61.6513ZM158.782 64.2568V57.6281H160.184V63.1013H163.026V64.2568H158.782ZM168.048 57.6281H169.45V61.9329C169.45 62.4162 169.334 62.8392 169.103 63.2017C168.875 63.5642 168.554 63.8469 168.142 64.0497C167.73 64.2504 167.25 64.3507 166.702 64.3507C166.151 64.3507 165.67 64.2504 165.258 64.0497C164.846 63.8469 164.525 63.5642 164.297 63.2017C164.068 62.8392 163.954 62.4162 163.954 61.9329V57.6281H165.355V61.8131C165.355 62.0656 165.41 62.29 165.52 62.4864C165.632 62.6827 165.79 62.837 165.993 62.9492C166.196 63.0614 166.432 63.1175 166.702 63.1175C166.974 63.1175 167.21 63.0614 167.41 62.9492C167.613 62.837 167.77 62.6827 167.88 62.4864C167.992 62.29 168.048 62.0656 168.048 61.8131V57.6281ZM171.745 64.2568H170.243L172.532 57.6281H174.338L176.623 64.2568H175.121L173.461 59.1428H173.409L171.745 64.2568ZM171.651 61.6513H175.199V62.7453H171.651V61.6513ZM180.865 59.5345C180.84 59.2734 180.728 59.0705 180.532 58.926C180.336 58.7814 180.069 58.7091 179.733 58.7091C179.504 58.7091 179.311 58.7415 179.153 58.8062C178.996 58.8688 178.875 58.9562 178.791 59.0684C178.709 59.1806 178.668 59.3079 178.668 59.4503C178.663 59.569 178.688 59.6726 178.742 59.761C178.798 59.8495 178.875 59.9261 178.972 59.9909C179.069 60.0534 179.181 60.1085 179.309 60.1559C179.436 60.2012 179.572 60.2401 179.716 60.2724L180.312 60.4149C180.601 60.4796 180.867 60.5659 181.108 60.6738C181.35 60.7817 181.559 60.9144 181.736 61.0719C181.913 61.2294 182.05 61.415 182.147 61.6286C182.246 61.8423 182.297 62.0872 182.299 62.3634C182.297 62.769 182.194 63.1208 181.989 63.4185C181.786 63.7141 181.492 63.944 181.108 64.1079C180.726 64.2698 180.266 64.3507 179.726 64.3507C179.191 64.3507 178.725 64.2687 178.328 64.1047C177.933 63.9407 177.624 63.698 177.402 63.3765C177.182 63.0528 177.067 62.6525 177.056 62.1756H178.412C178.427 62.3979 178.491 62.5835 178.603 62.7323C178.717 62.8791 178.87 62.9902 179.059 63.0657C179.251 63.1391 179.468 63.1758 179.71 63.1758C179.947 63.1758 180.153 63.1412 180.328 63.0722C180.505 63.0032 180.642 62.9071 180.739 62.7841C180.836 62.6611 180.885 62.5198 180.885 62.3601C180.885 62.2112 180.841 62.0861 180.752 61.9847C180.666 61.8832 180.539 61.7969 180.37 61.7257C180.204 61.6545 180 61.5898 179.759 61.5315L179.037 61.3503C178.478 61.2143 178.037 61.0018 177.713 60.7126C177.389 60.4235 177.228 60.034 177.231 59.5442C177.228 59.1428 177.335 58.7922 177.551 58.4923C177.769 58.1923 178.068 57.9582 178.448 57.7899C178.827 57.6216 179.259 57.5374 179.742 57.5374C180.234 57.5374 180.664 57.6216 181.031 57.7899C181.4 57.9582 181.687 58.1923 181.892 58.4923C182.097 58.7922 182.202 59.1396 182.209 59.5345H180.865ZM184.644 57.6281V64.2568H183.242V57.6281H184.644Z" fill="#5C3FCB"/>
<path d="M121.47 163.896L112.025 154.554C111.711 154.243 111.533 153.821 111.53 153.379C111.527 152.937 111.7 152.513 112.011 152.198C112.321 151.884 112.744 151.706 113.186 151.703C113.627 151.701 114.052 151.874 114.366 152.184L121.339 159.083L132.396 146.864C132.692 146.536 133.106 146.34 133.547 146.318C133.987 146.297 134.419 146.451 134.746 146.747C135.073 147.043 135.269 147.457 135.291 147.897C135.313 148.338 135.159 148.769 134.863 149.097L121.47 163.896Z" fill="#5C3FCB"/>
<path d="M121.47 189.532L112.025 180.19C111.711 179.879 111.533 179.457 111.53 179.015C111.527 178.573 111.7 178.148 112.011 177.834C112.321 177.52 112.744 177.342 113.186 177.339C113.627 177.337 114.052 177.509 114.366 177.82L121.339 184.719L132.396 172.499C132.692 172.172 133.106 171.976 133.547 171.954C133.987 171.932 134.419 172.086 134.746 172.382C135.073 172.679 135.269 173.093 135.291 173.533C135.313 173.974 135.159 174.405 134.863 174.732L121.47 189.532Z" fill="#5C3FCB"/>
</svg>
