<svg width="185" height="142" viewBox="0 0 185 142" fill="none" xmlns="http://www.w3.org/2000/svg">
<g clip-path="url(#clip0_937_7776)">
<path d="M151.286 107.153C151.286 110.021 124.545 112.347 91.5571 112.347C58.5696 112.347 31.8279 110.021 31.8279 107.153C31.8279 104.284 58.5696 101.959 91.5571 101.959C124.545 101.959 151.286 104.284 151.286 107.153Z" fill="#CCD6F4"/>
<path d="M64.492 40.6754C64.9857 41.023 65.0812 41.7606 66.0035 41.9488C65.0827 42.1726 64.9554 42.8838 64.5024 43.2964C64.4858 43.2095 64.4689 43.1228 64.4519 43.0361L64.3498 42.8363L64.3688 42.8298C64.2409 42.4137 63.9812 42.1435 63.5365 42.0788C63.5193 42.0008 63.5024 41.923 63.4849 41.8449C64.1358 41.7223 64.4422 41.3044 64.4932 40.668L64.492 40.6754Z" fill="#ECECF0"/>
<path d="M92.7262 7.18744C92.0355 7.41363 91.8159 7.9319 91.5677 8.48698C91.4623 7.88262 91.1973 7.4537 90.5908 7.20465C91.1239 6.91613 91.4837 6.53885 91.5677 5.8125C91.7874 6.49819 92.0901 6.94641 92.7262 7.18744Z" fill="#ECECF0"/>
<path d="M75.1171 22.2199C75.1771 22.0929 75.3293 21.962 75.1011 21.848C75.4356 21.6031 75.603 21.2552 75.7238 20.6777C75.9402 21.3449 76.2077 21.7981 76.8868 22.0181C76.2388 22.2879 75.9325 22.6898 75.7657 23.4699C75.6048 22.8555 75.438 22.4862 75.1171 22.2199Z" fill="#ECECF0"/>
<path d="M74.325 74.2614C74.4945 75.0347 75.0326 75.4523 75.8807 75.7634C74.8026 76.0863 74.3808 76.8655 74.0973 77.8587C74.013 77.4123 73.9614 77.073 73.7658 76.7803C73.5767 76.3505 73.1748 76.2146 72.7826 76.062C72.6188 75.9988 72.5259 75.8468 72.5274 75.6942C72.53 75.3834 72.7485 75.623 72.8613 75.585C73.6895 75.3048 73.9338 74.598 74.0988 73.7461C74.2003 73.9773 74.2627 74.1192 74.325 74.2614Z" fill="#ECECF0"/>
<path d="M83.2363 33.3325C82.2597 33.5564 81.9682 34.3459 81.726 35.1984C81.5289 34.7467 81.5372 34.2299 81.1302 33.9069C81.0495 33.8185 80.9693 33.7294 80.8889 33.641C80.7565 33.4679 80.5831 33.3714 80.365 33.3572L79.9274 33.2168L79.9518 33.1755C79.9518 33.1755 79.9126 33.1473 79.9126 33.1467C80.0631 33.1016 80.2133 33.0571 80.3638 33.0126C80.6425 32.9864 80.8491 32.8377 81.0183 32.6258C81.0747 32.5495 81.1311 32.4732 81.1875 32.3972L81.1795 32.4153C81.2421 32.3064 81.3045 32.1974 81.3671 32.0885L81.3502 32.1031C81.5146 31.9588 81.5514 31.7667 81.5532 31.5616C81.5977 31.4687 81.6428 31.3761 81.7055 31.2461C81.9323 31.651 81.9076 32.1927 82.3787 32.4337L82.3903 32.4453C82.4256 32.9763 83.2107 32.792 83.2363 33.3325Z" fill="#ECECF0"/>
<path d="M105.301 21.2297C105.218 21.3594 105.121 21.482 105.057 21.62C104.993 21.758 104.963 21.9115 104.881 22.1772C104.588 21.547 104.51 20.8851 103.892 20.5963C103.814 20.4799 103.7 20.4512 103.57 20.4598L103.582 20.4684C103.736 20.314 102.935 20.3615 103.513 20.0935C104.083 19.8287 104.515 19.4194 104.55 18.7286C104.691 18.685 104.729 18.5832 104.709 18.4478C104.812 18.4451 104.941 18.4258 104.967 18.5579C105.141 19.455 105.798 19.9079 106.538 20.2882C106.011 20.4506 105.659 20.8445 105.301 21.2297Z" fill="#ECECF0"/>
<path d="M69.8134 65.301C69.6796 65.26 69.5911 65.1817 69.5908 65.0309C70.5748 64.9166 70.8779 64.1638 71.1632 63.1914C71.4668 64.1819 71.8919 64.894 72.9955 65.1211C71.9818 65.4625 71.4428 66.0018 71.3059 66.8885C71.1091 67.039 71.1091 67.039 70.9779 66.6635C70.8654 65.9739 70.4831 65.5147 69.8134 65.301Z" fill="#ECECF0"/>
<path d="M104.687 46.8658C103.894 47.1145 103.719 47.8248 103.452 48.5666C102.984 47.818 102.91 46.7541 101.689 46.7132C102.755 46.3953 103.243 45.6989 103.412 44.5234C103.725 45.5953 104.088 46.3876 105.12 46.5541C104.976 46.658 104.831 46.7619 104.687 46.8658Z" fill="#ECECF0"/>
<path d="M81.3797 56.595C81.2871 56.8105 81.1948 57.0263 81.0737 57.3092C80.8781 56.3643 80.5038 55.6214 79.396 55.3278C79.9264 55.1058 80.3595 54.9618 80.5827 54.5465C80.9004 54.2417 80.93 53.8065 81.1022 53.3438C81.3474 54.2696 81.7766 54.9686 82.7734 55.3046C82.0969 55.6148 81.5804 55.9503 81.3797 56.595Z" fill="#ECECF0"/>
<path d="M90.7305 51.1058C89.9985 51.4187 89.6637 51.8684 89.4399 52.6687C89.2306 51.891 88.9694 51.3851 88.1421 51.1346C88.9548 50.8491 89.281 50.3816 89.4318 49.7285C89.6343 50.3667 89.9697 50.8416 90.7305 51.1058Z" fill="#ECECF0"/>
<path d="M102.487 33.0749C102.44 33.2358 102.313 33.3135 102.176 33.3809C101.666 33.5851 101.543 34.099 101.29 34.5208C101.208 34.4014 101.136 34.2978 101.064 34.1942C101.032 33.624 100.578 33.4361 100.066 33.169C100.79 32.9057 101.184 32.4408 101.222 31.7231C101.248 31.6982 101.269 31.6697 101.285 31.6367C101.453 32.3108 101.714 32.9066 102.487 33.0749Z" fill="#ECECF0"/>
<path d="M117.407 61.3918C117.767 61.111 117.67 60.6117 117.952 60.2285C118.148 61.184 118.607 61.8694 119.638 62.1648C118.813 62.4969 118.235 62.9641 118.079 63.8042C117.955 64.1405 117.835 64.1381 117.768 63.7864C117.609 62.9555 117.089 62.4652 116.272 62.2007C116.707 61.9689 117.187 61.8555 117.407 61.3918Z" fill="#ECECF0"/>
<path d="M111.61 70.6495C110.796 70.9446 110.49 71.4183 110.239 72.1646C110.022 71.4448 109.759 70.922 108.949 70.6855C109.723 70.4144 110.081 69.9508 110.216 69.0508C110.459 69.887 110.742 70.4041 111.61 70.6495Z" fill="#ECECF0"/>
<path d="M75.4063 45.8182C74.6577 46.0868 74.3427 46.6187 74.1044 47.3834C73.9485 46.576 73.6262 46.05 72.793 45.819C73.628 45.5884 73.9646 45.0909 74.0967 44.2969C74.346 45.0179 74.6586 45.5552 75.4063 45.8182Z" fill="#ECECF0"/>
<path d="M103.716 57.2843C104.315 57.0015 104.721 56.6889 104.825 56.0566C105.052 56.5803 105.322 57.0065 105.955 57.2229C105.364 57.5188 105.032 57.8926 104.855 58.6599C104.651 57.9095 104.424 57.4256 103.716 57.2843Z" fill="#ECECF0"/>
<path d="M86.3361 75.8432C86.3361 75.8432 86.3373 75.8462 86.3373 75.8456C85.7588 75.9881 85.4893 76.4232 85.2726 77.2223C85.1105 76.4618 84.8852 76.0118 84.1909 75.8097C84.7689 75.5256 85.1164 75.1765 85.2764 74.625C85.4578 75.2148 85.9247 75.5036 86.3361 75.8432Z" fill="#ECECF0"/>
<path d="M92.0362 38.7656C92.279 39.3857 92.5206 39.8164 93.3013 40.0061C92.5545 40.2234 92.2707 40.6389 92.0617 41.2668C91.8124 40.7155 91.6375 40.2076 90.7981 40.0592C91.5553 39.8277 91.8403 39.4207 92.0362 38.7656Z" fill="#ECECF0"/>
<path d="M93.0061 90.0507C92.8633 89.5479 92.2379 89.5031 92.0488 89.0436C92.7945 88.9014 93.0572 88.3641 93.1709 87.625C93.4555 88.2555 93.6873 88.8791 94.5687 89.1148C93.7767 89.3935 93.4668 89.8922 93.2412 90.5657C93.1299 90.3214 93.0679 90.1861 93.0061 90.0507Z" fill="#ECECF0"/>
<path d="M94.3715 67.7415C94.3269 67.8599 94.2821 67.9784 94.1741 68.2642C93.942 67.201 93.5688 66.4155 92.3325 66.1873C93.5163 65.9412 93.9598 65.254 94.1833 64.3086C94.4395 65.1994 94.9218 65.8616 95.7895 66.1801C95.7758 66.2021 95.7648 66.227 95.7479 66.2463C95.7304 66.2656 95.7072 66.2796 95.6867 66.2959C94.9601 66.515 94.5579 67.0303 94.3715 67.7415Z" fill="#ECECF0"/>
<path d="M119.932 52.3953C119.942 51.6731 119.264 51.4606 118.905 51.0115C119.639 50.9147 119.833 50.3389 120.034 49.6719C120.281 50.2955 120.533 50.8447 121.331 51.0893C120.513 51.3451 120.53 52.127 120.029 52.4992C120.024 52.5034 119.991 52.477 119.975 52.4603C119.958 52.4413 119.946 52.4173 119.932 52.3953Z" fill="#ECECF0"/>
<path d="M108.588 84.1252C108.445 83.2364 108.115 82.7419 107.321 82.4878C108.115 82.2536 108.456 81.7632 108.587 80.9336C108.816 81.706 109.14 82.2296 109.91 82.4843C109.137 82.7743 108.816 83.2961 108.588 84.1252Z" fill="#ECECF0"/>
<path d="M69.7186 36.6848C70.2087 36.5156 70.0668 35.8836 70.4735 35.6533C70.7008 35.301 71.0368 35.1172 71.4358 35.0302C71.4171 34.7518 71.1211 34.7797 70.9899 34.6257C70.2437 34.3202 70.0944 33.5933 69.8195 32.7832C69.6506 33.934 69.1926 34.672 67.9756 34.9361C69.0973 35.1911 69.5883 35.7771 69.7186 36.6848Z" fill="#CCD6F4"/>
<path d="M60.4739 53.9531C60.3964 54.1306 60.3456 54.2464 60.2952 54.3622C60.1524 54.873 59.7395 55.1102 59.2568 55.3278C60.1135 55.4406 60.1821 56.2367 60.5994 56.7066C60.6822 56.267 60.8152 55.8585 61.2605 55.6448C61.3115 55.6032 61.3629 55.5617 61.4139 55.5201C61.5261 55.4744 61.6386 55.4284 61.7508 55.3827C61.7289 55.31 61.7063 55.2375 61.6841 55.1651C60.9366 55.1434 60.8553 54.4073 60.4739 53.9531Z" fill="#CCD6F4"/>
<path d="M86.3157 13.547C86.5948 12.8667 86.8981 12.3297 87.7067 12.0403C86.8542 11.8186 86.5571 11.2804 86.3291 10.5508C86.1409 11.303 85.8806 11.8589 85.0996 12.0652C85.8758 12.2484 86.094 12.842 86.3157 13.547Z" fill="#CCD6F4"/>
<path d="M74.1786 23.5042C74.3588 22.8369 74.5992 22.4113 75.1172 22.2192C75.1774 22.0925 75.3294 21.9616 75.1011 21.8473C74.4849 21.6579 74.3686 21.0732 74.0973 20.5234C73.9512 21.234 73.6737 21.7876 72.9512 22.0453C73.6692 22.2658 73.8577 22.8607 74.1786 23.5042Z" fill="#CCD6F4"/>
<path d="M88.4631 69.5977C88.4634 69.5986 88.4643 69.5992 88.4646 69.6001C88.4655 69.6001 88.4661 69.6003 88.467 69.6003L88.4631 69.5977Z" fill="#CCD6F4"/>
<path d="M102.31 41.6045C102.306 41.597 102.302 41.5895 102.298 41.582C102.299 41.5922 102.3 41.6024 102.301 41.6126L102.31 41.6045Z" fill="#CCD6F4"/>
<path d="M70.9778 66.6652C70.4599 66.3221 70.0339 65.9003 69.8134 65.3028C69.6795 65.2618 69.591 65.1834 69.591 65.0327C69.4215 64.5548 69.2063 64.089 69.1989 63.5675C69.1499 63.4752 69.1188 63.3238 69.0481 63.3021C68.8831 63.2516 68.9451 63.4232 68.9326 63.4956C68.8409 64.0163 68.7783 64.545 68.4242 64.9748C68.3532 65.1965 68.3336 65.4568 68.2012 65.6314C67.9276 65.9911 67.7993 66.5658 67.154 66.4711C67.1329 66.556 67.1119 66.6409 67.0914 66.7261C66.6559 67.1693 65.9866 67.1384 65.4062 67.4893C67.4716 67.7721 68.7528 69.2997 68.9733 71.6141C69.5293 69.6128 70.4017 67.8921 72.7577 67.4367C72.1904 67.2233 71.7481 67.0565 71.3058 66.8902C71.109 67.041 71.109 67.041 70.9778 66.6652Z" fill="#CCD6F4"/>
<path d="M85.3989 26.124C86.9555 26.5619 87.7641 27.4734 87.9805 28.8959C87.9383 28.9662 87.8959 29.0366 87.8534 29.1069C88.1767 29.402 88.2459 29.2601 88.3183 28.8962C88.5056 27.9579 88.9868 27.1867 89.7927 26.645C90.1165 26.4271 90.5873 26.4725 90.8357 26.0629C89.2774 25.6622 88.5293 24.5725 88.2577 23.0702C88.2435 22.9918 88.3412 22.7033 88.0488 22.8529C88.0339 22.9583 88.0191 23.0637 88.0042 23.1691C87.8725 24.7028 87.0704 25.6904 85.3989 26.124Z" fill="#CCD6F4"/>
<path d="M113.423 29.6605C113.974 28.3509 114.118 28.185 115.187 27.6168C114.178 27.3535 113.712 26.6349 113.43 25.7168C113.287 26.7477 112.774 27.4141 111.59 27.6694C112.788 27.9045 113.211 28.6477 113.423 29.6605Z" fill="#CCD6F4"/>
<path d="M102.309 41.5977L102.3 41.6054L102.381 41.7152C102.357 41.676 102.333 41.6368 102.309 41.5977Z" fill="#CCD6F4"/>
<path d="M92.0485 89.0401C91.879 88.6863 91.7101 88.3322 91.5406 87.9766C91.4144 88.9039 90.9754 89.6246 89.8403 89.9841C91.022 90.2738 91.383 91.0301 91.5839 92.1655C91.7778 91.0904 92.2177 90.4355 93.0058 90.0473C92.863 89.5441 92.2379 89.4996 92.0485 89.0401Z" fill="#CCD6F4"/>
<path d="M97.0392 67.395C96.3972 67.132 95.9513 66.8174 95.6866 66.2988C94.9602 66.5179 94.5577 67.0329 94.3716 67.7444C95.0219 68.0392 95.0932 68.7254 95.4075 69.3714C95.6296 68.4153 96.1377 67.7934 97.0392 67.395Z" fill="#CCD6F4"/>
<path d="M118.905 51.0134C118.359 50.3277 118.038 49.5547 117.995 48.6734L118.009 48.6523C117.928 48.6743 117.846 48.6963 117.765 48.7191C117.782 49.9172 117.431 50.9291 116.329 51.5619C116.114 51.6637 115.899 51.7658 115.683 51.8677C115.515 51.9335 115.346 51.9992 115.091 52.0983C115.554 52.2574 115.942 52.2648 116.217 52.5462C117.422 53.1001 117.607 54.2848 117.937 55.5104C118.226 54.1168 118.683 52.9938 119.932 52.3972C119.941 51.675 119.264 51.4622 118.905 51.0134Z" fill="#CCD6F4"/>
<path d="M126.27 56.6367C126.179 57.4486 125.765 57.7965 125.15 58.1351C125.875 58.3649 126.1 58.9161 126.374 59.5282C126.627 58.8823 126.861 58.3527 127.645 58.1405C126.926 57.8181 126.616 57.3328 126.27 56.6367Z" fill="#CCD6F4"/>
<path d="M123.495 37.8125C123.66 38.7778 124.056 39.5712 125.059 39.9298C125.026 40.2201 124.688 40.1625 124.556 40.3454C124.228 40.5134 123.975 40.7494 123.863 41.1118C123.644 41.3609 123.644 41.6951 123.498 42.0599C123.222 41.1231 122.964 40.2225 121.825 40.1275C121.82 40.0646 121.814 40.0014 121.809 39.9381C122.001 39.9034 122.217 39.9251 122.338 39.7173C122.392 39.6677 122.445 39.6181 122.499 39.5686C122.824 39.5668 122.972 39.3839 122.997 39.0779C123.294 38.8295 123.357 38.4979 123.333 38.1355C123.484 38.0761 123.474 37.9366 123.495 37.8125Z" fill="#ECECF0"/>
<path d="M29.4009 57.6473C30.4057 56.1328 31.7177 54.8763 32.886 53.4996C34.393 51.7234 35.9404 49.981 37.4392 48.1979C37.8746 47.6793 38.2207 47.5276 38.7945 48.0141C44.4453 52.8074 50.1076 57.5864 55.7748 62.3607C56.1114 62.6445 56.286 62.9307 56.1165 63.3617C55.7095 64.5051 54.7602 65.2483 54.0086 66.1216C52.1487 68.2817 50.3056 70.4581 48.4044 72.5825C48.169 72.8458 47.9735 73.1619 47.5725 73.2029C47.1801 73.1038 46.988 72.7312 46.6627 72.5398C41.3865 68.1404 36.1788 63.6597 30.9023 59.2609C30.3415 58.7937 29.6918 58.3787 29.4009 57.6473Z" fill="#ACC2F5"/>
<path d="M29.4011 57.6484C31.7746 59.6349 34.1561 61.6124 36.5198 63.6101C39.9705 66.5268 43.4087 69.4583 46.8523 72.3836C47.0755 72.7407 46.8511 73.0117 46.6493 73.2539C46.0895 73.9257 45.6101 74.6701 44.9849 75.2801C44.019 76.2223 43.2004 77.2368 42.9285 78.5999C41.0931 77.2941 39.446 75.7642 37.7413 74.3C36.4219 73.1666 35.0413 72.1043 33.7322 70.9535C31.9889 69.4209 30.1922 67.9489 28.4153 66.4543C27.651 65.8114 26.862 65.196 26.1149 64.5335C24.8872 63.445 24.8103 62.6789 25.9383 61.5037C26.9849 60.4137 27.8793 59.2018 28.882 58.0797C29.0301 57.9138 29.2269 57.7909 29.4011 57.6484Z" fill="#32449F"/>
<path d="M47.5722 73.1018C50.2127 70.0542 52.8515 67.0057 55.4957 63.9614C55.6836 63.7453 55.9089 63.5619 56.117 63.3633C56.7718 63.9264 57.4263 64.4895 58.0812 65.0526C58.3023 65.5628 57.8855 65.8291 57.6318 66.1215C55.0846 69.0575 52.5354 71.9914 49.9918 74.9297C49.5317 75.3204 49.2453 75.8909 48.6961 76.1901C48.5353 76.2361 48.3625 76.2441 48.2248 76.1571C47.7248 75.8416 47.3597 75.9327 46.9803 76.402C46.6111 76.8592 46.3926 77.2412 46.888 77.7363C47.0258 77.874 47.0394 78.0886 46.9676 78.289C46.8346 78.5927 46.6096 78.8251 46.373 79.0445C45.6069 79.7539 44.9084 79.7613 44.1527 79.0744C43.3881 78.3795 43.2889 77.6556 43.9203 76.8654C44.8666 75.6813 45.9022 74.5726 46.907 73.4384C47.0816 73.2413 47.2855 73.0852 47.5722 73.1018Z" fill="#F7F7DF"/>
<path d="M49.7881 74.7828C52.0862 72.1139 54.3872 69.4469 56.6803 66.7742C57.1618 66.2123 57.6147 65.626 58.081 65.0514C58.3437 64.9478 58.6453 64.7331 58.8481 65.0822C59.0271 65.3909 58.7614 65.6198 58.572 65.8374C55.842 68.9693 53.1114 72.1012 50.3812 75.2331C49.984 75.3456 49.8264 75.1428 49.7881 74.7828Z" fill="#ACC2F5"/>
<path d="M47.5721 73.1006C46.4337 74.4194 45.2909 75.735 44.1582 77.0588C43.5048 77.822 43.5713 78.1708 44.3858 78.9123C45.0317 79.5006 45.6094 79.5718 46.1912 78.8416C46.4114 78.5647 46.6691 78.3177 46.9098 78.0568C47.2901 78.0054 47.5439 78.1061 47.5065 78.5549C47.2378 78.8767 46.99 79.2192 46.6964 79.5163C45.7821 80.4419 44.9644 80.4632 43.9854 79.5983C43.6224 79.2774 43.2801 78.9328 42.9284 78.5991C42.5467 77.3981 43.3386 76.6385 44.0234 75.8956C45.0469 74.7854 46.0413 73.6607 46.8519 72.3828C47.185 72.5286 47.4147 72.7785 47.5721 73.1006Z" fill="#7A86D2"/>
<path d="M47.5067 78.5557C47.3776 78.3058 47.1529 78.1713 46.9098 78.0579C46.7742 77.9223 46.6596 77.7501 46.4987 77.6584C45.951 77.3441 45.9608 77.0122 46.4162 76.6278C46.4892 76.5664 46.5604 76.4921 46.6053 76.409C47.1333 75.4304 47.7896 75.2938 48.5952 76.0968C48.9292 76.1398 49.2316 76.222 49.264 76.6379C50.1486 77.1585 49.942 77.9674 49.8235 78.7537C49.7621 79.1634 49.7057 79.5739 49.6288 80.1094C48.8683 79.5528 48.1874 79.0544 47.5067 78.5557Z" fill="#FD4C00"/>
<path d="M49.2642 76.6375C49.0413 76.4571 48.8186 76.2766 48.5957 76.0964C48.9932 75.6586 49.3909 75.221 49.7887 74.7832C49.9861 74.9331 50.1841 75.0833 50.3818 75.2335C50.0089 75.7016 49.6364 76.1694 49.2642 76.6375Z" fill="#7A86D2"/>
<path d="M53.0025 26.8467C52.3518 26.9589 51.971 27.462 51.8344 27.9883C51.5329 29.1492 51.2984 30.3372 51.2969 31.5515C51.7424 31.2389 52.1915 30.9302 52.4486 30.4256C53.0892 30.7622 53.7514 30.8332 54.443 30.5669C54.657 29.3505 54.8708 28.1341 55.0851 26.9173C54.3929 26.8289 53.7098 26.4828 53.0025 26.8467Z" fill="#32449F"/>
<path d="M50.0862 45.1918C49.5495 45.3076 49.2734 45.7228 48.9977 46.1381C48.6525 47.2895 48.4474 48.4635 48.429 49.6678C48.6845 49.0943 49.1808 48.801 49.7199 48.557C50.3533 48.4122 50.961 48.6377 51.5804 48.6882C51.76 47.5323 51.9396 46.3762 52.1192 45.22C51.4433 45.0843 50.7683 44.8789 50.0862 45.1918Z" fill="#32449F"/>
<path d="M52.2695 31.6262C51.7595 31.8049 51.3852 32.1376 51.1389 32.617C50.8212 33.6286 50.6455 34.6637 50.6262 35.7246C50.9254 35.106 51.4179 34.7237 52.0739 34.5411C52.6524 34.5079 53.2214 34.5699 53.7816 34.7162C53.9425 33.7017 54.103 32.6871 54.2639 31.6725C53.6011 31.5668 52.9406 31.3694 52.2695 31.6262Z" fill="#32449F"/>
<path d="M55.0848 26.9141C60.1337 27.709 65.1826 28.5066 70.2326 29.2941C70.7443 29.3739 70.8865 29.6271 70.8073 30.1205C69.6713 37.1988 68.5448 44.2789 67.4159 51.3584C67.1532 51.4534 66.8923 51.3919 66.6311 51.3504C61.9447 50.6041 57.2571 49.865 52.5709 49.1173C52.2032 49.0588 51.8185 49.0348 51.5311 48.7451C51.3836 48.5301 51.3759 48.2856 51.4124 48.0445C51.5611 47.0644 51.6659 46.0768 51.9081 45.1127C52.1266 43.115 52.5012 41.1407 52.8135 39.1573C53.05 37.6538 53.2296 36.1403 53.5671 34.6537C53.6698 33.6403 53.8108 32.6329 54.0486 31.6412C54.0655 31.2633 54.1139 30.8905 54.2276 30.5283C54.2938 29.5467 54.4968 28.5852 54.6577 27.6179C54.7055 27.3299 54.8198 27.0741 55.0848 26.9141Z" fill="#646CCE"/>
<path d="M53.7817 34.7179C51.2854 49.2863 53.4389 43.7212 48.938 45.9472C49.5702 42.3074 49.8318 38.8086 50.8125 35.1477C51.3631 34.2724 53.1124 33.9233 53.7817 34.7179Z" fill="#CCD6F4"/>
<path d="M51.5808 48.6882C56.5718 49.4822 61.5633 50.2762 66.5543 51.0714C66.8568 51.1195 67.1759 51.1243 67.416 51.3606C67.3932 51.5247 67.3703 51.6889 67.3475 51.853C67.1441 52.1439 66.8604 52.1504 66.554 52.078C61.3001 51.2486 56.0473 50.4134 50.7945 49.5781C50.3733 49.511 49.9595 49.4261 49.6244 49.7921C49.5092 49.9773 49.3593 50.1415 49.2812 50.3522C49.0123 51.0806 49.4089 51.7735 50.1667 51.9038C50.4252 51.9483 50.695 51.9516 50.9316 52.0872C51.1943 52.3864 51.5113 52.1994 51.8103 52.1822C52.1472 52.2018 52.4769 52.2582 52.8014 52.3455C53.0807 52.4016 53.217 52.8907 53.6094 52.6105C57.2379 53.1276 60.8474 53.7519 64.4667 54.3043C64.8101 54.3025 65.142 54.4082 65.4827 54.4331C65.7083 54.45 65.9571 54.5397 66.1382 54.3081C66.1886 54.2663 66.2465 54.2387 66.3103 54.2244C66.6238 54.3645 66.6894 54.6922 66.8535 54.9454C66.8426 55.3942 66.6514 55.5427 66.1815 55.467C60.7227 54.5886 55.2595 53.7379 49.8013 52.8557C48.3987 52.6289 47.8026 51.1869 48.4287 49.6674C48.4952 48.8176 49.177 48.608 49.8066 48.3417C50.4377 48.2536 51.0596 48.2147 51.5808 48.6882Z" fill="#877AF3"/>
<path d="M51.2969 31.5507C51.7792 30.399 53.0452 30.1974 54.4427 30.5661C54.4231 31.291 54.2358 31.5513 54.0488 31.6436C53.7175 31.8071 53.3845 31.4465 52.8425 31.4765C52.3269 31.5047 51.9155 31.8707 51.6249 32.2245C51.4539 32.378 51.2455 32.5341 51.1464 32.4735C51.0068 32.3881 51.1478 31.9069 51.2969 31.5507Z" fill="#CCD6F4"/>
<path d="M66.6971 51.9163C66.9138 51.8946 67.1305 51.8732 67.3472 51.8516C67.1827 52.8822 67.018 53.9128 66.8536 54.9437C66.5264 54.8422 66.2424 54.7071 66.3347 54.2785C66.1777 54.1972 66.1616 54.0514 66.1602 53.8988C66.1664 53.7552 66.1732 53.6109 66.2106 53.4708C66.229 53.3325 66.2418 53.1933 66.2771 53.0573C66.2914 52.9193 66.3112 52.7818 66.3427 52.6462C66.3575 52.5414 66.3629 52.4351 66.3967 52.3336C66.4365 52.1511 66.503 51.9875 66.6971 51.9163Z" fill="#32449F"/>
<path d="M56.3638 40.5185C56.5885 39.0988 56.8075 37.6781 57.0412 36.2595C57.1709 35.4732 57.4413 35.2711 58.2154 35.3916C60.5319 35.752 62.8475 36.1168 65.1611 36.4943C66.1204 36.6508 66.3074 36.9206 66.154 37.9037C65.7455 40.5259 65.3267 43.1467 64.9061 45.7672C64.8642 46.0278 64.7826 46.2822 64.7185 46.5395C64.6143 46.956 64.3397 47.1177 63.9271 47.0527C61.3714 46.6487 58.8156 46.2445 56.2608 45.8351C55.6778 45.7416 55.5985 45.3376 55.6775 44.8434C55.9081 43.402 56.1355 41.9602 56.3638 40.5185Z" fill="#CCD6F4"/>
<path d="M62.2719 32.9304C60.9608 32.7223 59.6503 32.5101 58.338 32.3089C57.9509 32.2495 57.6024 32.1153 57.6701 31.6644C57.7342 31.2349 58.0771 31.1494 58.4837 31.215C61.1051 31.6371 63.7276 32.0521 66.3507 32.4626C66.7491 32.5253 67.0426 32.6597 66.9583 33.137C66.8705 33.6339 66.5116 33.6037 66.1397 33.5443C64.8505 33.3386 63.5611 33.1349 62.2719 32.9304Z" fill="#CCD6F4"/>
<path d="M51.3162 50.4086C52.0532 50.235 52.7442 50.5342 53.454 50.6286C53.7357 50.666 53.6499 50.9296 53.6276 51.1154C53.5614 51.6607 53.4833 52.2048 53.41 52.7492C53.0173 53.2295 53.0633 52.5064 52.8336 52.539C52.4726 52.2422 52.0891 52.0863 51.6379 52.3455C51.4325 52.2538 51.1194 53.0585 50.9976 52.2689C50.9309 52.1416 50.854 52.0172 50.8745 51.8637C50.881 51.7221 50.8908 51.5811 50.927 51.4431C50.9436 51.3051 50.9594 51.1662 50.9941 51.0305C51.0101 50.8904 51.0342 50.7521 51.0906 50.6209C51.1383 50.5208 51.2057 50.4419 51.3162 50.4086Z" fill="#FD4C00"/>
<path d="M51.6382 52.348C52.3108 51.8348 52.3108 51.8348 52.8338 52.5413C52.4352 52.4771 52.0368 52.4124 51.6382 52.348Z" fill="#E4EAE6"/>
<path d="M66.6973 51.9169C61.2857 51.0537 55.8741 50.1893 50.4619 49.3296C49.9944 49.2554 49.5806 49.3463 49.3411 49.8165C48.5628 50.9038 48.9819 51.9382 50.2862 52.1508C50.5237 52.1894 50.7609 52.2291 50.998 52.2683C51.0188 52.1273 51.0399 51.9863 51.0607 51.8453C51.0826 51.7147 51.1049 51.5844 51.1268 51.4538L51.1847 51.0575C51.2067 50.9263 51.2287 50.7945 51.2506 50.663C51.2619 50.6197 51.2732 50.5763 51.2842 50.5333C51.6861 50.6126 52.0957 50.6313 52.4982 50.701C53.3635 50.8515 53.3582 50.8557 53.267 51.712C53.2299 52.0605 53.0293 52.4509 53.4104 52.7489C53.6731 52.7866 53.9361 52.8213 54.1979 52.8623C57.6706 53.4061 61.1432 53.9508 64.6159 54.4955C65.0071 54.5634 65.4013 54.6186 65.789 54.7029C66.1449 54.7804 66.2841 54.6356 66.2767 54.2963L66.3349 54.2791C66.3438 54.1431 66.3524 54.0078 66.3616 53.8721C66.3803 53.7373 66.3993 53.6023 66.418 53.4672C66.4405 53.3393 66.4628 53.2119 66.4854 53.0843C66.505 52.9492 66.5245 52.8145 66.5441 52.6797C66.5554 52.5922 66.5664 52.5049 66.5777 52.4176C66.6175 52.2508 66.6575 52.0837 66.6973 51.9169Z" fill="#F7F7DF"/>
<path d="M144.749 104.233C144.669 103.959 144.59 103.685 144.511 103.411C144.146 103.575 143.775 103.48 143.408 103.44C143.534 103.445 143.66 103.449 143.787 103.454C144.038 103.464 144.271 103.49 144.471 103.307C144.207 102.727 143.877 102.166 143.693 101.562C143.385 100.553 142.441 99.9836 142.06 99.0263C141.828 98.4418 141.571 97.8383 141.034 97.434C140.803 97.2482 140.537 97.1687 140.243 97.1369C136.932 96.7754 133.664 96.1434 130.388 95.5631C128.58 95.2565 126.791 94.848 124.991 94.5004C121.363 93.7996 117.718 93.2834 114.014 93.2754C113.145 93.2902 112.276 93.2807 111.405 93.2834C110.449 93.2623 109.513 93.4381 108.575 93.5693C104.367 94.1582 100.458 95.4954 97.1702 98.2898C96.34 98.9951 95.4394 99.6707 94.9832 100.727C94.9891 100.966 95.1654 101.073 95.3429 101.16C96.8072 101.882 97.8096 103.054 98.5722 104.462C98.7084 104.714 98.834 104.981 99.1561 105.047C99.6123 105.127 100.056 105.047 100.496 104.935C103.959 104.034 107.502 103.734 111.061 103.657C113.576 103.603 116.09 103.831 118.595 104.08C121.799 104.399 125.007 104.692 128.214 104.978C128.768 104.979 129.311 105.112 129.867 105.113C134.58 105.115 139.293 105.115 144.007 105.109C144.311 105.109 144.634 105.143 144.882 104.893C144.837 104.673 144.793 104.453 144.749 104.233Z" fill="#CEB297"/>
<path d="M86.5439 93.9058C83.7872 92.5929 80.8091 92.2783 77.8241 92.1064C75.0588 91.9467 72.3021 92.1907 69.5555 92.56C64.6782 93.216 59.9078 94.4039 55.0982 95.3977C51.9986 96.0389 48.8845 96.5969 45.7604 97.1001C45.3431 97.1672 44.9275 97.1977 44.5648 97.4388C44.2065 97.73 44.0964 98.1755 43.8746 98.551C43.5282 99.1393 43.3198 99.9075 42.8167 100.278C42.2524 100.693 42.0705 101.189 41.8659 101.755C41.5816 102.541 41.2785 103.321 40.9834 104.103C41.166 104.278 41.3975 104.225 41.613 104.231C41.7015 104.234 41.7902 104.235 41.879 104.236C41.7217 104.236 41.5644 104.237 41.407 104.236C41.2087 104.234 41.0063 104.226 40.8422 104.371L40.7095 104.892C41.0194 105.188 41.413 105.113 41.7781 105.109C45.4375 105.075 49.0991 105.226 52.7561 104.976C54.7779 104.811 56.8038 104.71 58.8273 104.586C60.9654 104.455 63.0999 104.279 65.2357 104.125C68.1871 103.912 71.1394 103.74 74.0962 103.646C75.9318 103.587 77.7576 103.774 79.5867 103.897C81.5782 104.032 83.5406 104.31 85.4486 104.918C85.6715 104.96 85.8912 105.032 86.1227 104.974C86.4115 104.841 86.5068 104.557 86.6383 104.305C87.7559 102.164 89.4927 100.929 91.9104 100.668C92.2467 100.632 92.6284 100.655 92.8469 100.298C92.8472 99.9755 92.7026 99.6995 92.5524 99.4285C91.1621 96.922 89.111 95.1282 86.5439 93.9058Z" fill="#CEB297"/>
<path d="M116.183 77.3891C118.114 76.0237 120.177 74.88 122.277 73.8051C124.08 72.8817 125.919 72.0286 127.743 71.1446C128.416 70.8905 129.09 70.637 129.868 70.3438C129.446 71.8573 129.05 73.2691 128.659 74.6823C128.526 75.1626 128.08 75.0501 127.775 75.1035C125.667 75.4722 123.574 75.9052 121.492 76.3983C119.711 76.8207 117.948 77.3122 116.22 77.9231C116.037 77.9881 115.861 78.1057 115.648 78.0499C115.588 77.6364 116.086 77.6753 116.183 77.3891Z" fill="#BFA38C"/>
<path d="M116.183 77.3906C116.218 77.7833 115.687 77.7183 115.649 78.0514C115.357 78.2307 115.062 78.4002 114.718 78.4604C115.101 77.9588 115.676 77.7213 116.183 77.3906Z" fill="#93806C"/>
<path d="M99.033 104.933C99.4854 104.907 99.9422 104.923 100.383 104.786C108.156 104.548 115.93 104.742 123.704 104.684C124.873 104.675 126.042 104.724 127.208 104.823C127.512 104.85 127.825 104.877 128.129 104.789C133.337 105.042 138.548 104.853 143.756 104.91C144.131 104.914 144.507 104.9 144.881 104.895C145.606 104.997 145.962 105.321 145.922 105.843C145.883 106.37 145.495 106.642 144.757 106.642C130.285 106.644 115.813 106.643 101.342 106.648C101.065 106.648 100.762 106.548 100.514 106.771C100.009 106.858 99.5005 106.85 99.0016 106.756C98.5967 106.68 98.2221 106.526 98.2645 105.995C98.3055 105.857 98.3758 105.753 98.5391 105.837C99.0752 106.113 99.0948 105.829 98.9971 105.418C98.9573 105.251 98.8861 105.085 99.033 104.933Z" fill="#646CCE"/>
<path d="M40.7091 104.889C44.3694 104.871 48.0308 105.031 51.6893 104.789C52.0621 104.765 52.4379 104.782 52.8122 104.78C53.8482 104.918 54.8833 104.758 55.9171 104.737C56.8658 104.719 57.8166 104.685 58.7656 104.684C67.1485 104.673 75.5314 104.682 83.914 104.668C84.488 104.667 85.0449 104.836 85.6184 104.771C85.7861 104.819 85.9541 104.867 86.1218 104.916C86.2355 105.054 86.1675 105.201 86.1432 105.347C86.1123 105.532 86.0016 105.769 86.232 105.864C86.4831 105.968 86.5309 105.697 86.6273 105.543C86.7464 105.353 86.7847 105.066 87.1216 105.149C87.4558 105.378 87.5591 105.699 87.4329 106.068C87.2851 106.502 86.9595 106.744 86.5012 106.788C85.8481 106.851 85.1838 106.751 84.5376 106.921C84.3839 106.52 84.0357 106.644 83.7483 106.644C72.8115 106.64 61.8743 106.641 50.9374 106.641C47.5942 106.641 44.2513 106.64 40.908 106.641C40.5524 106.641 40.1935 106.664 39.9299 106.352C39.7112 106.093 39.6521 105.806 39.7667 105.487C39.9255 105.044 40.2873 104.919 40.7091 104.889Z" fill="#646CCE"/>
<path d="M94.787 100.759C94.8769 100.776 94.9666 100.793 95.0568 100.811C96.9405 101.646 98.1284 103.152 99.0329 104.932C99.0703 105.078 99.0914 105.23 99.1487 105.367C99.2653 105.647 99.3303 105.933 99.0403 106.122C98.6856 106.354 98.5562 106.011 98.3843 105.805C97.6859 103.729 96.4771 102.052 94.2883 101.476C91.2419 100.675 88.1892 102.033 86.971 105.158C86.8781 105.378 86.7899 105.6 86.6917 105.817C86.5878 106.046 86.4483 106.269 86.1544 106.146C85.8968 106.038 85.8445 105.797 85.9196 105.538C85.9802 105.329 86.0541 105.124 86.1221 104.918C86.8689 103.29 87.906 101.933 89.5659 101.129C90.5814 100.637 91.6604 100.471 92.7676 100.41C92.9303 100.581 93.1306 100.497 93.3194 100.492C93.5928 100.514 93.8659 100.536 94.1396 100.559C94.3557 100.626 94.5712 100.692 94.787 100.759Z" fill="#FD4C00"/>
<path d="M111.265 93.4642C112.196 93.2585 113.127 93.2603 114.057 93.4636C113.127 93.4639 112.196 93.4642 111.265 93.4642Z" fill="#CAC8B3"/>
<path d="M77.3704 101.716C77.3615 101.054 77.3523 100.393 77.3434 99.7317C77.219 99.0709 77.409 98.4004 77.284 97.7393C77.2763 97.6399 77.268 97.5401 77.26 97.4404C77.1401 97.3104 77.1335 97.1753 77.2416 97.0349C77.2454 96.2094 77.249 95.3842 77.2529 94.5587C77.3069 94.5014 77.3731 94.4756 77.4514 94.4798C79.5127 94.4581 81.5386 94.7208 83.5309 95.245C83.7859 95.3124 84.0507 95.3557 84.2668 95.5264C84.3261 95.584 84.3419 95.6517 84.3151 95.7297C84.2647 98.322 84.2145 100.914 84.1614 103.653C83.6814 103.3 83.3172 103.033 82.953 102.765C82.6683 102.675 82.4133 102.531 82.1797 102.346C82.1061 102.299 82.0396 102.242 81.971 102.189C80.4839 101.03 81.0449 101.09 79.4512 102.032C79.3022 102.145 79.1191 102.17 78.9496 102.231C78.4078 102.353 78.019 102.771 77.4764 103.004C77.311 102.72 77.4405 102.404 77.363 102.127C77.2766 101.988 77.2671 101.851 77.3704 101.716Z" fill="#FD4C00"/>
<path d="M99.2997 106.627C98.812 106.555 98.2777 106.539 98.3845 105.806C98.5264 105.616 98.4543 105.417 98.3753 105.241C97.8933 104.168 97.3153 103.16 96.3901 102.394C95.2105 101.418 93.8655 101.043 92.335 101.124C89.9889 101.248 88.2966 102.361 87.1378 104.354C87.0003 104.59 86.835 104.852 86.9712 105.16C87.2615 105.399 87.4572 105.693 87.277 106.066C87.0962 106.442 86.7943 106.661 86.3357 106.633C85.9011 106.606 85.4636 106.63 85.0273 106.626C84.7987 106.624 84.5814 106.628 84.5381 106.925C84.6835 107.578 85.1502 107.808 85.756 107.809C90.2646 107.814 94.7732 107.816 99.2819 107.808C99.9569 107.806 100.414 107.487 100.514 106.772C100.138 106.486 99.7031 106.686 99.2997 106.627Z" fill="#32449F"/>
<path d="M121.594 104.169C117.039 103.709 112.484 103.246 107.895 103.591C105.359 103.781 102.839 104.084 100.383 104.785C100.565 104.972 100.8 104.895 101.012 104.895C109.795 104.899 118.579 104.9 127.363 104.895C127.619 104.895 127.896 104.981 128.129 104.788C125.951 104.582 123.771 104.389 121.594 104.169Z" fill="#32449F"/>
<path d="M85.6189 104.776C85.1535 104.636 84.6943 104.47 84.2218 104.361C80.7262 103.557 77.1672 103.393 73.6043 103.477C66.6583 103.641 59.7466 104.396 52.8125 104.784C53.0176 104.983 53.2753 104.899 53.5089 104.899C64.0041 104.902 74.4995 104.902 84.9947 104.897C85.2058 104.897 85.4429 104.978 85.6189 104.776Z" fill="#32449F"/>
<path d="M77.3818 94.5348C77.6475 93.9251 78.2011 93.9943 78.7146 93.9688C80.6538 94.0747 82.5663 94.3401 84.4204 94.945C84.5902 95.2039 84.608 95.4318 84.2898 95.5924C82.7189 95.2086 81.1338 94.9136 79.5262 94.7257C78.9527 94.6586 78.3866 94.669 77.8185 94.6868C77.6335 94.6927 77.4721 94.7509 77.3818 94.5348Z" fill="#CE3929"/>
<path d="M129.768 97.3423C127.378 96.8386 124.976 96.3909 122.576 95.9377C119.824 95.4176 117.045 95.0884 114.252 94.9492C110.323 94.7533 106.519 95.4316 102.837 96.797C101.706 97.2164 100.591 97.678 99.571 98.3361C100.66 97.9784 101.718 97.5456 102.799 97.1793C105.672 96.2066 108.611 95.5616 111.657 95.458C114.848 95.3496 117.993 95.726 121.136 96.2306C125.375 96.911 129.585 97.74 133.809 98.5029C134.616 98.6487 135.411 98.9099 136.256 98.8276C134.094 98.3296 131.939 97.7997 129.768 97.3423Z" fill="#95806C"/>
<path d="M99.5562 100.776C106.967 97.6491 114.647 97.62 122.437 98.8575C114.615 97.2469 106.912 97.0103 99.5562 100.776Z" fill="#95806C"/>
<path d="M102.125 102.232C108.068 100.365 114.105 100.595 120.168 101.386C114.091 100.279 108.044 99.8446 102.125 102.232Z" fill="#95806C"/>
<path d="M78.0707 93.8751C75.8625 93.8692 73.6588 93.8775 71.4536 94.1076C69.3271 94.3296 67.2184 94.6365 65.1168 95.0135C62.5792 95.4686 60.0917 96.1483 57.5749 96.696C56.3733 96.9575 55.1898 97.303 53.9983 97.6105C54.1506 97.7055 54.2847 97.7165 54.4094 97.6868C58.6058 96.6832 62.8193 95.7799 67.0952 95.1593C70.4705 94.6695 73.8497 94.4632 77.2532 94.5573C77.2959 94.5487 77.339 94.5412 77.382 94.535C77.7845 94.248 78.3084 94.2471 78.7145 93.9687C78.5165 93.8259 78.2874 93.8757 78.0707 93.8751Z" fill="#95806C"/>
<path d="M76.788 99.2448C74.2495 99.059 71.7077 99.1822 69.1763 99.36C67.0507 99.509 64.9298 99.7625 62.822 100.106C61.4304 100.332 60.0276 100.492 58.6606 100.867C64.8651 100.079 71.0624 99.2113 77.3443 99.7292C77.3603 99.064 77.1585 99.2721 76.788 99.2448Z" fill="#95806C"/>
<path d="M61.2124 102.734C66.5821 102.154 71.9629 101.886 77.3632 102.126L77.3706 101.714C71.956 101.602 66.556 101.72 61.2124 102.734Z" fill="#95806C"/>
<path d="M77.2605 97.4431C77.2543 97.308 77.2481 97.1729 77.2421 97.0376C76.9919 96.9236 76.7256 96.9364 76.46 96.9358C73.8107 96.9272 71.1775 97.17 68.5511 97.4802C67.0183 97.6609 65.4946 97.9201 63.9668 98.1439C68.3905 97.7052 72.7991 97.1139 77.2605 97.4431Z" fill="#95806C"/>
<path d="M84.4204 94.9453C84.4471 95.1751 84.4154 95.3935 84.2898 95.593C84.2984 95.6381 84.3067 95.6835 84.3153 95.7292C86.7025 96.2983 88.6764 97.5993 90.483 99.2037C88.9795 97.0466 86.8595 95.769 84.4204 94.9453Z" fill="#95806C"/>
<path d="M81.9467 102.172C81.0954 101.977 80.2471 101.722 79.3604 101.963C79.1704 101.971 79.0464 102.08 78.9502 102.23C80.2848 102.408 81.619 102.587 82.9536 102.765C82.7414 102.593 82.5291 102.421 82.3169 102.248C82.1747 102.31 82.0699 102.2 81.9467 102.172Z" fill="#95806C"/>
<path d="M126.099 71.5131C124.737 71.915 122.662 72.5559 120.169 73.4461C111.783 76.4418 105.777 78.6556 100.747 83.822C99.522 85.08 97.7968 87.0866 96.1714 89.9988C95.9879 84.6297 95.2948 80.2603 94.6563 77.1577C94.1051 74.4809 93.6824 72.4725 92.6845 69.7885C91.2902 66.0401 89.3234 62.5855 86.9763 59.3391C85.7281 57.6124 84.4366 55.9222 83.127 54.2436C82.8221 53.8527 82.5309 53.6775 82.0272 53.9999C79.8407 55.4004 77.6344 56.77 75.4316 58.1449C73.7369 59.2025 72.037 60.2518 70.3394 61.3047C71.4937 62.368 72.6458 63.4357 73.7696 64.5295C75.3858 66.103 76.9861 67.6947 78.5121 69.3614C79.6766 70.6333 80.8681 71.8845 81.9996 73.184C84.4414 75.9885 86.7843 78.8779 88.9123 81.9311C90.4558 84.1464 91.9712 86.3798 93.1024 88.8495C93.9781 90.7605 94.542 92.7469 94.7668 94.8348C94.7843 94.9969 94.7083 95.2679 94.9452 95.3023C94.9434 95.3056 94.9425 95.3095 94.9407 95.313C94.9404 96.6996 94.9404 98.0858 94.9404 99.5759C96.1794 97.8714 97.3421 96.2721 98.5042 94.6728C98.793 94.6971 98.9026 94.3961 99.0435 94.2118C101.126 91.4868 103.337 88.8655 105.658 86.3471C108.386 83.388 111.367 80.6966 114.728 78.4546L114.718 78.462C115.216 78.0904 115.783 77.8292 116.291 77.4751C119.763 75.22 123.423 73.3125 127.197 71.6176C127.263 71.5879 127.438 71.4894 127.683 71.3647C128.558 70.918 129.31 70.5823 129.869 70.3466C129.042 70.5971 127.72 71.0008 126.099 71.5131Z" fill="#F7F7DF"/>
<path d="M91.6606 93.5884C91.4867 93.2052 91.2706 92.8437 91.0011 92.5163C90.9022 92.4302 90.8055 92.342 90.7093 92.2533C90.6811 92.1796 90.6505 92.1078 90.6101 92.0419C88.8529 89.1709 86.7866 86.5386 84.4915 84.0942C82.9414 82.4432 81.3379 80.8441 79.5961 79.3932C77.1318 77.3397 74.5624 75.4299 71.9256 73.6109C71.2176 73.1235 70.5097 72.6355 69.8017 72.1478C69.802 72.2036 69.7914 72.2502 69.7733 72.2911C69.2737 71.7447 68.7026 71.3095 67.945 71.1641C67.8753 71.2487 67.8207 71.3567 67.7331 71.4149C66.7141 72.0934 65.7419 72.8349 64.7582 73.5634C62.5554 75.1951 60.5524 77.053 58.5499 78.9082C56.5383 80.772 54.6751 82.7899 52.7872 84.7796C52.664 84.9093 52.534 85.0307 52.5367 85.2287C52.6806 85.4299 52.8988 85.4934 53.1211 85.4839C53.7679 85.4572 54.3954 85.616 55.0324 85.6609C57.5861 85.8407 60.1333 86.0833 62.6816 86.3195C65.5371 86.584 68.3876 86.8794 71.2325 87.2442C75.0486 87.7331 78.8344 88.3647 82.5457 89.3962C85.1157 90.1104 87.608 90.9926 89.7419 92.6691C90.2495 93.0681 90.6808 93.5415 91.1391 93.9897C91.2926 94.1396 91.4947 94.3783 91.696 94.245C91.9524 94.0746 91.7562 93.7992 91.6606 93.5884Z" fill="#F7F7DF"/>
<path d="M93.5645 99.9479C93.4942 99.457 93.4523 98.9586 93.2131 98.5086C93.1172 98.375 93.0522 98.2233 92.9804 98.0758C92.4944 95.8534 91.1916 94.1196 89.4644 92.685C87.9523 91.4297 86.1416 90.7095 84.2962 90.0672C80.5109 88.7495 76.5936 88.0466 72.6424 87.4981C70.572 87.2102 68.4969 86.959 66.4104 86.797C64.2613 86.6301 62.1182 86.3876 59.9727 86.1781C59.1314 86.1534 58.3006 85.9554 57.4537 86.0279C57.4499 86.0326 57.4463 86.0377 57.4424 86.0418C57.4312 86.0145 57.4184 85.986 57.3997 85.9557C56.8408 85.745 56.245 85.761 55.6656 85.677C55.3702 85.634 55.0615 85.5384 54.7941 85.7747C54.7896 85.9145 54.7291 86.0258 54.6317 86.1249C52.783 88.0027 51.0632 89.9974 49.3116 91.9643C47.705 93.7687 46.0777 95.5533 44.5645 97.4385C47.0819 97.1568 49.5716 96.6928 52.0522 96.2025C56.3718 95.3485 60.6705 94.3903 64.9847 93.5084C67.9436 92.9034 70.9345 92.4787 73.9482 92.3044C76.5289 92.1551 79.1123 92.2777 81.6725 92.682C84.2306 93.086 86.648 93.8551 88.7537 95.4328C90.5157 96.7531 91.9557 98.3269 92.7678 100.41C92.8871 100.71 93.113 100.651 93.3419 100.58C93.5723 100.424 93.5999 100.195 93.5645 99.9479Z" fill="#F7F7DF"/>
<path d="M94.6756 97.1928C94.6296 96.9996 94.5717 96.8096 94.5272 96.6161C94.5583 94.0858 94.0303 91.6595 93.0418 89.3282C91.5707 85.8591 89.3177 82.8744 87.0941 79.8787C85.2799 77.4343 83.3846 75.0501 81.3768 72.7598C79.6163 70.752 77.8519 68.7463 75.926 66.8913C75.2528 66.1816 74.5894 65.4624 73.8381 64.8322C73.847 64.8144 73.858 64.7993 73.8657 64.78C73.3753 63.9613 72.6169 63.4273 71.8603 62.8918C71.8508 62.8853 71.8211 62.9078 71.8009 62.9164C71.7169 63.0779 71.5934 63.1955 71.4319 63.2824C68.7961 64.7063 66.3724 66.4514 63.9624 68.2173C64.1512 68.507 64.4534 68.6578 64.7318 68.8347C69.3036 71.7401 73.8333 74.7055 78.1422 77.9974C80.9654 80.1539 83.5265 82.5847 85.8492 85.2624C88.1716 87.9399 90.2726 90.7868 91.9503 93.9196C92.9756 95.8339 93.8842 97.8016 93.9721 100.035C93.9813 100.261 93.9552 100.555 94.3241 100.556C94.5738 100.418 94.5625 100.16 94.6052 99.9296C94.7735 99.0216 94.7427 98.1076 94.6756 97.1928Z" fill="#F7F7DF"/>
<path d="M140.713 96.7947C138.68 93.7946 136.611 90.8164 134.645 87.7727C134.043 86.8415 133.298 86.3862 132.269 86.1315C129.645 85.482 127.005 84.9486 124.333 84.5315C122.793 84.2911 121.25 84.0008 119.704 83.9408C117.508 83.8556 115.3 83.7912 113.104 84.1608C110.764 84.5553 108.515 85.1953 106.413 86.3072C106.244 86.3965 105.279 87.0849 105.242 87.098C105.083 87.2496 104.909 87.388 104.767 87.5545C103.555 88.9867 102.321 90.4014 101.149 91.866C99.703 93.6734 98.2844 95.5043 97.0178 97.4462L97.0172 97.4468C96.1671 98.4801 95.4321 99.5911 94.7871 100.762C94.8628 100.853 94.9533 100.867 95.0566 100.815C95.2466 100.548 95.4096 100.255 95.6304 100.017C97.2767 98.2388 99.1823 96.8279 101.395 95.8071C104.534 94.3591 107.844 93.6948 111.265 93.4677C112.196 93.3641 113.127 93.3656 114.057 93.4671C115.445 93.4562 116.822 93.6283 118.204 93.7132C120.998 93.8848 123.713 94.5298 126.461 94.978C127.781 95.1932 129.059 95.6278 130.401 95.7308H130.402C130.958 95.9543 131.558 95.9647 132.137 96.0742C135.087 96.6317 138.049 97.1138 141.035 97.4388C140.997 97.1894 140.85 96.9974 140.713 96.7947Z" fill="#F6F7DF"/>
<path d="M82.3168 102.249C81.55 102.411 80.8308 102.046 80.0772 102.046C79.8382 102.047 79.5995 101.993 79.3606 101.964C79.6919 101.596 80.1742 101.452 80.5559 101.159C80.7996 100.971 80.9659 101.171 81.1324 101.301C81.5313 101.611 81.9226 101.932 82.3168 102.249Z" fill="#CEB096"/>
<path d="M63.9629 68.2188C74.6694 74.1204 95.397 89.977 93.6712 100.672C92.941 99.8019 93.1099 97.3302 91.9496 95.9131C85.931 85.6584 59.2622 87.2874 52.4368 85.5028C65.6694 85.9154 86.7143 87.7638 91.675 94.2132C84.5014 80.8526 72.9792 75.4704 63.9629 68.2188Z" fill="#AD967F"/>
<path d="M98.5092 94.6665C103.142 88.7606 108.182 82.5179 114.727 78.4554C101.933 87.2693 92.9685 105.901 94.466 99.5387C95.8235 84.8671 77.9537 69.6754 71.4136 62.5588C70.9763 62.326 69.6554 60.6845 71.0152 61.6991C82.9032 73.197 96.2322 87.1221 95.0956 98.59C94.6228 100.804 97.2919 95.1755 98.5092 94.6665Z" fill="#93806C"/>
<path d="M123.894 26.2499C124.067 25.7028 124.371 25.2774 124.891 24.9859C128.496 22.9639 132.098 20.9349 135.688 18.8862C136.06 18.6736 136.262 18.7057 136.442 19.0667C136.769 19.3089 136.978 19.6434 137.173 19.991C140.005 25.0257 142.837 30.06 145.689 35.0828C145.883 35.4238 146.139 35.7512 146.086 36.1855C145.976 36.5435 145.652 36.672 145.369 36.8341C142.107 38.6997 138.824 40.5294 135.55 42.3733C134.793 42.7993 134.092 43.2193 133.967 44.1772C133.955 44.2648 133.879 44.3274 133.801 44.3743C133.379 44.3033 133.29 43.9175 133.122 43.6257C131.229 40.3365 129.396 37.0128 127.51 33.7197C126.467 31.9004 125.44 30.0731 124.418 28.2422C124.204 27.8587 123.975 27.4767 123.872 27.0403C123.764 26.7738 123.761 26.5099 123.894 26.2499Z" fill="#F6F7DF"/>
<path d="M121.034 27.21C121.334 26.966 121.669 26.7834 122.033 26.6543C122.195 26.7071 122.268 26.8437 122.343 26.9811C124.185 30.3629 126.121 33.6914 128.001 37.0515C129.178 39.1564 130.405 41.233 131.554 43.3539C131.726 43.6703 131.889 43.9847 131.734 44.3584C131.595 44.6315 131.336 44.7651 131.086 44.9069C127.852 46.742 124.606 48.5559 121.363 50.3755C121.03 50.5625 120.7 50.86 120.26 50.6356C119.746 50.1556 119.501 49.4996 119.167 48.9086C116.467 44.1337 113.763 39.3618 111.079 34.5786C110.896 34.2515 110.688 33.9321 110.703 33.5331C110.655 33.3304 110.405 33.152 110.777 32.9463C113.668 31.3502 116.546 29.7307 119.429 28.1183C119.651 28.1575 119.753 28.3338 119.85 28.5039C120.484 29.6087 121.116 30.7141 121.741 31.8237C121.86 32.0344 121.964 32.2547 121.915 32.5105C121.787 32.8267 121.487 32.9427 121.222 33.0953C119.247 34.2313 117.255 35.3352 115.286 36.4807C117.224 35.4246 119.141 34.329 121.063 33.2428C121.384 33.0612 121.685 32.8077 122.092 32.8204C122.473 33.0261 122.634 33.3518 122.615 33.7762C122.243 34.3735 121.588 34.5902 121.021 34.8992C119.337 35.8188 117.696 36.8138 116.014 37.7363C117.775 36.7796 119.528 35.8069 121.269 34.8131C121.76 34.5326 122.224 34.1785 122.804 34.071C123.196 34.266 123.353 34.594 123.343 35.0173C123.176 35.4234 122.786 35.5733 122.447 35.7668C120.64 36.7977 118.831 37.8239 117.01 38.8293C116.933 38.8714 116.853 38.9082 116.781 39.0246C118.708 37.9486 120.583 36.8598 122.484 35.817C122.826 35.6291 123.138 35.345 123.577 35.4017C123.921 35.63 124.098 35.9455 124.082 36.3629C123.827 36.7862 123.371 36.9447 122.973 37.1649C121.296 38.0952 119.644 39.0712 117.951 39.9739C117.802 40.0534 117.643 40.1235 117.447 40.3396C119.483 39.2021 121.396 38.0738 123.353 37.0221C123.64 36.8681 123.905 36.6463 124.263 36.6636C124.645 36.8657 124.809 37.1866 124.78 37.6122C124.578 38.0207 124.166 38.1676 123.807 38.3721C121.932 39.441 120.047 40.4915 118.182 41.5785C120.201 40.4906 122.182 39.3354 124.183 38.2151C124.431 38.0765 124.659 37.8827 124.974 37.9198C125.33 38.1341 125.542 38.4318 125.518 38.8643C125.413 39.1617 125.148 39.2894 124.901 39.4321C122.896 40.5904 120.855 41.6848 118.863 42.8665C120.706 41.8938 122.504 40.84 124.323 39.8246C124.759 39.5811 125.153 39.2255 125.699 39.2282C126.004 39.4761 126.403 39.6188 126.581 40.011C126.488 40.2615 126.263 40.3657 126.051 40.4835C123.932 41.6667 121.814 42.8511 119.715 44.0714C122.265 42.6688 124.784 41.2096 127.352 39.8388C127.546 39.7673 127.743 39.7913 127.941 39.8228C127.073 38.4098 126.287 36.9503 125.474 35.5068C124.089 33.046 122.697 30.5894 121.309 28.1308C121.15 27.8496 120.924 27.5766 121.034 27.21Z" fill="#F6F7DF"/>
<path d="M110.703 33.5316C112.781 37.1951 114.86 40.858 116.937 44.5225C118.068 46.5187 119.193 48.5179 120.321 50.5158C120.629 50.9477 120.977 50.742 121.31 50.5654C122.442 49.9631 123.548 49.3131 124.665 48.6838C126.746 47.5122 128.823 46.3346 130.901 45.1592C131.568 44.7825 132.237 44.6284 132.997 44.8312C133.645 45.0042 134.431 44.5391 134.59 43.8819C134.753 43.2027 135.148 42.7667 135.741 42.4304C138.913 40.6298 142.1 38.8541 145.266 37.0416C145.618 36.8401 146.071 36.705 146.017 36.152C143.453 31.5947 140.886 27.0383 138.325 22.4789C137.689 21.3462 137.069 20.2041 136.442 19.0663C136.995 18.6591 137.329 18.8039 137.664 19.4047C140.759 24.9444 143.88 30.4691 146.992 35.9992C147.394 36.7139 147.371 36.7997 146.629 37.2183C143.355 39.0628 140.084 40.9097 136.8 42.734C136.308 43.0074 136.024 43.2669 136.135 43.9027C136.24 44.5044 135.972 45.0274 135.404 45.3477C134.827 45.6739 134.263 46.0256 133.674 46.3287C133.127 46.6104 132.269 46.4759 131.903 46.0013C131.652 45.6754 131.475 45.741 131.196 45.9004C129.218 47.0283 127.236 48.1501 125.252 49.2671C123.807 50.0804 122.342 50.8593 120.916 51.7029C120.331 52.0487 120.042 51.935 119.726 51.3595C118.543 49.2092 117.316 47.0833 116.108 44.9469C114.215 41.5986 112.34 38.2406 110.42 34.9083C110.065 34.2915 110.049 33.8768 110.703 33.5316Z" fill="#646CCE"/>
<path d="M131.615 44.3204C131.677 44.0426 131.576 43.8173 131.44 43.5727C129.887 40.7816 128.264 38.0305 126.74 35.2227C125.404 32.7632 123.961 30.3621 122.567 27.9343C122.335 27.5306 122.14 27.1103 122.033 26.6537C122.444 26.3557 122.885 26.4688 123.324 26.5611C123.683 26.4041 123.79 26.7445 123.992 26.8986C124.811 28.5318 125.746 30.1 126.637 31.6928C127.604 33.4207 128.593 35.1367 129.549 36.8705C130.811 39.1588 132.117 41.423 133.407 43.6965C133.536 43.9253 133.679 44.1468 133.816 44.3718C133.9 44.6158 133.688 44.5659 133.615 44.5285C133.022 44.2201 132.412 44.2394 131.787 44.3949C131.727 44.4098 131.664 44.3644 131.615 44.3204Z" fill="#E0E3CC"/>
<path d="M123.991 26.898C123.686 26.9487 123.564 26.6371 123.323 26.5605C123.445 26.3307 123.699 26.345 123.893 26.25C123.926 26.4658 123.959 26.6819 123.991 26.898Z" fill="#646CCE"/>
<path d="M131.615 44.3197C132.347 43.9496 133.061 43.9057 133.742 44.4412C133.752 44.4489 133.785 44.4423 133.795 44.4311C133.809 44.4168 133.81 44.3913 133.816 44.3708C133.767 43.4453 134.207 42.8691 135.013 42.4221C138.534 40.4704 142.032 38.476 145.536 36.4937C145.706 36.3972 145.857 36.2669 146.018 36.1523C146.443 36.6047 146.146 36.8107 145.748 37.0336C142.397 38.9171 139.054 40.8174 135.699 42.6949C135.168 42.992 134.876 43.4016 134.785 43.9888C134.681 44.6656 133.577 45.3011 132.952 45.0541C132.38 44.8285 131.839 44.8766 131.299 45.1818C127.971 47.0625 124.629 48.9189 121.315 50.824C120.77 51.1374 120.501 51.1134 120.321 50.5162C120.535 50.6877 120.701 50.5108 120.859 50.4221C124.395 48.4339 127.928 46.4394 131.461 44.4447C131.518 44.4127 131.564 44.3619 131.615 44.3197Z" fill="#E0E3CC"/>
<path d="M120.035 30.1691C120.182 30.3921 120.43 30.6176 119.97 30.8717C117.939 31.9938 115.917 33.1321 113.897 34.2729C113.639 34.4183 113.474 34.4343 113.307 34.1411C113.13 33.833 113.282 33.6914 113.514 33.5602C115.514 32.428 117.514 31.2962 119.516 30.1688C119.666 30.0848 119.832 29.9833 120.035 30.1691Z" fill="#E0E3CC"/>
<path d="M129.899 41.5784C130.097 41.9135 129.832 41.9954 129.623 42.1136C128.432 42.7883 127.244 43.4677 126.052 44.1406C124.417 45.0626 122.783 45.9843 121.142 46.8941C120.983 46.9822 120.776 47.2764 120.594 46.9439C120.419 46.6251 120.771 46.5782 120.926 46.4895C123.708 44.9053 126.496 43.333 129.287 41.7642C129.47 41.6612 129.654 41.5137 129.899 41.5784Z" fill="#E0E3CC"/>
<path d="M119.902 45.3997C120.635 44.9729 121.315 44.5635 122.007 44.1756C124.237 42.925 126.472 41.6813 128.706 40.4375C128.861 40.3512 129.026 40.1119 129.203 40.3844C129.381 40.6569 129.104 40.729 128.952 40.8151C126.459 42.2295 123.963 43.6368 121.466 45.0453C121.063 45.2727 120.659 45.5001 120.252 45.72C120.141 45.78 120.009 45.864 119.901 45.7144C119.813 45.5912 119.82 45.4671 119.902 45.3997Z" fill="#E0E3CC"/>
<path d="M130.641 42.8746C130.849 43.2423 130.525 43.2993 130.338 43.4062C129.224 44.0411 128.105 44.6657 126.987 45.2929C125.311 46.2341 123.635 47.1772 121.955 48.1131C121.779 48.2111 121.546 48.4732 121.386 48.2131C121.198 47.9083 121.559 47.816 121.749 47.7082C124.538 46.13 127.33 44.557 130.128 42.9942C130.273 42.9135 130.428 42.6885 130.641 42.8746Z" fill="#E0E3CC"/>
<path d="M126.564 39.9327C126.845 39.8608 127.118 39.914 127.39 39.9831C124.835 41.4311 122.282 42.8808 119.724 44.3231C119.567 44.4113 119.343 44.6131 119.204 44.37C119.044 44.0889 119.347 44.0112 119.527 43.909C121.872 42.5822 124.218 41.2577 126.564 39.9327Z" fill="#E0E3CC"/>
<path d="M125.424 38.8652C125.517 39.0142 125.609 39.1633 125.701 39.3123C123.599 40.4845 121.497 41.657 119.395 42.8286C119.221 42.925 119.045 43.0168 118.869 43.1085C118.723 43.1842 118.574 43.37 118.424 43.1242C118.28 42.8864 118.486 42.8188 118.636 42.7342C119.538 42.2221 120.443 41.7145 121.344 41.2007C122.706 40.4242 124.065 39.6438 125.424 38.8652Z" fill="#E0E3CC"/>
<path d="M121.844 32.5156C121.918 32.6447 121.993 32.7736 122.067 32.9027C119.824 34.1773 117.58 35.451 115.338 36.7268C115.173 36.8206 115.005 37.0254 114.845 36.7485C114.691 36.4822 114.932 36.4128 115.101 36.3175C117.348 35.0503 119.596 33.7828 121.844 32.5156Z" fill="#E0E3CC"/>
<path d="M124.008 36.3516C124.086 36.4795 124.163 36.6074 124.241 36.7357C122.01 37.9945 119.78 39.2531 117.55 40.512C117.379 40.6085 117.175 40.7738 117.031 40.5384C116.87 40.2751 117.158 40.2089 117.313 40.1214C119.543 38.8613 121.776 37.6069 124.008 36.3516Z" fill="#E0E3CC"/>
<path d="M122.549 33.7676C122.621 33.8976 122.693 34.0276 122.765 34.1576C120.969 35.1894 119.175 36.2224 117.378 37.2506C116.938 37.5023 116.491 37.7419 116.044 37.9802C115.887 38.0643 115.713 38.2961 115.548 38.0129C115.388 37.736 115.675 37.6692 115.822 37.5849C117.18 36.8066 118.547 36.0431 119.909 35.2722C120.79 34.7732 121.669 34.2692 122.549 33.7676Z" fill="#E0E3CC"/>
<path d="M123.255 35.0234C123.347 35.1745 123.439 35.3256 123.53 35.4764C121.32 36.7127 119.111 37.9502 116.899 39.1839C116.721 39.2827 116.497 39.5297 116.335 39.2625C116.173 38.9975 116.484 38.9022 116.663 38.8001C118.767 37.5997 120.874 36.4034 122.98 35.2051C123.076 35.1511 123.163 35.0843 123.255 35.0234Z" fill="#E0E3CC"/>
<path d="M124.718 37.6113C124.792 37.7387 124.867 37.8657 124.941 37.9931C122.682 39.2816 120.422 40.5699 118.163 41.8587C118.014 41.9439 117.852 42.1063 117.723 41.859C117.553 41.5331 117.891 41.4844 118.045 41.396C119.919 40.3223 121.804 39.2659 123.685 38.2041C124.031 38.0088 124.374 37.809 124.718 37.6113Z" fill="#E0E3CC"/>
<path d="M114.129 35.1984C114.374 35.0503 114.615 34.8954 114.864 34.755C116.668 33.7389 118.472 32.7208 120.285 31.721C120.436 31.6382 120.654 31.3176 120.827 31.6427C120.959 31.8917 120.69 32.019 120.498 32.1271C118.519 33.2384 116.541 34.3519 114.558 35.4537C114.431 35.5244 114.283 35.7461 114.103 35.5309C114.016 35.427 113.969 35.2946 114.129 35.1984Z" fill="#E0E3CC"/>
<path d="M121.033 27.207C123.427 31.4402 125.819 35.6731 128.219 39.9184C128.061 39.9967 127.568 40.2161 126.934 40.0991C126.25 39.9724 125.853 39.5369 125.743 39.4081C124.989 38.2338 124.237 37.0103 123.49 35.7366C121.952 33.114 120.607 30.5616 119.428 28.1153C119.93 27.7541 120.471 27.4605 121.033 27.207Z" fill="#FD4C00"/>
<path d="M150.695 65.1355C149.956 66.056 149.286 67.0317 148.597 67.9913C147.993 68.8317 147.915 68.8453 147.127 68.2181C145.504 66.9266 143.899 65.6122 142.282 64.3139C141.904 64.0105 141.551 63.6567 141.061 63.5252C141.047 63.25 140.781 63.1167 140.602 62.9496C140.067 62.4491 139.469 62.0211 138.904 61.5542C138.474 61.1977 138.412 60.8756 138.795 60.4396C139.434 59.7117 139.984 58.9118 140.601 58.1646C141.815 56.692 141.807 56.7021 143.313 57.9141C143.688 58.216 143.989 58.6921 144.565 58.6467C144.602 59.0905 144.967 59.3009 145.268 59.5452C147.021 60.9682 148.755 62.4144 150.512 63.8315C151.019 64.2396 151.133 64.5905 150.695 65.1355ZM159.527 55.8241C156.988 53.7486 154.455 51.6663 151.921 49.5861C150.655 48.4905 149.371 47.4192 148.02 46.4305C147.592 46.2369 147.482 46.6356 147.314 46.8454C145.577 49.0138 143.854 51.1932 142.13 53.3716C139.642 56.5157 137.194 59.6921 134.663 62.8027C134.419 63.1031 134.134 63.3981 134.174 63.8389C134.208 63.9669 134.262 64.0918 134.36 64.1776C135.417 65.1067 136.507 65.9963 137.63 66.8447C137.775 66.9533 137.939 67.0257 138.119 66.9759C138.193 67.3436 138.464 67.5719 138.736 67.7928C141.177 69.7762 143.622 71.7549 146.08 73.7164C146.282 73.8773 146.468 74.083 146.77 74.0197C151.067 68.2855 155.362 62.5501 159.667 56.8218C159.978 56.4068 159.897 56.126 159.527 55.8241Z" fill="#646CCE"/>
<path d="M147.221 45.779C147.11 45.6686 147.006 45.549 146.886 45.4498C145.448 44.2661 144.787 44.3361 143.637 45.7921C142.079 47.7657 140.52 49.7391 138.964 51.7154C136.258 55.1536 133.556 58.594 130.851 62.0337C130.845 62.1901 130.95 62.2961 131.074 62.2943C131.856 62.283 132.472 62.7321 133.144 63.0209C133.198 63.0251 133.245 63.0203 133.293 63.0171C133.586 63.3204 133.983 63.5033 134.268 63.815C135.897 61.7374 137.524 59.6584 139.155 57.5826C140.413 55.9815 141.671 54.3804 142.939 52.7867C144.628 50.664 146.326 48.5488 148.02 46.4303C147.799 46.1569 147.536 45.9369 147.221 45.779Z" fill="#32449F"/>
<path d="M132.08 63.0804C131.691 62.7657 131.295 62.7809 130.992 63.1282C130.926 63.1371 130.859 63.1495 130.789 63.1691C129.68 63.9005 129.606 64.7186 130.576 65.5708C131.344 66.2467 132.169 66.8546 132.962 67.5014C136.357 70.27 139.753 73.0386 143.163 75.7887C143.495 76.0562 143.8 76.4436 144.322 76.3266C144.695 75.8342 145.069 75.342 145.442 74.8498C145.592 74.6738 145.742 74.4975 145.891 74.3218C141.29 70.5719 136.692 66.8169 132.08 63.0804Z" fill="#F6F7DF"/>
<path d="M141.042 63.6994C140.183 62.9835 139.335 62.2547 138.461 61.5578C138.082 61.255 137.993 60.9902 138.321 60.5874C139.309 59.374 140.293 58.1566 141.244 56.9135C141.627 56.4124 141.926 56.4139 142.383 56.8179C143.106 57.4567 143.881 58.0355 144.634 58.6402C146.77 60.4066 148.892 62.1921 151.056 63.9241C151.514 64.2901 151.481 64.5252 151.181 64.9245C150.236 66.1795 149.286 67.433 148.39 68.7228C148.041 69.2241 147.818 69.1235 147.42 68.8008C145.306 67.0848 143.17 65.397 141.042 63.6994Z" fill="#FD4C00"/>
<path d="M134.377 69.4038C133.12 68.1621 129.222 65.8109 129.33 64.4473C129.61 63.0685 130.877 61.3905 132.448 62.3525C134.728 63.8114 136.452 65.6857 138.722 67.399C141.268 69.8811 144.775 71.6838 146.641 74.2182C145.443 75.1544 142.715 71.6497 141.78 71.248C138.759 68.8184 135.889 66.4797 132.877 64.037C132.331 63.6473 131.864 62.9298 131.082 63.1991C128.679 64.6334 131.493 65.7783 132.644 66.9C136.612 70.3495 140.938 73.1881 144.529 76.7807C144.695 78.6143 134.195 69.6098 134.377 69.4038Z" fill="#646CCE"/>
<path d="M75.5724 20.5239C76.0806 21.4341 76.5887 22.3442 77.0969 23.254C77.2177 23.4383 77.2498 23.6431 77.2121 23.8542C77.0548 24.7325 77.4736 25.2882 78.1379 25.8207C79.0471 26.5497 79.9231 26.71 80.9056 26.0401C82.3702 25.9287 83.7606 26.3856 85.1717 26.6406C89.3731 27.3999 93.5754 28.1529 97.7747 28.9238C100.111 29.3527 102.447 29.7757 104.785 30.1943C105.111 30.2527 105.44 30.2984 105.715 30.5056C106.097 30.5891 106.476 30.6903 106.862 30.7508C107.239 30.8099 107.539 30.9598 107.446 31.3795C107.362 31.7568 107.02 31.7423 106.703 31.6856C104.773 31.3403 102.842 30.9969 100.911 30.652C94.7043 29.543 88.4972 28.4376 82.2927 27.3173C81.7721 27.2235 81.3141 27.2016 80.8246 27.4853C78.9438 28.5753 75.5252 26.1392 75.9369 23.9958C76.042 23.4484 75.966 22.9841 75.5783 22.5799C74.7249 21.9509 74.3283 21.0788 74.2277 20.048C70.6645 13.7011 67.101 7.35421 63.5381 1.00699C63.3728 0.712533 63.1674 0.365237 63.5449 0.131925C63.9703 -0.130773 64.1855 0.212961 64.371 0.552837C64.5723 0.920911 64.7979 1.27593 65.0128 1.63658C65.3541 1.79984 65.5572 2.09074 65.7341 2.40924C68.527 7.42871 71.3787 12.4158 74.1342 17.4561C74.3975 18.1682 74.8989 18.7488 75.2289 19.4244C75.3999 19.7747 75.6261 20.1047 75.5724 20.5239Z" fill="#FD4C00"/>
<path d="M74.2277 20.0469C74.678 20.8908 75.128 21.7346 75.578 22.5783C74.6234 23.9191 73.6691 25.2601 72.6693 26.6648C72.2947 26.1325 72.6468 25.3881 72.1953 25.1963C71.788 25.0236 71.214 25.2441 70.479 25.3136C71.8035 23.4527 73.0158 21.7498 74.2277 20.0469Z" fill="#646CCE"/>
<path d="M68.3815 2.69803C68.2343 2.50449 68.0897 2.33025 67.825 2.27326C66.8852 2.07052 65.9496 1.84878 65.0125 1.63477C68.0066 6.99263 71.0002 12.3502 73.9941 17.7078C75.2007 17.787 76.0832 17.1874 76.8505 16.3456C74.58 11.4538 71.6408 6.9766 68.3815 2.69803Z" fill="#F7F7DF"/>
<path d="M105.388 29.9868C104.773 28.5899 103.881 27.6371 102.227 27.4011C100.683 27.1809 99.1856 26.6466 97.6601 26.2829C92.8155 25.1289 87.9729 23.9602 82.9834 23.5892C82.7866 23.5746 82.5426 23.6791 82.293 23.3986C84.6095 23.2208 86.7951 23.4452 88.9744 23.7848C93.8446 24.5444 98.6144 25.7299 103.33 27.1491C103.578 27.2236 103.948 27.508 104.091 27.0517C104.199 26.7098 103.828 26.722 103.616 26.6599C97.6459 24.9068 91.6439 23.3054 85.4101 22.7916C85.2459 22.7779 84.9859 22.9056 84.909 22.5562C85.1931 22.5218 85.459 22.4805 85.7268 22.4576C89.8768 22.102 93.9904 22.5123 98.0908 23.0896C99.9128 23.3461 101.721 23.7008 103.537 24.0009C103.748 24.0359 104.053 24.1986 104.112 23.8097C104.157 23.5046 103.868 23.5221 103.682 23.4589C103.597 23.4301 103.504 23.4256 103.415 23.4084C98.5174 22.4662 93.5953 21.7366 88.5909 21.763C87.4977 21.769 86.4045 21.8281 85.3112 21.8628C85.5196 21.6903 85.7404 21.6209 85.966 21.5775C89.4524 20.9079 92.9802 20.7541 96.5167 20.804C98.7192 20.8352 100.92 20.9794 103.122 21.0581C103.324 21.0655 103.648 21.2468 103.708 20.8634C103.785 20.3807 103.382 20.5371 103.156 20.5107C102.647 20.4511 102.134 20.4175 101.622 20.3911C96.1846 20.1109 90.7537 20.0183 85.3801 21.1145C84.3714 21.3202 83.3865 21.6419 82.1906 21.964C83.922 20.5579 85.5831 19.4213 87.311 18.3753C91.2957 15.9623 95.4805 13.9501 99.7567 12.1171C100.002 12.0121 100.47 11.98 100.282 11.5537C100.12 11.1866 99.8053 11.4911 99.5851 11.5808C97.1516 12.5725 94.771 13.6826 92.4302 14.8735C88.387 16.9306 84.464 19.1821 80.9311 22.2971C81.3001 21.113 81.6786 20.0966 81.9318 19.05C83.3177 13.3241 83.3589 7.50908 83.0202 1.67272C82.9992 1.31118 82.9677 0.949927 82.9371 0.588976C82.9244 0.439965 82.9161 0.265427 82.7109 0.267504C82.5094 0.269879 82.3625 0.368131 82.372 0.599069C82.3797 0.779841 82.4002 0.960317 82.4117 1.14079C82.7175 5.91181 82.7154 10.6745 82.0448 15.42C81.9689 15.9573 81.8709 16.4919 81.7732 17.0256C81.6827 17.5228 81.5788 18.0173 81.4806 18.5127C81.724 12.5725 81.1187 6.72692 80.1712 0.906292C80.1231 0.610645 80.2894 0.0116334 79.7476 0.0935598C79.27 0.165691 79.5983 0.651014 79.6322 0.929445C79.8756 2.93723 80.2021 4.93582 80.406 6.94717C80.8599 11.427 81.2009 15.9134 80.4787 20.4009C80.379 21.0228 80.3143 21.6669 79.9094 22.2887C79.6132 20.9895 79.3849 19.7749 79.0584 18.5875C77.435 12.6859 75.0105 7.09054 72.4755 1.54003C72.3606 1.28832 72.3547 0.71335 71.9023 0.919353C71.4689 1.11615 71.8898 1.49462 71.9786 1.77572C72.0774 2.09007 72.2475 2.38156 72.3838 2.68433C74.4765 7.34078 76.4578 12.0414 77.9836 16.9199C78.3816 18.1927 78.7666 19.4736 78.8212 20.8429C78.5698 20.2454 78.3184 19.6475 78.067 19.05C77.0037 19.1996 76.0654 19.5623 75.5005 20.5576C75.7321 21.6734 76.2836 22.6185 77.0381 23.4556C78.2623 24.1015 79.52 24.697 80.5016 25.7151C80.5488 25.7427 80.5975 25.7632 80.6465 25.7837C80.6512 25.9858 80.8614 26.0781 81.0433 26.1853C85.6155 26.9918 90.1867 27.8021 94.7598 28.6036C98.4102 29.2433 102.063 29.8726 105.715 30.5063C105.606 30.3333 105.497 30.1599 105.388 29.9868Z" fill="#F7F7DF"/>
<path d="M73.9941 17.7098C74.996 17.3596 75.9058 16.8172 76.8509 16.3477C77.4297 17.1699 77.7749 18.0972 78.067 19.0489C77.2436 19.5547 76.3184 19.888 75.5721 20.5241C75.0322 19.5935 74.4204 18.7036 73.9941 17.7098Z" fill="#646CCE"/>
<path d="M80.7097 25.5576C80.8207 25.7669 80.9317 25.9759 81.0431 26.1849C80.1101 26.9504 79.3647 27.0112 78.4532 26.3971C76.8378 25.3083 76.6214 24.8069 77.0966 23.2539C78.4924 23.722 79.721 24.4516 80.7097 25.5576Z" fill="#646CCE"/>
<rect x="55.6929" y="28.793" width="73.582" height="73.4597" rx="36.7299" fill="#EFECFA" fill-opacity="0.5"/>
<path d="M88.9456 83.0021H95.4353V89.7854H88.9456V83.0021ZM77.9556 56.8804C77.9556 52.1845 79.2818 48.4069 81.9343 45.5481C84.5866 42.6893 88.2281 41.2598 92.859 41.2598C97.1421 41.2598 100.572 42.4827 103.148 44.9286C105.724 47.3743 107.012 50.4996 107.012 54.3042C107.012 56.6088 106.54 58.4785 105.594 59.9134C104.648 61.3483 102.74 63.4571 99.8706 66.2399C97.7832 68.2619 96.43 69.974 95.8105 71.3763C95.1907 72.7785 94.8808 74.8493 94.8808 77.5887H89.0762C89.0762 74.4797 89.4457 71.9741 90.1849 70.0717C90.924 68.1693 92.5438 65.9899 95.044 63.5333L97.6529 60.9568C98.4357 60.2177 99.0661 59.4459 99.5443 58.6415C100.414 57.2283 100.849 55.761 100.849 54.2392C100.849 52.1085 100.213 50.2604 98.9409 48.6952C97.6692 47.1297 95.5659 46.3472 92.6308 46.3472C88.9999 46.3472 86.489 47.6951 85.0974 50.391C84.3149 51.8909 83.8691 54.0542 83.7605 56.8804H77.9556Z" fill="#5C3FCB"/>
</g>
<path d="M1.61104 136.5V126.318H5.1707C5.87998 126.318 6.46497 126.441 6.92567 126.686C7.38637 126.928 7.72941 127.254 7.95479 127.665C8.18017 128.073 8.29286 128.526 8.29286 129.023C8.29286 129.46 8.21497 129.821 8.05919 130.107C7.90673 130.392 7.70455 130.617 7.45266 130.783C7.20408 130.948 6.93395 131.071 6.64229 131.151V131.25C6.95384 131.27 7.26705 131.379 7.58192 131.578C7.89679 131.777 8.16028 132.062 8.3724 132.433C8.58452 132.804 8.69058 133.259 8.69058 133.795C8.69058 134.306 8.57458 134.765 8.34257 135.173C8.11056 135.58 7.74432 135.903 7.24385 136.142C6.74338 136.381 6.0921 136.5 5.29001 136.5H1.61104ZM2.84399 135.406H5.29001C6.09541 135.406 6.66715 135.25 7.00521 134.939C7.3466 134.624 7.51729 134.243 7.51729 133.795C7.51729 133.451 7.42946 133.133 7.25379 132.841C7.07813 132.546 6.82789 132.311 6.50308 132.135C6.17827 131.956 5.7938 131.866 5.34967 131.866H2.84399V135.406ZM2.84399 130.793H5.13092C5.50214 130.793 5.83689 130.72 6.13518 130.574C6.43679 130.428 6.67543 130.223 6.85109 129.957C7.03007 129.692 7.11956 129.381 7.11956 129.023C7.11956 128.575 6.96378 128.196 6.65223 127.884C6.34068 127.569 5.84683 127.412 5.1707 127.412H2.84399V130.793ZM13.8291 136.659C13.0933 136.659 12.4586 136.497 11.925 136.172C11.3947 135.844 10.9854 135.386 10.697 134.8C10.412 134.21 10.2695 133.524 10.2695 132.741C10.2695 131.959 10.412 131.27 10.697 130.673C10.9854 130.073 11.3864 129.606 11.9001 129.271C12.4172 128.933 13.0204 128.764 13.7098 128.764C14.1075 128.764 14.5003 128.83 14.8881 128.963C15.2759 129.096 15.6288 129.311 15.947 129.609C16.2652 129.904 16.5187 130.295 16.7077 130.783C16.8966 131.27 16.9911 131.87 16.9911 132.582V133.08H11.1047V132.065H15.7979C15.7979 131.634 15.7117 131.25 15.5393 130.912C15.3703 130.574 15.1284 130.307 14.8135 130.112C14.5019 129.916 14.134 129.818 13.7098 129.818C13.2425 129.818 12.8381 129.934 12.4967 130.166C12.1587 130.395 11.8985 130.693 11.7162 131.061C11.5339 131.429 11.4428 131.823 11.4428 132.244V132.92C11.4428 133.497 11.5422 133.986 11.7411 134.387C11.9432 134.785 12.2233 135.088 12.5812 135.297C12.9392 135.502 13.3552 135.605 13.8291 135.605C14.1374 135.605 14.4158 135.562 14.6643 135.476C14.9162 135.386 15.1333 135.254 15.3156 135.078C15.4979 134.899 15.6388 134.677 15.7382 134.412L16.8717 134.73C16.7524 135.115 16.5519 135.453 16.2702 135.744C15.9884 136.033 15.6404 136.258 15.2261 136.42C14.8118 136.58 14.3462 136.659 13.8291 136.659ZM20.0191 126.318V136.5H18.8459V126.318H20.0191ZM27.0506 133.378V128.864H28.2239V136.5H27.0506V135.207H26.9711C26.7921 135.595 26.5137 135.925 26.1358 136.197C25.758 136.465 25.2807 136.599 24.704 136.599C24.2268 136.599 23.8025 136.495 23.4313 136.286C23.0601 136.074 22.7684 135.756 22.5563 135.332C22.3442 134.904 22.2381 134.366 22.2381 133.716V128.864H23.4114V133.636C23.4114 134.193 23.5672 134.637 23.8787 134.969C24.1936 135.3 24.5947 135.466 25.0819 135.466C25.3735 135.466 25.6702 135.391 25.9718 135.242C26.2767 135.093 26.5319 134.864 26.7374 134.556C26.9462 134.248 27.0506 133.855 27.0506 133.378ZM30.4429 136.5V128.864H31.5764V130.057H31.6758C31.8349 129.649 32.0918 129.333 32.4464 129.107C32.8011 128.879 33.227 128.764 33.7241 128.764C34.2279 128.764 34.6472 128.879 34.9819 129.107C35.32 129.333 35.5835 129.649 35.7724 130.057H35.852C36.0475 129.662 36.3408 129.349 36.7319 129.117C37.123 128.882 37.592 128.764 38.1389 128.764C38.8217 128.764 39.3801 128.978 39.8143 129.406C40.2485 129.83 40.4656 130.491 40.4656 131.389V136.5H39.2923V131.389C39.2923 130.826 39.1382 130.423 38.83 130.181C38.5217 129.939 38.1588 129.818 37.7412 129.818C37.2042 129.818 36.7883 129.981 36.4933 130.305C36.1983 130.627 36.0508 131.035 36.0508 131.528V136.5H34.8577V131.27C34.8577 130.836 34.7168 130.486 34.4351 130.221C34.1533 129.952 33.7904 129.818 33.3463 129.818C33.0414 129.818 32.7563 129.899 32.4912 130.062C32.2293 130.224 32.0172 130.45 31.8548 130.738C31.6957 131.023 31.6162 131.353 31.6162 131.727V136.5H30.4429ZM48.9355 136.679C48.4516 136.679 48.0125 136.588 47.618 136.406C47.2236 136.22 46.9104 135.953 46.6784 135.605C46.4464 135.254 46.3304 134.83 46.3304 134.332C46.3304 133.895 46.4166 133.54 46.5889 133.268C46.7613 132.993 46.9916 132.778 47.28 132.622C47.5683 132.466 47.8865 132.35 48.2345 132.274C48.5858 132.195 48.9388 132.132 49.2935 132.085C49.7575 132.026 50.1337 131.981 50.422 131.951C50.7137 131.918 50.9258 131.863 51.0584 131.787C51.1943 131.711 51.2622 131.578 51.2622 131.389V131.349C51.2622 130.859 51.128 130.478 50.8595 130.206C50.5944 129.934 50.1917 129.798 49.6514 129.798C49.0913 129.798 48.6521 129.921 48.3339 130.166C48.0158 130.411 47.792 130.673 47.6628 130.952L46.5491 130.554C46.748 130.09 47.0132 129.729 47.3446 129.47C47.6794 129.208 48.0439 129.026 48.4384 128.923C48.8361 128.817 49.2272 128.764 49.6116 128.764C49.8569 128.764 50.1386 128.794 50.4568 128.854C50.7783 128.91 51.0882 129.028 51.3865 129.207C51.6881 129.386 51.9384 129.656 52.1372 130.017C52.3361 130.378 52.4355 130.862 52.4355 131.469V136.5H51.2622V135.466H51.2026C51.123 135.632 50.9904 135.809 50.8048 135.998C50.6192 136.187 50.3723 136.348 50.0641 136.48C49.7558 136.613 49.3796 136.679 48.9355 136.679ZM49.1145 135.625C49.5785 135.625 49.9696 135.534 50.2878 135.352C50.6093 135.169 50.8512 134.934 51.0136 134.646C51.1794 134.357 51.2622 134.054 51.2622 133.736V132.662C51.2125 132.722 51.1031 132.776 50.9341 132.826C50.7684 132.872 50.5761 132.914 50.3574 132.95C50.1419 132.983 49.9315 133.013 49.726 133.04C49.5238 133.063 49.3598 133.083 49.2338 133.099C48.9289 133.139 48.6438 133.204 48.3787 133.293C48.1169 133.379 47.9047 133.51 47.7423 133.686C47.5832 133.858 47.5037 134.094 47.5037 134.392C47.5037 134.8 47.6545 135.108 47.9561 135.317C48.261 135.522 48.6472 135.625 49.1145 135.625ZM57.5305 136.659C56.8942 136.659 56.3324 136.498 55.8452 136.177C55.358 135.852 54.9768 135.395 54.7017 134.805C54.4266 134.211 54.2891 133.51 54.2891 132.702C54.2891 131.9 54.4266 131.204 54.7017 130.614C54.9768 130.024 55.3596 129.568 55.8502 129.246C56.3407 128.925 56.9074 128.764 57.5504 128.764C58.0476 128.764 58.4403 128.847 58.7287 129.013C59.0204 129.175 59.2424 129.361 59.3949 129.57C59.5507 129.775 59.6716 129.944 59.7578 130.077H59.8573V126.318H61.0305V136.5H59.897V135.327H59.7578C59.6716 135.466 59.549 135.642 59.3899 135.854C59.2308 136.062 59.0038 136.25 58.7088 136.415C58.4138 136.578 58.0211 136.659 57.5305 136.659ZM57.6896 135.605C58.1603 135.605 58.558 135.482 58.8828 135.237C59.2076 134.989 59.4546 134.646 59.6236 134.208C59.7926 133.767 59.8771 133.259 59.8771 132.682C59.8771 132.112 59.7943 131.613 59.6286 131.185C59.4628 130.754 59.2176 130.42 58.8928 130.181C58.568 129.939 58.1669 129.818 57.6896 129.818C57.1925 129.818 56.7782 129.946 56.4467 130.201C56.1186 130.453 55.8717 130.796 55.706 131.23C55.5436 131.661 55.4624 132.145 55.4624 132.682C55.4624 133.225 55.5452 133.719 55.7109 134.163C55.88 134.604 56.1286 134.955 56.4567 135.217C56.7881 135.476 57.1991 135.605 57.6896 135.605ZM65.6595 136.679C65.1756 136.679 64.7364 136.588 64.342 136.406C63.9476 136.22 63.6344 135.953 63.4024 135.605C63.1704 135.254 63.0544 134.83 63.0544 134.332C63.0544 133.895 63.1406 133.54 63.3129 133.268C63.4853 132.993 63.7156 132.778 64.004 132.622C64.2923 132.466 64.6105 132.35 64.9585 132.274C65.3098 132.195 65.6628 132.132 66.0175 132.085C66.4815 132.026 66.8577 131.981 67.146 131.951C67.4377 131.918 67.6498 131.863 67.7824 131.787C67.9183 131.711 67.9862 131.578 67.9862 131.389V131.349C67.9862 130.859 67.852 130.478 67.5835 130.206C67.3184 129.934 66.9157 129.798 66.3754 129.798C65.8153 129.798 65.3761 129.921 65.0579 130.166C64.7398 130.411 64.516 130.673 64.3868 130.952L63.2731 130.554C63.472 130.09 63.7371 129.729 64.0686 129.47C64.4033 129.208 64.7679 129.026 65.1623 128.923C65.5601 128.817 65.9512 128.764 66.3356 128.764C66.5809 128.764 66.8626 128.794 67.1808 128.854C67.5023 128.91 67.8122 129.028 68.1105 129.207C68.4121 129.386 68.6623 129.656 68.8612 130.017C69.0601 130.378 69.1595 130.862 69.1595 131.469V136.5H67.9862V135.466H67.9265C67.847 135.632 67.7144 135.809 67.5288 135.998C67.3432 136.187 67.0963 136.348 66.788 136.48C66.4798 136.613 66.1036 136.679 65.6595 136.679ZM65.8385 135.625C66.3025 135.625 66.6936 135.534 67.0118 135.352C67.3333 135.169 67.5752 134.934 67.7376 134.646C67.9033 134.357 67.9862 134.054 67.9862 133.736V132.662C67.9365 132.722 67.8271 132.776 67.6581 132.826C67.4924 132.872 67.3001 132.914 67.0814 132.95C66.8659 132.983 66.6555 133.013 66.45 133.04C66.2478 133.063 66.0837 133.083 65.9578 133.099C65.6529 133.139 65.3678 133.204 65.1027 133.293C64.8408 133.379 64.6287 133.51 64.4663 133.686C64.3072 133.858 64.2277 134.094 64.2277 134.392C64.2277 134.8 64.3785 135.108 64.6801 135.317C64.985 135.522 65.3711 135.625 65.8385 135.625ZM75.3785 136.5V128.864H76.512V130.017H76.5916C76.7308 129.639 76.9827 129.333 77.3473 129.097C77.7118 128.862 78.1228 128.744 78.5802 128.744C78.6664 128.744 78.7741 128.746 78.9034 128.749C79.0326 128.753 79.1304 128.758 79.1967 128.764V129.957C79.1569 129.947 79.0658 129.933 78.9233 129.913C78.784 129.889 78.6366 129.878 78.4808 129.878C78.1096 129.878 77.7781 129.956 77.4865 130.112C77.1981 130.264 76.9694 130.476 76.8004 130.748C76.6347 131.016 76.5518 131.323 76.5518 131.668V136.5H75.3785ZM80.6575 136.5V128.864H81.8308V136.5H80.6575ZM81.2541 127.591C81.0254 127.591 80.8282 127.513 80.6625 127.357C80.5001 127.201 80.4189 127.014 80.4189 126.795C80.4189 126.577 80.5001 126.389 80.6625 126.234C80.8282 126.078 81.0254 126 81.2541 126C81.4828 126 81.6783 126.078 81.8407 126.234C82.0064 126.389 82.0893 126.577 82.0893 126.795C82.0893 127.014 82.0064 127.201 81.8407 127.357C81.6783 127.513 81.4828 127.591 81.2541 127.591ZM85.7799 136.5L83.4532 128.864H84.6861L86.3367 134.71H86.4162L88.0469 128.864H89.2998L90.9106 134.69H90.9901L92.6407 128.864H93.8736L91.5469 136.5H90.3935L88.7231 130.634H88.6037L86.9333 136.5H85.7799ZM97.7419 136.679C97.258 136.679 96.8189 136.588 96.4244 136.406C96.03 136.22 95.7168 135.953 95.4848 135.605C95.2528 135.254 95.1368 134.83 95.1368 134.332C95.1368 133.895 95.223 133.54 95.3953 133.268C95.5677 132.993 95.798 132.778 96.0864 132.622C96.3747 132.466 96.6929 132.35 97.0409 132.274C97.3923 132.195 97.7452 132.132 98.0999 132.085C98.5639 132.026 98.9401 131.981 99.2284 131.951C99.5201 131.918 99.7322 131.863 99.8648 131.787C100.001 131.711 100.069 131.578 100.069 131.389V131.349C100.069 130.859 99.9344 130.478 99.6659 130.206C99.4008 129.934 98.9981 129.798 98.4578 129.798C97.8977 129.798 97.4585 129.921 97.1404 130.166C96.8222 130.411 96.5985 130.673 96.4692 130.952L95.3556 130.554C95.5544 130.09 95.8196 129.729 96.151 129.47C96.4858 129.208 96.8503 129.026 97.2448 128.923C97.6425 128.817 98.0336 128.764 98.4181 128.764C98.6633 128.764 98.945 128.794 99.2632 128.854C99.5847 128.91 99.8946 129.028 100.193 129.207C100.495 129.386 100.745 129.656 100.944 130.017C101.142 130.378 101.242 130.862 101.242 131.469V136.5H100.069V135.466H100.009C99.9294 135.632 99.7968 135.809 99.6112 135.998C99.4256 136.187 99.1787 136.348 98.8705 136.48C98.5622 136.613 98.1861 136.679 97.7419 136.679ZM97.9209 135.625C98.3849 135.625 98.776 135.534 99.0942 135.352C99.4157 135.169 99.6576 134.934 99.82 134.646C99.9858 134.357 100.069 134.054 100.069 133.736V132.662C100.019 132.722 99.9095 132.776 99.7405 132.826C99.5748 132.872 99.3825 132.914 99.1638 132.95C98.9484 132.983 98.7379 133.013 98.5324 133.04C98.3302 133.063 98.1662 133.083 98.0402 133.099C97.7353 133.139 97.4503 133.204 97.1851 133.293C96.9233 133.379 96.7111 133.51 96.5487 133.686C96.3896 133.858 96.3101 134.094 96.3101 134.392C96.3101 134.8 96.4609 135.108 96.7625 135.317C97.0674 135.522 97.4536 135.625 97.9209 135.625ZM103.936 139.364C103.737 139.364 103.559 139.347 103.404 139.314C103.248 139.284 103.14 139.254 103.081 139.224L103.379 138.19C103.664 138.263 103.916 138.29 104.135 138.27C104.353 138.25 104.547 138.152 104.716 137.977C104.889 137.804 105.046 137.524 105.189 137.136L105.407 136.54L102.583 128.864H103.856L105.964 134.949H106.044L108.152 128.864H109.424L106.183 137.614C106.037 138.008 105.856 138.335 105.641 138.593C105.425 138.855 105.175 139.049 104.89 139.175C104.609 139.301 104.29 139.364 103.936 139.364ZM113.058 136.679C112.574 136.679 112.135 136.588 111.74 136.406C111.346 136.22 111.033 135.953 110.801 135.605C110.569 135.254 110.453 134.83 110.453 134.332C110.453 133.895 110.539 133.54 110.711 133.268C110.883 132.993 111.114 132.778 111.402 132.622C111.691 132.466 112.009 132.35 112.357 132.274C112.708 132.195 113.061 132.132 113.416 132.085C113.88 132.026 114.256 131.981 114.544 131.951C114.836 131.918 115.048 131.863 115.181 131.787C115.316 131.711 115.384 131.578 115.384 131.389V131.349C115.384 130.859 115.25 130.478 114.982 130.206C114.717 129.934 114.314 129.798 113.774 129.798C113.213 129.798 112.774 129.921 112.456 130.166C112.138 130.411 111.914 130.673 111.785 130.952L110.671 130.554C110.87 130.09 111.135 129.729 111.467 129.47C111.802 129.208 112.166 129.026 112.561 128.923C112.958 128.817 113.349 128.764 113.734 128.764C113.979 128.764 114.261 128.794 114.579 128.854C114.901 128.91 115.21 129.028 115.509 129.207C115.81 129.386 116.061 129.656 116.259 130.017C116.458 130.378 116.558 130.862 116.558 131.469V136.5H115.384V135.466H115.325C115.245 135.632 115.113 135.809 114.927 135.998C114.741 136.187 114.494 136.348 114.186 136.48C113.878 136.613 113.502 136.679 113.058 136.679ZM113.237 135.625C113.701 135.625 114.092 135.534 114.41 135.352C114.731 135.169 114.973 134.934 115.136 134.646C115.302 134.357 115.384 134.054 115.384 133.736V132.662C115.335 132.722 115.225 132.776 115.056 132.826C114.891 132.872 114.698 132.914 114.48 132.95C114.264 132.983 114.054 133.013 113.848 133.04C113.646 133.063 113.482 133.083 113.356 133.099C113.051 133.139 112.766 133.204 112.501 133.293C112.239 133.379 112.027 133.51 111.865 133.686C111.705 133.858 111.626 134.094 111.626 134.392C111.626 134.8 111.777 135.108 112.078 135.317C112.383 135.522 112.769 135.625 113.237 135.625ZM122.09 128.864V129.858H118.133V128.864H122.09ZM119.286 127.034H120.46V134.312C120.46 134.644 120.508 134.893 120.604 135.058C120.703 135.221 120.829 135.33 120.982 135.386C121.137 135.439 121.301 135.466 121.474 135.466C121.603 135.466 121.709 135.459 121.792 135.446C121.875 135.429 121.941 135.416 121.991 135.406L122.229 136.46C122.15 136.49 122.039 136.52 121.896 136.55C121.754 136.583 121.573 136.599 121.354 136.599C121.023 136.599 120.698 136.528 120.38 136.386C120.065 136.243 119.803 136.026 119.594 135.734C119.389 135.443 119.286 135.075 119.286 134.631V127.034ZM131.134 136.659C130.399 136.659 129.764 136.497 129.23 136.172C128.7 135.844 128.291 135.386 128.002 134.8C127.717 134.21 127.575 133.524 127.575 132.741C127.575 131.959 127.717 131.27 128.002 130.673C128.291 130.073 128.692 129.606 129.205 129.271C129.722 128.933 130.326 128.764 131.015 128.764C131.413 128.764 131.806 128.83 132.193 128.963C132.581 129.096 132.934 129.311 133.252 129.609C133.57 129.904 133.824 130.295 134.013 130.783C134.202 131.27 134.296 131.87 134.296 132.582V133.08H128.41V132.065H133.103C133.103 131.634 133.017 131.25 132.845 130.912C132.676 130.574 132.434 130.307 132.119 130.112C131.807 129.916 131.439 129.818 131.015 129.818C130.548 129.818 130.143 129.934 129.802 130.166C129.464 130.395 129.204 130.693 129.021 131.061C128.839 131.429 128.748 131.823 128.748 132.244V132.92C128.748 133.497 128.847 133.986 129.046 134.387C129.248 134.785 129.529 135.088 129.886 135.297C130.244 135.502 130.66 135.605 131.134 135.605C131.443 135.605 131.721 135.562 131.97 135.476C132.221 135.386 132.439 135.254 132.621 135.078C132.803 134.899 132.944 134.677 133.043 134.412L134.177 134.73C134.058 135.115 133.857 135.453 133.575 135.744C133.294 136.033 132.946 136.258 132.531 136.42C132.117 136.58 131.651 136.659 131.134 136.659ZM142.163 128.864L139.339 136.5H138.146L135.322 128.864H136.595L138.703 134.949H138.782L140.89 128.864H142.163ZM145.796 136.679C145.312 136.679 144.873 136.588 144.479 136.406C144.084 136.22 143.771 135.953 143.539 135.605C143.307 135.254 143.191 134.83 143.191 134.332C143.191 133.895 143.277 133.54 143.45 133.268C143.622 132.993 143.852 132.778 144.141 132.622C144.429 132.466 144.747 132.35 145.095 132.274C145.447 132.195 145.8 132.132 146.154 132.085C146.618 132.026 146.995 131.981 147.283 131.951C147.575 131.918 147.787 131.863 147.919 131.787C148.055 131.711 148.123 131.578 148.123 131.389V131.349C148.123 130.859 147.989 130.478 147.72 130.206C147.455 129.934 147.053 129.798 146.512 129.798C145.952 129.798 145.513 129.921 145.195 130.166C144.877 130.411 144.653 130.673 144.524 130.952L143.41 130.554C143.609 130.09 143.874 129.729 144.205 129.47C144.54 129.208 144.905 129.026 145.299 128.923C145.697 128.817 146.088 128.764 146.473 128.764C146.718 128.764 146.999 128.794 147.318 128.854C147.639 128.91 147.949 129.028 148.247 129.207C148.549 129.386 148.799 129.656 148.998 130.017C149.197 130.378 149.296 130.862 149.296 131.469V136.5H148.123V135.466H148.063C147.984 135.632 147.851 135.809 147.666 135.998C147.48 136.187 147.233 136.348 146.925 136.48C146.617 136.613 146.24 136.679 145.796 136.679ZM145.975 135.625C146.439 135.625 146.83 135.534 147.149 135.352C147.47 135.169 147.712 134.934 147.874 134.646C148.04 134.357 148.123 134.054 148.123 133.736V132.662C148.073 132.722 147.964 132.776 147.795 132.826C147.629 132.872 147.437 132.914 147.218 132.95C147.003 132.983 146.792 133.013 146.587 133.04C146.385 133.063 146.221 133.083 146.095 133.099C145.79 133.139 145.505 133.204 145.24 133.293C144.978 133.379 144.766 133.51 144.603 133.686C144.444 133.858 144.365 134.094 144.365 134.392C144.365 134.8 144.515 135.108 144.817 135.317C145.122 135.522 145.508 135.625 145.975 135.625ZM152.681 126.318V136.5H151.508V126.318H152.681ZM159.713 133.378V128.864H160.886V136.5H159.713V135.207H159.633C159.454 135.595 159.176 135.925 158.798 136.197C158.42 136.465 157.943 136.599 157.366 136.599C156.889 136.599 156.465 136.495 156.093 136.286C155.722 136.074 155.43 135.756 155.218 135.332C155.006 134.904 154.9 134.366 154.9 133.716V128.864H156.073V133.636C156.073 134.193 156.229 134.637 156.541 134.969C156.856 135.3 157.257 135.466 157.744 135.466C158.036 135.466 158.332 135.391 158.634 135.242C158.939 135.093 159.194 134.864 159.399 134.556C159.608 134.248 159.713 133.855 159.713 133.378ZM165.352 136.679C164.868 136.679 164.429 136.588 164.035 136.406C163.64 136.22 163.327 135.953 163.095 135.605C162.863 135.254 162.747 134.83 162.747 134.332C162.747 133.895 162.833 133.54 163.005 133.268C163.178 132.993 163.408 132.778 163.697 132.622C163.985 132.466 164.303 132.35 164.651 132.274C165.002 132.195 165.355 132.132 165.71 132.085C166.174 132.026 166.55 131.981 166.839 131.951C167.13 131.918 167.342 131.863 167.475 131.787C167.611 131.711 167.679 131.578 167.679 131.389V131.349C167.679 130.859 167.545 130.478 167.276 130.206C167.011 129.934 166.608 129.798 166.068 129.798C165.508 129.798 165.069 129.921 164.751 130.166C164.432 130.411 164.209 130.673 164.079 130.952L162.966 130.554C163.165 130.09 163.43 129.729 163.761 129.47C164.096 129.208 164.461 129.026 164.855 128.923C165.253 128.817 165.644 128.764 166.028 128.764C166.273 128.764 166.555 128.794 166.873 128.854C167.195 128.91 167.505 129.028 167.803 129.207C168.105 129.386 168.355 129.656 168.554 130.017C168.753 130.378 168.852 130.862 168.852 131.469V136.5H167.679V135.466H167.619C167.54 135.632 167.407 135.809 167.221 135.998C167.036 136.187 166.789 136.348 166.481 136.48C166.172 136.613 165.796 136.679 165.352 136.679ZM165.531 135.625C165.995 135.625 166.386 135.534 166.704 135.352C167.026 135.169 167.268 134.934 167.43 134.646C167.596 134.357 167.679 134.054 167.679 133.736V132.662C167.629 132.722 167.52 132.776 167.351 132.826C167.185 132.872 166.993 132.914 166.774 132.95C166.559 132.983 166.348 133.013 166.143 133.04C165.94 133.063 165.776 133.083 165.65 133.099C165.345 133.139 165.06 133.204 164.795 133.293C164.533 133.379 164.321 133.51 164.159 133.686C164 133.858 163.92 134.094 163.92 134.392C163.92 134.8 164.071 135.108 164.373 135.317C164.678 135.522 165.064 135.625 165.531 135.625ZM176.473 130.574L175.419 130.872C175.352 130.696 175.255 130.526 175.125 130.36C174.999 130.191 174.827 130.052 174.608 129.942C174.39 129.833 174.11 129.778 173.768 129.778C173.301 129.778 172.911 129.886 172.6 130.102C172.292 130.314 172.137 130.584 172.137 130.912C172.137 131.204 172.244 131.434 172.456 131.603C172.668 131.772 172.999 131.913 173.45 132.026L174.583 132.304C175.266 132.47 175.775 132.723 176.11 133.065C176.444 133.403 176.612 133.839 176.612 134.372C176.612 134.81 176.486 135.201 176.234 135.545C175.985 135.89 175.637 136.162 175.19 136.361C174.743 136.56 174.222 136.659 173.629 136.659C172.85 136.659 172.205 136.49 171.695 136.152C171.185 135.814 170.861 135.32 170.726 134.67L171.839 134.392C171.945 134.803 172.146 135.111 172.441 135.317C172.739 135.522 173.128 135.625 173.609 135.625C174.156 135.625 174.59 135.509 174.912 135.277C175.236 135.042 175.399 134.76 175.399 134.432C175.399 134.167 175.306 133.945 175.12 133.766C174.935 133.583 174.65 133.447 174.265 133.358L172.993 133.06C172.293 132.894 171.779 132.637 171.451 132.289C171.127 131.938 170.964 131.499 170.964 130.972C170.964 130.541 171.085 130.16 171.327 129.828C171.572 129.497 171.905 129.237 172.326 129.048C172.751 128.859 173.231 128.764 173.768 128.764C174.524 128.764 175.117 128.93 175.548 129.261C175.982 129.593 176.29 130.03 176.473 130.574ZM178.448 136.5V128.864H179.621V136.5H178.448ZM179.045 127.591C178.816 127.591 178.619 127.513 178.453 127.357C178.291 127.201 178.209 127.014 178.209 126.795C178.209 126.577 178.291 126.389 178.453 126.234C178.619 126.078 178.816 126 179.045 126C179.273 126 179.469 126.078 179.631 126.234C179.797 126.389 179.88 126.577 179.88 126.795C179.88 127.014 179.797 127.201 179.631 127.357C179.469 127.513 179.273 127.591 179.045 127.591ZM182.695 136.58C182.45 136.58 182.24 136.492 182.064 136.316C181.888 136.14 181.801 135.93 181.801 135.685C181.801 135.439 181.888 135.229 182.064 135.053C182.24 134.878 182.45 134.79 182.695 134.79C182.941 134.79 183.151 134.878 183.327 135.053C183.502 135.229 183.59 135.439 183.59 135.685C183.59 135.847 183.549 135.996 183.466 136.132C183.386 136.268 183.279 136.377 183.143 136.46C183.01 136.54 182.861 136.58 182.695 136.58Z" fill="black"/>
<defs>
<clipPath id="clip0_937_7776">
<rect width="134.763" height="112.5" fill="white" transform="translate(25.1187)"/>
</clipPath>
</defs>
</svg>
