<svg width="32" height="32" viewBox="0 0 32 32" fill="none" xmlns="http://www.w3.org/2000/svg">
<path d="M16.1886 8.78661C15.8766 8.95493 15.6821 9.27499 15.6821 9.6231V15.0437H4.97906C4.43862 15.0437 4 15.4721 4 16C4 16.528 4.43862 16.9564 4.97906 16.9564H15.6821V22.377C15.6821 22.7264 15.8766 23.0464 16.1886 23.2135C16.5006 23.3831 16.8818 23.3716 17.1834 23.1867L27.5431 16.8098C27.8277 16.6338 28 16.329 28 16C28 15.6711 27.8277 15.3663 27.5431 15.1903L17.1834 8.81339C17.0241 8.71648 16.8426 8.66675 16.6612 8.66675C16.4993 8.66675 16.3361 8.70755 16.1886 8.78661Z" fill="#5C3FCB"/>
</svg>
