<svg width="32" height="32" viewBox="0 0 32 32" fill="none" xmlns="http://www.w3.org/2000/svg">
<path d="M20.0933 2.66675C23.7066 2.66675 26.6266 4.09342 26.6666 7.72008V27.9601C26.6666 28.1868 26.6133 28.4134 26.5066 28.6134C26.3333 28.9334 26.0399 29.1734 25.6799 29.2801C25.3333 29.3867 24.9466 29.3334 24.6266 29.1467L15.9866 24.8267L7.33325 29.1467C7.13459 29.2521 6.90659 29.3201 6.67992 29.3201C5.93325 29.3201 5.33325 28.7068 5.33325 27.9601V7.72008C5.33325 4.09342 8.26659 2.66675 11.8666 2.66675H20.0933ZM20.9999 10.7201H10.9599C10.3866 10.7201 9.91992 11.1867 9.91992 11.7734C9.91992 12.3587 10.3866 12.8267 10.9599 12.8267H20.9999C21.5733 12.8267 22.0399 12.3587 22.0399 11.7734C22.0399 11.1867 21.5733 10.7201 20.9999 10.7201Z" fill="#5C3FCB"/>
</svg>
