<svg width="32" height="32" viewBox="0 0 32 32" fill="none" xmlns="http://www.w3.org/2000/svg">
<path d="M9.59999 3.19995C8.7513 3.19995 7.93737 3.53709 7.33725 4.13721C6.73714 4.73733 6.39999 5.55126 6.39999 6.39995V25.6C6.39999 26.4486 6.73714 27.2626 7.33725 27.8627C7.93737 28.4628 8.7513 28.8 9.59999 28.8H24.8C25.0122 28.8 25.2157 28.7157 25.3657 28.5656C25.5157 28.4156 25.6 28.2121 25.6 28C25.6 27.7878 25.5157 27.5843 25.3657 27.4343C25.2157 27.2842 25.0122 27.2 24.8 27.2H9.59999C9.17565 27.2 8.76868 27.0314 8.46862 26.7313C8.16857 26.4313 7.99999 26.0243 7.99999 25.6H24C24.4243 25.6 24.8313 25.4314 25.1314 25.1313C25.4314 24.8313 25.6 24.4243 25.6 24V6.39995C25.6 5.55126 25.2629 4.73733 24.6627 4.13721C24.0626 3.53709 23.2487 3.19995 22.4 3.19995H9.59999ZM10.8 7.19995H21.2C21.5183 7.19995 21.8235 7.32638 22.0485 7.55142C22.2736 7.77647 22.4 8.08169 22.4 8.39995C22.4 8.71821 22.2736 9.02344 22.0485 9.24848C21.8235 9.47352 21.5183 9.59995 21.2 9.59995H10.8C10.4817 9.59995 10.1765 9.47352 9.95147 9.24848C9.72642 9.02344 9.59999 8.71821 9.59999 8.39995C9.59999 8.08169 9.72642 7.77647 9.95147 7.55142C10.1765 7.32638 10.4817 7.19995 10.8 7.19995Z" fill="#5C3FCB"/>
</svg>
