<svg width="32" height="32" viewBox="0 0 32 32" fill="none" xmlns="http://www.w3.org/2000/svg">
<path d="M10.5599 17.9597C12.4399 17.9597 13.9466 19.481 13.9466 21.3743V25.9197C13.9466 27.7997 12.4399 29.333 10.5599 29.333H6.05323C4.18657 29.333 2.66657 27.7997 2.66657 25.9197V21.3743C2.66657 19.481 4.18657 17.9597 6.05323 17.9597H10.5599ZM25.9467 17.9597C27.8134 17.9597 29.3334 19.481 29.3334 21.3743V25.9197C29.3334 27.7997 27.8134 29.333 25.9467 29.333H21.44C19.56 29.333 18.0534 27.7997 18.0534 25.9197V21.3743C18.0534 19.481 19.56 17.9597 21.44 17.9597H25.9467ZM10.5599 2.66675C12.4399 2.66675 13.9466 4.20008 13.9466 6.08141V10.6267C13.9466 12.5201 12.4399 14.0401 10.5599 14.0401H6.05323C4.18657 14.0401 2.66657 12.5201 2.66657 10.6267V6.08141C2.66657 4.20008 4.18657 2.66675 6.05323 2.66675H10.5599ZM25.9467 2.66675C27.8134 2.66675 29.3334 4.20008 29.3334 6.08141V10.6267C29.3334 12.5201 27.8134 14.0401 25.9467 14.0401H21.44C19.56 14.0401 18.0534 12.5201 18.0534 10.6267V6.08141C18.0534 4.20008 19.56 2.66675 21.44 2.66675H25.9467Z" fill="#5C3FCB"/>
</svg>
