<svg width="32" height="32" viewBox="0 0 32 32" fill="none" xmlns="http://www.w3.org/2000/svg">
<path d="M22.2259 2.66724C26.7605 2.66724 29.3205 5.23924 29.3339 9.7739V22.2272C29.3339 26.7606 26.7605 29.3339 22.2259 29.3339H9.77387C5.23921 29.3339 2.66721 26.7606 2.66721 22.2272V9.7739C2.66721 5.23924 5.23921 2.66724 9.77387 2.66724H22.2259ZM16.6672 8.1739C16.2925 7.94724 15.8392 7.94724 15.4805 8.1739C15.1192 8.39924 14.9205 8.8139 14.9592 9.22724V22.8139C15.0272 23.3872 15.5059 23.8139 16.0659 23.8139C16.6405 23.8139 17.1192 23.3872 17.1725 22.8139V9.22724C17.2259 8.8139 17.0272 8.39924 16.6672 8.1739ZM10.4405 12.5472C10.0805 12.3206 9.62587 12.3206 9.26721 12.5472C8.90587 12.7739 8.70721 13.1859 8.74721 13.6006V22.8139C8.79921 23.3872 9.27921 23.8139 9.85254 23.8139C10.4272 23.8139 10.9059 23.3872 10.9592 22.8139V13.6006C11.0005 13.1859 10.7992 12.7739 10.4405 12.5472ZM22.7859 17.3872C22.4272 17.1606 21.9739 17.1606 21.6005 17.3872C21.2392 17.6139 21.0405 18.0126 21.0939 18.4406V22.8139C21.1472 23.3872 21.6259 23.8139 22.2005 23.8139C22.7605 23.8139 23.2392 23.3872 23.3072 22.8139V18.4406C23.3459 18.0126 23.1472 17.6139 22.7859 17.3872Z" fill="#5C3FCB"/>
</svg>
