<svg width="32" height="32" viewBox="0 0 32 32" fill="none" xmlns="http://www.w3.org/2000/svg">
<path d="M5.33336 18.6667H8.00003C8.73336 18.6667 9.33336 18.0667 9.33336 17.3334V14.6667C9.33336 13.9334 8.73336 13.3334 8.00003 13.3334H5.33336C4.60003 13.3334 4.00003 13.9334 4.00003 14.6667V17.3334C4.00003 18.0667 4.60003 18.6667 5.33336 18.6667ZM5.33336 27.3334H8.00003C8.73336 27.3334 9.33336 26.7334 9.33336 26.0001V23.3334C9.33336 22.6001 8.73336 22.0001 8.00003 22.0001H5.33336C4.60003 22.0001 4.00003 22.6001 4.00003 23.3334V26.0001C4.00003 26.7334 4.60003 27.3334 5.33336 27.3334ZM5.33336 10.0001H8.00003C8.73336 10.0001 9.33336 9.40008 9.33336 8.66675V6.00008C9.33336 5.26675 8.73336 4.66675 8.00003 4.66675H5.33336C4.60003 4.66675 4.00003 5.26675 4.00003 6.00008V8.66675C4.00003 9.40008 4.60003 10.0001 5.33336 10.0001ZM12 18.6667H26.6667C27.4 18.6667 28 18.0667 28 17.3334V14.6667C28 13.9334 27.4 13.3334 26.6667 13.3334H12C11.2667 13.3334 10.6667 13.9334 10.6667 14.6667V17.3334C10.6667 18.0667 11.2667 18.6667 12 18.6667ZM12 27.3334H26.6667C27.4 27.3334 28 26.7334 28 26.0001V23.3334C28 22.6001 27.4 22.0001 26.6667 22.0001H12C11.2667 22.0001 10.6667 22.6001 10.6667 23.3334V26.0001C10.6667 26.7334 11.2667 27.3334 12 27.3334ZM10.6667 6.00008V8.66675C10.6667 9.40008 11.2667 10.0001 12 10.0001H26.6667C27.4 10.0001 28 9.40008 28 8.66675V6.00008C28 5.26675 27.4 4.66675 26.6667 4.66675H12C11.2667 4.66675 10.6667 5.26675 10.6667 6.00008Z" fill="black"/>
</svg>
