<svg width="24" height="28" viewBox="0 0 24 28" fill="none" xmlns="http://www.w3.org/2000/svg">
<path d="M17.588 0.666748C21.7067 0.666748 24 3.04008 24 7.10675V20.8801C24 25.0134 21.7067 27.3334 17.588 27.3334H6.41333C2.36 27.3334 0 25.0134 0 20.8801V7.10675C0 3.04008 2.36 0.666748 6.41333 0.666748H17.588ZM6.77333 18.9867C6.37333 18.9467 5.98667 19.1334 5.77333 19.4801C5.56 19.8134 5.56 20.2534 5.77333 20.6001C5.98667 20.9334 6.37333 21.1334 6.77333 21.0801H17.2267C17.7587 21.0267 18.16 20.5721 18.16 20.0401C18.16 19.4934 17.7587 19.0401 17.2267 18.9867H6.77333ZM17.2267 12.9054H6.77333C6.19867 12.9054 5.73333 13.3734 5.73333 13.9467C5.73333 14.5201 6.19867 14.9867 6.77333 14.9867H17.2267C17.8 14.9867 18.2667 14.5201 18.2667 13.9467C18.2667 13.3734 17.8 12.9054 17.2267 12.9054ZM10.7587 6.86675H6.77333V6.88008C6.19867 6.88008 5.73333 7.34675 5.73333 7.92008C5.73333 8.49341 6.19867 8.96008 6.77333 8.96008H10.7587C11.3333 8.96008 11.8 8.49341 11.8 7.90541C11.8 7.33341 11.3333 6.86675 10.7587 6.86675Z" fill="#5C3FCB"/>
</svg>
