<svg width="32" height="32" viewBox="0 0 20 19" fill="none" xmlns="http://www.w3.org/2000/svg">
<path d="M18.605 6.61551C17.9987 5.73289 17.2769 4.93543 16.4588 4.24449L18.6661 2.03801C19.1118 1.56612 19.0906 0.822253 18.6187 0.37655C18.1652 -0.0517442 17.4562 -0.0512301 17.0034 0.377688L14.46 2.92185C13.0754 2.22999 11.547 1.87508 9.99926 1.88599C6.51899 1.9193 3.28727 3.69536 1.39357 6.61551C0.397781 8.08004 0.397781 10.0043 1.39357 11.4688C1.99985 12.3514 2.72165 13.1489 3.5397 13.8398L1.33245 16.0486C0.873308 16.5078 0.873308 17.2522 1.33245 17.7113C1.7916 18.1705 2.53602 18.1705 2.99513 17.7113L5.53852 15.1671C6.92308 15.859 8.45151 16.2139 9.99926 16.203C13.4795 16.1698 16.7113 14.3937 18.605 11.4735C19.6029 10.0079 19.6029 8.0811 18.605 6.61551ZM3.33208 10.1415C2.88086 9.47977 2.88086 8.60926 3.33208 7.94756C4.77691 5.65531 7.28971 4.25672 9.99926 4.23667C10.9124 4.23222 11.8189 4.39148 12.6759 4.70679L11.2232 6.15872C9.62984 5.48232 7.78984 6.22568 7.11348 7.819C6.78124 8.60166 6.78124 9.48576 7.11348 10.2684L5.20399 12.1787C4.48363 11.5949 3.85296 10.9085 3.33208 10.1415ZM16.6664 10.1415C15.2216 12.4337 12.7088 13.8323 9.99926 13.8524C9.08615 13.8568 8.17961 13.6976 7.32266 13.3822L8.77535 11.9295C10.3687 12.6059 12.2087 11.8626 12.885 10.2693C13.2173 9.4866 13.2173 8.6025 12.885 7.81985L14.7945 5.91036C15.5149 6.49416 16.1455 7.18055 16.6664 7.94759C17.1177 8.60926 17.1177 9.47977 16.6664 10.1415Z" fill="#878787"/>
</svg>
