<svg width="32" height="32" viewBox="0 0 32 32" fill="none" xmlns="http://www.w3.org/2000/svg">
<path d="M12.1797 27.6979V23.6209C12.1797 22.5802 13.0296 21.7365 14.0779 21.7365H17.9101C18.4136 21.7365 18.8964 21.935 19.2524 22.2884C19.6084 22.6418 19.8084 23.1211 19.8084 23.6209V27.6979C19.8052 28.1305 19.9761 28.5466 20.2832 28.8537C20.5902 29.1607 21.0081 29.3334 21.4439 29.3334H24.0584C25.2795 29.3365 26.4517 28.8572 27.3162 28.0012C28.1808 27.1451 28.6667 25.9827 28.6667 24.7705V13.1559C28.6667 12.1767 28.2294 11.2479 27.4728 10.6196L18.5787 3.56791C17.0315 2.3315 14.8148 2.37142 13.3139 3.66272L4.62268 10.6196C3.83032 11.2294 3.35673 12.1609 3.33333 13.1559V24.7587C3.33333 27.2852 5.3965 29.3334 7.94156 29.3334H10.4964C11.4016 29.3334 12.1373 28.6084 12.1439 27.7097L12.1797 27.6979Z" fill="#5C3FCB"/>
</svg>
