<svg width="32" height="32" viewBox="0 0 32 32" fill="none" xmlns="http://www.w3.org/2000/svg">
<path d="M21.7865 2.66553C26.3065 2.66553 29.3332 5.83886 29.3332 10.5589V21.4535C29.3332 26.1602 26.3065 29.3322 21.7865 29.3322H10.2265C5.70653 29.3322 2.66653 26.1602 2.66653 21.4535V10.5589C2.66653 5.83886 5.70653 2.66553 10.2265 2.66553H21.7865ZM15.9865 13.9735C15.3465 13.9735 14.8265 14.5055 14.8265 15.1469V21.0402C14.8265 21.6802 15.3465 22.2002 15.9865 22.2002C16.6399 22.2002 17.1599 21.6802 17.1599 21.0402V15.1469C17.1599 14.5055 16.6399 13.9735 15.9865 13.9735ZM16.0132 9.74686C15.3599 9.74686 14.8399 10.2669 14.8399 10.9202C14.8399 11.5589 15.3599 12.0802 15.9865 12.0802C16.6532 12.0802 17.1732 11.5589 17.1732 10.9202C17.1732 10.2669 16.6532 9.74686 16.0132 9.74686Z" fill="black"/>
</svg>
