<svg width="32" height="32" viewBox="0 0 24 25" fill="none" xmlns="http://www.w3.org/2000/svg">
<g clip-path="url(#clip0_542_1667)">
<path d="M17.8703 9.14696V7.92595C17.8703 4.68388 15.242 2.05566 12 2.05566C8.75789 2.05566 6.12972 4.68388 6.12972 7.92591V9.14692C4.58736 9.93402 3.61578 11.5186 3.61389 13.2502V17.4433C3.61668 19.9895 5.68005 22.0529 8.22623 22.0556H15.7737C18.3199 22.0528 20.3833 19.9895 20.386 17.4433V13.2503C20.3842 11.5187 19.4126 9.93402 17.8703 9.14696ZM12 4.57149C13.8526 4.57149 15.3544 6.07332 15.3544 7.92591V8.63789H8.64555V7.92591C8.64555 6.07332 10.1474 4.57149 12 4.57149ZM17.8703 17.4433C17.8703 18.6012 16.9316 19.5398 15.7737 19.5398H8.22627C7.0684 19.5398 6.12976 18.6012 6.12976 17.4433V13.2503C6.12976 12.0924 7.0684 11.1538 8.22627 11.1538H15.7737C16.9316 11.1538 17.8703 12.0924 17.8703 13.2503V17.4433Z" fill="#878787"/>
<path d="M11.5807 13.6694H12.4193C13.114 13.6694 13.6772 14.2326 13.6772 14.9273C13.6772 15.6221 13.114 16.1853 12.4193 16.1853H11.5807C10.8859 16.1853 10.3228 15.6221 10.3228 14.9273C10.3228 14.2326 10.8859 13.6694 11.5807 13.6694Z" fill="#878787"/>
</g>
<defs>
<clipPath id="clip0_542_1667">
<rect width="20" height="20" fill="white" transform="translate(2 2.05566)"/>
</clipPath>
</defs>
</svg>
