<svg width="32" height="32" viewBox="0 0 32 32" fill="none" xmlns="http://www.w3.org/2000/svg">
<path d="M11.0397 3.33395C11.8797 3.35949 12.6931 3.50616 13.4811 3.77416H13.5597C13.6131 3.79949 13.6531 3.82749 13.6797 3.85283C13.9744 3.94749 14.2531 4.05416 14.5197 4.20083L15.0264 4.42749C15.2264 4.53416 15.4664 4.73283 15.5997 4.81416C15.7331 4.89283 15.8797 4.97416 15.9997 5.06616C17.4811 3.93416 19.2797 3.32083 21.1331 3.33395C21.9744 3.33395 22.8144 3.45283 23.6131 3.72083C28.5344 5.32083 30.3077 10.7208 28.8264 15.4408C27.9864 17.8528 26.6131 20.0542 24.8144 21.8528C22.2397 24.3462 19.4144 26.5595 16.3731 28.4662L16.0397 28.6675L15.6931 28.4528C12.6411 26.5595 9.79974 24.3462 7.20107 21.8395C5.4144 20.0408 4.03974 17.8528 3.1864 15.4408C1.67974 10.7208 3.45307 5.32083 8.42774 3.69283C8.8144 3.55949 9.21307 3.46616 9.61307 3.41416H9.77307C10.1477 3.35949 10.5197 3.33395 10.8931 3.33395H11.0397Z" stroke="#C4C4C4" stroke-width="2.5"/>
</svg>
