<svg width="32" height="32" viewBox="0 0 32 32" fill="none" xmlns="http://www.w3.org/2000/svg">
<path d="M18.4896 7.452C18.4897 7.77905 18.4254 8.10291 18.3003 8.4051C18.1753 8.70729 17.9919 8.98189 17.7607 9.21322C17.5296 9.44454 17.2551 9.62807 16.953 9.75333C16.6509 9.87858 16.327 9.9431 16 9.9432C15.6729 9.94331 15.3491 9.879 15.0469 9.75394C14.7447 9.62888 14.4701 9.44553 14.2388 9.21435C14.0074 8.98317 13.8239 8.70869 13.6987 8.40658C13.5734 8.10447 13.5089 7.78065 13.5088 7.4536C13.5086 6.79311 13.7708 6.15958 14.2376 5.69239C14.7045 5.2252 15.3379 4.96261 15.9984 4.9624C16.6589 4.96219 17.2924 5.22437 17.7596 5.69126C18.2268 6.15815 18.4894 6.79151 18.4896 7.452Z" fill="#5C3FCB"/>
<path d="M16 18.4887C17.3749 18.4887 18.4896 17.3741 18.4896 15.9991C18.4896 14.6242 17.3749 13.5095 16 13.5095C14.625 13.5095 13.5104 14.6242 13.5104 15.9991C13.5104 17.3741 14.625 18.4887 16 18.4887Z" fill="#5C3FCB"/>
<path d="M16 27.0376C17.3749 27.0376 18.4896 25.9229 18.4896 24.5479C18.4896 23.173 17.3749 22.0583 16 22.0583C14.625 22.0583 13.5104 23.173 13.5104 24.5479C13.5104 25.9229 14.625 27.0376 16 27.0376Z" fill="#5C3FCB"/>
</svg>
