<svg width="32" height="32" viewBox="0 0 32 32" fill="none" xmlns="http://www.w3.org/2000/svg">
<path d="M28.5805 3.44272C27.9136 2.75821 26.9265 2.5032 26.0061 2.77163L4.54402 9.01278C3.57295 9.28256 2.88467 10.057 2.69926 11.0408C2.50985 12.0421 3.17145 13.3131 4.03581 13.8446L10.7466 17.9692C11.4348 18.3919 12.3232 18.2859 12.8928 17.7115L20.5772 9.97915C20.9641 9.5765 21.6043 9.5765 21.9912 9.97915C22.378 10.3684 22.378 10.9992 21.9912 11.4019L14.2933 19.1355C13.7224 19.7086 13.6157 20.6012 14.0359 21.2937L18.1362 28.0718C18.6164 28.8771 19.4434 29.3334 20.3505 29.3334C20.4572 29.3334 20.5772 29.3334 20.684 29.32C21.7244 29.1858 22.5514 28.4744 22.8582 27.4678L29.2208 6.03314C29.5009 5.12045 29.2475 4.12724 28.5805 3.44272Z" fill="#5C3FCB"/>
</svg>
