<svg width="32" height="32" viewBox="0 0 32 32" fill="none" xmlns="http://www.w3.org/2000/svg">
<g clip-path="url(#clip0_320_1739)">
<path d="M16 19.9999C18.2091 19.9999 20 18.2091 20 15.9999C20 13.7908 18.2091 11.9999 16 11.9999C13.7909 11.9999 12 13.7908 12 15.9999C12 18.2091 13.7909 19.9999 16 19.9999Z" stroke="#121926" stroke-width="2" stroke-linecap="round" stroke-linejoin="round"/>
<path d="M25.8667 19.9999C25.6892 20.4021 25.6362 20.8482 25.7147 21.2807C25.7931 21.7132 25.9993 22.1123 26.3067 22.4266L26.3867 22.5066C26.6346 22.7542 26.8313 23.0483 26.9655 23.3721C27.0997 23.6958 27.1688 24.0428 27.1688 24.3933C27.1688 24.7437 27.0997 25.0907 26.9655 25.4144C26.8313 25.7382 26.6346 26.0323 26.3867 26.2799C26.139 26.5279 25.8449 26.7245 25.5212 26.8587C25.1974 26.9929 24.8504 27.062 24.5 27.062C24.1496 27.062 23.8025 26.9929 23.4788 26.8587C23.1551 26.7245 22.861 26.5279 22.6133 26.2799L22.5333 26.1999C22.2191 25.8925 21.82 25.6863 21.3874 25.6079C20.9549 25.5295 20.5088 25.5824 20.1067 25.7599C19.7123 25.9289 19.376 26.2096 19.1391 26.5673C18.9022 26.925 18.775 27.3442 18.7733 27.7733V27.9999C18.7733 28.7072 18.4924 29.3854 17.9923 29.8855C17.4922 30.3856 16.8139 30.6666 16.1067 30.6666C15.3994 30.6666 14.7211 30.3856 14.221 29.8855C13.7209 29.3854 13.44 28.7072 13.44 27.9999V27.8799C13.4297 27.4386 13.2868 27.0106 13.03 26.6515C12.7732 26.2925 12.4143 26.019 12 25.8666C11.5978 25.6891 11.1517 25.6362 10.7192 25.7146C10.2867 25.793 9.88757 25.9992 9.57333 26.3066L9.49333 26.3866C9.24567 26.6345 8.95156 26.8312 8.62784 26.9654C8.30411 27.0996 7.9571 27.1687 7.60666 27.1687C7.25622 27.1687 6.90922 27.0996 6.58549 26.9654C6.26176 26.8312 5.96766 26.6345 5.71999 26.3866C5.47206 26.1389 5.27537 25.8448 5.14117 25.5211C5.00697 25.1974 4.9379 24.8504 4.9379 24.4999C4.9379 24.1495 5.00697 23.8025 5.14117 23.4787C5.27537 23.155 5.47206 22.8609 5.71999 22.6132L5.79999 22.5333C6.10738 22.219 6.31358 21.8199 6.392 21.3874C6.47043 20.9548 6.41748 20.5087 6.23999 20.1066C6.07098 19.7122 5.79034 19.3759 5.43262 19.139C5.07489 18.9021 4.65571 18.775 4.22666 18.7733H3.99999C3.29275 18.7733 2.61447 18.4923 2.11438 17.9922C1.61428 17.4921 1.33333 16.8138 1.33333 16.1066C1.33333 15.3993 1.61428 14.7211 2.11438 14.221C2.61447 13.7209 3.29275 13.4399 3.99999 13.4399H4.11999C4.56132 13.4296 4.98933 13.2867 5.34839 13.0299C5.70745 12.7731 5.98095 12.4142 6.13333 11.9999C6.31081 11.5978 6.36376 11.1517 6.28533 10.7191C6.20691 10.2866 6.00071 9.88749 5.69333 9.57325L5.61333 9.49325C5.36539 9.24559 5.1687 8.95149 5.0345 8.62776C4.9003 8.30403 4.83123 7.95703 4.83123 7.60658C4.83123 7.25614 4.9003 6.90914 5.0345 6.58541C5.1687 6.26168 5.36539 5.96758 5.61333 5.71992C5.86099 5.47198 6.15509 5.27529 6.47882 5.14109C6.80255 5.00689 7.14955 4.93782 7.49999 4.93782C7.85044 4.93782 8.19744 5.00689 8.52117 5.14109C8.8449 5.27529 9.139 5.47198 9.38666 5.71992L9.46666 5.79992C9.7809 6.1073 10.18 6.3135 10.6125 6.39192C11.0451 6.47035 11.4912 6.41741 11.8933 6.23992H12C12.3944 6.0709 12.7307 5.79026 12.9676 5.43254C13.2045 5.07482 13.3316 4.65563 13.3333 4.22659V3.99992C13.3333 3.29267 13.6143 2.6144 14.1144 2.1143C14.6145 1.6142 15.2928 1.33325 16 1.33325C16.7072 1.33325 17.3855 1.6142 17.8856 2.1143C18.3857 2.6144 18.6667 3.29267 18.6667 3.99992V4.11992C18.6684 4.54897 18.7955 4.96815 19.0324 5.32587C19.2693 5.68359 19.6056 5.96423 20 6.13325C20.4021 6.31074 20.8483 6.36368 21.2808 6.28526C21.7133 6.20683 22.1124 6.00063 22.4267 5.69325L22.5067 5.61325C22.7543 5.36531 23.0484 5.16862 23.3722 5.03443C23.6959 4.90023 24.0429 4.83115 24.3933 4.83115C24.7438 4.83115 25.0908 4.90023 25.4145 5.03443C25.7382 5.16862 26.0323 5.36531 26.28 5.61325C26.5279 5.86091 26.7246 6.15502 26.8588 6.47874C26.993 6.80247 27.0621 7.14948 27.0621 7.49992C27.0621 7.85036 26.993 8.19736 26.8588 8.52109C26.7246 8.84482 26.5279 9.13892 26.28 9.38658L26.2 9.46658C25.8926 9.78082 25.6864 10.1799 25.608 10.6125C25.5296 11.045 25.5825 11.4911 25.76 11.8933V11.9999C25.929 12.3943 26.2097 12.7306 26.5674 12.9675C26.9251 13.2044 27.3443 13.3315 27.7733 13.3333H28C28.7072 13.3333 29.3855 13.6142 29.8856 14.1143C30.3857 14.6144 30.6667 15.2927 30.6667 15.9999C30.6667 16.7072 30.3857 17.3854 29.8856 17.8855C29.3855 18.3856 28.7072 18.6666 28 18.6666H27.88C27.4509 18.6683 27.0318 18.7954 26.674 19.0323C26.3163 19.2692 26.0357 19.6056 25.8667 19.9999Z" stroke="#121926" stroke-width="2" stroke-linecap="round" stroke-linejoin="round"/>
</g>
<defs>
<clipPath id="clip0_320_1739">
<rect width="32" height="32" fill="white"/>
</clipPath>
</defs>
</svg>
