<svg width="32" height="32" viewBox="0 0 32 32" fill="none" xmlns="http://www.w3.org/2000/svg">
<path d="M16 2.66675C23.3488 2.66675 29.3334 8.64842 29.3334 16.0078C29.3334 23.3517 23.3488 29.3334 16 29.3334C8.65124 29.3334 2.66669 23.3517 2.66669 16.0078C2.66669 8.64842 8.65124 2.66675 16 2.66675ZM14.4814 10.7066C14.1982 10.7066 13.9279 10.7709 13.6705 10.8996C13.3488 11.0797 13.0914 11.3627 12.9498 11.6971C12.8597 11.9287 12.7182 12.6233 12.7182 12.6362C12.5766 13.3952 12.4994 14.6301 12.4994 15.9936C12.4994 17.2942 12.5766 18.4764 12.6924 19.2482C12.7053 19.2611 12.8469 20.1229 13.0013 20.4188C13.2844 20.9591 13.8379 21.2935 14.4299 21.2935H14.4814C14.8675 21.2807 15.6783 20.9462 15.6783 20.9333C17.0425 20.3673 19.7323 18.605 20.8134 17.4344L20.8906 17.3572C21.0322 17.2157 21.2124 16.997 21.251 16.9456C21.4569 16.6754 21.5599 16.341 21.5599 16.0078C21.5599 15.6335 21.444 15.2861 21.2252 15.0031C21.1738 14.9517 20.9807 14.733 20.8005 14.5529C19.7452 13.4209 16.991 11.5685 15.5496 11.0025C15.3308 10.9137 14.7774 10.7195 14.4814 10.7066Z" fill="#C4C4C4"/>
</svg>
