<svg width="32" height="32" viewBox="0 0 32 32" fill="none" xmlns="http://www.w3.org/2000/svg">
<path fill-rule="evenodd" clip-rule="evenodd" d="M6.66665 26.6667H25.3333C25.6869 26.6667 26.0261 26.8072 26.2761 27.0573C26.5262 27.3073 26.6666 27.6465 26.6666 28.0001C26.6666 28.3537 26.5262 28.6928 26.2761 28.9429C26.0261 29.1929 25.6869 29.3334 25.3333 29.3334H6.66665C6.31302 29.3334 5.97389 29.1929 5.72384 28.9429C5.47379 28.6928 5.33331 28.3537 5.33331 28.0001C5.33331 27.6465 5.47379 27.3073 5.72384 27.0573C5.97389 26.8072 6.31302 26.6667 6.66665 26.6667ZM5.33331 20.0001L18.6666 6.66675L22.6666 10.6667L9.33331 24.0001H5.33331V20.0001ZM20 5.33341L22.6666 2.66675L26.6666 6.66675L23.9986 9.33475L20 5.33341Z" fill="black"/>
</svg>
